<!DOCTYPE svg PUBLIC "-//W3C//DTD SVG 1.1//EN" "http://www.w3.org/Graphics/SVG/1.1/DTD/svg11.dtd" [
	<!ENTITY ns_flows "http://ns.adobe.com/Flows/1.0/">
]><svg xmlns="http://www.w3.org/2000/svg" xmlns:xlink="http://www.w3.org/1999/xlink" width="632" height="195" viewBox="0 0 632 195"><defs><path id="a" d="M0 0h631.637v194.879h-631.637z"/></defs><clipPath id="b"><use xlink:href="#a" overflow="visible"/></clipPath><g clip-path="url(#b)"><defs><path id="c" d="M0 0h631.637v194.879h-631.637z"/></defs><clipPath id="d"><use xlink:href="#c" overflow="visible"/></clipPath><g clip-path="url(#d)"><defs><path id="e" d="M95.456 47.54h1.724v1.583h-1.724z"/></defs><clipPath id="f"><use xlink:href="#e" overflow="visible"/></clipPath><g clip-path="url(#f)"><defs><path id="g" d="M95.456 47.54l.054.528c.487.296 1.035.642 1.67 1.055-.578-.548-1.154-1.076-1.724-1.583"/></defs><clipPath id="h"><use xlink:href="#g" overflow="visible"/></clipPath><linearGradient id="i" gradientUnits="userSpaceOnUse" y1="194.879" x2="1" y2="194.879" gradientTransform="matrix(1.744 -.023 .023 -1.711 91.028 381.814)"><stop offset="0" stop-color="#DEDEDD"/><stop offset=".03" stop-color="#E3CABC"/><stop offset=".075" stop-color="#E7B096"/><stop offset=".125" stop-color="#E99A77"/><stop offset=".179" stop-color="#EB875F"/><stop offset=".239" stop-color="#EC774A"/><stop offset=".307" stop-color="#ED683A"/><stop offset=".386" stop-color="#EE5C2E"/><stop offset=".484" stop-color="#EF5327"/><stop offset=".621" stop-color="#F04E24"/><stop offset="1" stop-color="#F04C23"/><stop offset="1" stop-color="#E94D25"/><stop offset="1" stop-color="#C55635"/><stop offset="1" stop-color="#A85B43"/><stop offset="1" stop-color="#905D4D"/><stop offset="1" stop-color="#7D5D54"/><stop offset="1" stop-color="#6F5D59"/><stop offset="1" stop-color="#645D5C"/><stop offset="1" stop-color="#5E5D5D"/><stop offset="1" stop-color="#5D5D5E"/><stop offset="1" stop-color="#0A0000"/></linearGradient><path clip-path="url(#h)" fill="url(#i)" d="M95.456 47.54l1.745-.023-.021 1.606-1.746.022z"/></g></g><path clip-path="url(#d)" fill="#EE5A2B" d="M43.744 25.071c-17.909 39.734-46.154 57.945-43.579 95.175.099 1.414.266 2.758.416 4.121 9.84 33.209 38.514 44.43 55.312 48.183l-8.006-8.204c-.694-.707-16.919-17.643-14.133-42 1.385-12.084 7.107-24.396 13.163-37.437 7.95-17.1 16.166-34.781 14.192-52.056-1.503-13.096-8.442-23.678-14.864-30.904.576 3.883 1.541 14.147-2.501 23.122M49.556 29.653c-17.908 39.734-46.155 57.945-43.579 95.176.099 1.412.266 2.76.416 4.121 9.839 33.207 38.514 44.434 55.311 48.182l-8.005-8.203c-.692-.707-16.919-17.645-14.133-42 1.383-12.084 7.108-24.396 13.164-37.437 7.948-17.1 16.165-34.781 14.19-52.056-1.501-13.094-8.438-23.678-14.863-30.901.576 3.879 1.54 14.144-2.501 23.118"/><path clip-path="url(#d)" fill="#F26922" d="M80.591 125.969c-17.366 22.594-18.306 44.946-18.318 49.277.888.157 1.734.292 2.498.402.94-7.396 4.562-19.891 17.463-31.945 1.429-1.335 3.102-2.806 4.939-4.422 11.854-10.423 29.772-26.173 32.149-49.938 1.781-17.757-8.38-31.669-17.809-40.555-.634-.413-1.183-.758-1.67-1.055.154 1.285.257 2.582.323 3.876 9.994 26.693-9.204 60.865-19.575 74.36"/><path clip-path="url(#d)" fill="#EE5A2B" d="M80.351 125.138c-17.366 22.594-18.306 44.945-18.318 49.277.888.156 1.734.291 2.498.402.94-7.396 4.562-19.891 17.463-31.945 1.429-1.336 3.102-2.807 4.939-4.421 11.854-10.425 29.772-26.175 32.149-49.938 1.781-17.758-8.38-31.67-17.809-40.556-.634-.413-1.183-.758-1.67-1.055.154 1.285.257 2.582.323 3.876 9.993 26.692-9.204 60.864-19.575 74.36"/><path clip-path="url(#d)" fill="#EE5A2B" d="M183.843 144.454c-4.938 0-9.501-.91-13.691-2.73-4.19-1.819-7.83-4.31-10.917-7.47s-5.489-6.912-7.21-11.256c-1.724-4.341-2.582-9.035-2.582-14.078 0-5.109.858-9.771 2.582-13.986 1.721-4.214 4.123-7.807 7.21-10.775 3.087-2.97 6.727-5.268 10.917-6.896 4.19-1.631 8.753-2.445 13.691-2.445h17.25c5.132 0 9.826.832 14.083 2.492 4.255 1.661 7.909 3.99 10.962 6.991 3.053 3.003 5.426 6.595 7.116 10.777 1.69 4.181 2.533 8.798 2.533 13.842 0 5.043-.861 9.737-2.582 14.078-1.721 4.344-4.126 8.096-7.21 11.256-3.086 3.16-6.742 5.65-10.965 7.47-4.225 1.82-8.869 2.73-13.937 2.73h-17.25zm17.25-12.165c3.249 0 6.237-.573 8.967-1.724 2.729-1.148 5.082-2.73 7.066-4.74 1.98-2.013 3.524-4.422 4.627-7.232 1.107-2.81 1.659-5.844 1.659-9.1s-.552-6.275-1.659-9.053c-1.103-2.776-2.647-5.155-4.627-7.134-1.984-1.98-4.337-3.529-7.066-4.646-2.73-1.116-5.718-1.677-8.967-1.677h-17.25c-3.184 0-6.124.561-8.82 1.677-2.695 1.117-5.018 2.666-6.968 4.646-1.949 1.979-3.475 4.343-4.581 7.088-1.104 2.745-1.657 5.779-1.657 9.099 0 3.256.553 6.29 1.657 9.1 1.106 2.811 2.632 5.22 4.581 7.232 1.95 2.01 4.273 3.592 6.968 4.74 2.696 1.15 5.636 1.724 8.82 1.724h17.25zM267.169 125.107v-11.784h28.458c4.35 0 7.746-1.196 10.182-3.59 2.435-2.397 3.655-5.605 3.655-9.626 0-4.023-1.217-7.216-3.649-9.58-2.433-2.361-5.82-3.544-10.164-3.544h-37.449v57.471h-12.378v-69.637h49.803c4.091 0 7.746.592 10.962 1.773 3.217 1.183 5.929 2.844 8.138 4.982 2.208 2.139 3.898 4.741 5.067 7.805 1.171 3.066 1.754 6.515 1.754 10.345 0 3.769-.583 7.2-1.754 10.297-1.169 3.1-2.859 5.764-5.067 7.998-2.209 2.235-4.921 3.975-8.138 5.221-3.216 1.244-6.871 1.869-10.962 1.869h-28.458zM353.028 144.454v-57.472h-26.898v-12.165h66.169v12.165h-26.897v57.472zM401.168 74.817h12.379v69.636h-12.379zM514.706 144.454l-13.548-48.946-20.072 45.305c-.716 1.472-1.58 2.604-2.583 3.401-1.01.799-2.259 1.198-3.756 1.198-2.859 0-4.97-1.532-6.332-4.6l-19.98-45.305-13.546 48.946h-12.183l18.227-65.515c.843-3.32 2.891-4.983 6.137-4.983 1.302 0 2.521.353 3.657 1.054 1.132.703 1.997 1.724 2.584 3.067l21.828 49.23 21.834-49.23c1.167-2.746 3.146-4.121 5.94-4.121 2.988 0 4.97 1.663 5.947 4.983l18.123 65.515h-12.277zM609.042 144.454l-10.621-17.529h-33.527l5.85-9.864h21.73l-15.788-26.055-32.159 53.448h-14.132l40.74-66.666c.715-1.213 1.559-2.169 2.53-2.874.979-.7 2.146-1.052 3.509-1.052s2.516.352 3.462 1.052c.941.705 1.769 1.661 2.484 2.874l40.832 66.666h-14.91z"/><path clip-path="url(#d)" fill="#808081" d="M156.293 194.459v-33.876h29.3v5.918h-23.278v27.958h-6.022zm10.386-19.198h17.447v5.173h-17.447v-5.173zM229.971 160.583h6.021v33.876h-6.021zM293.265 194.459v-27.958h-13.088v-5.918h32.196v5.918h-13.088v27.958zM361.869 169.669v24.79h-5.738v-30.754c0-1.087.278-1.949.832-2.586.553-.639 1.302-.956 2.25-.956.442 0 .87.094 1.282.281.41.185.839.495 1.278.93l24.324 23.719v-24.791h5.736v31.035c0 1.117-.277 1.989-.83 2.609-.555.622-1.274.933-2.159.933-.979 0-1.896-.42-2.747-1.259l-24.228-23.951zM437.583 194.459v-33.876h30.82v5.918h-24.796v22.04h24.843v5.918h-30.867zm10.386-19.71h19.106v4.984h-19.106v-4.984zM513.489 194.459v-5.918h25.84c1.611 0 2.852-.402 3.722-1.211.869-.807 1.305-1.878 1.305-3.216 0-1.491-.436-2.593-1.305-3.31-.87-.713-2.11-1.071-3.722-1.071h-15.835c-1.613 0-3.074-.24-4.387-.72-1.311-.483-2.418-1.151-3.316-2.006-.901-.854-1.6-1.87-2.089-3.052-.488-1.181-.733-2.47-.733-3.868 0-1.367.228-2.632.687-3.796.457-1.166 1.138-2.168 2.04-3.007.899-.839 2.015-1.499 3.341-1.979 1.326-.482 2.845-.723 4.554-.723h24.748v5.918h-24.748c-1.422 0-2.506.364-3.25 1.096-.742.729-1.113 1.746-1.113 3.051s.386 2.315 1.158 3.028c.777.715 1.823 1.072 3.147 1.072h15.765c3.534 0 6.203.809 8.001 2.424 1.797 1.616 2.698 4.07 2.698 7.362 0 1.429-.221 2.748-.658 3.961-.438 1.211-1.097 2.261-1.974 3.146-.878.885-1.988 1.578-3.325 2.073-1.339.498-2.907.745-4.71.745h-25.841zM595.133 194.459v-5.918h25.837c1.613 0 2.853-.402 3.723-1.211.87-.807 1.304-1.878 1.304-3.216 0-1.491-.434-2.593-1.304-3.31-.87-.713-2.109-1.071-3.723-1.071h-15.834c-1.613 0-3.074-.24-4.386-.72-1.312-.483-2.418-1.151-3.317-2.006-.902-.854-1.598-1.87-2.088-3.052-.489-1.181-.735-2.47-.735-3.868 0-1.367.229-2.632.687-3.796.459-1.166 1.139-2.168 2.04-3.007.9-.839 2.016-1.499 3.342-1.979 1.327-.482 2.845-.723 4.554-.723h24.748v5.918h-24.748c-1.422 0-2.505.364-3.249 1.096-.744.729-1.114 1.746-1.114 3.051s.386 2.315 1.158 3.028c.776.715 1.823 1.072 3.146 1.072h15.766c3.536 0 6.203.809 8 2.424 1.798 1.616 2.699 4.07 2.699 7.362 0 1.429-.219 2.748-.657 3.961-.438 1.211-1.098 2.261-1.975 3.146-.878.885-1.987 1.578-3.325 2.073-1.339.498-2.907.745-4.711.745h-25.838z"/><path clip-path="url(#d)" fill="#828181" d="M46.677 84.578c-6.056 13.04-11.779 25.352-13.164 37.438-2.785 24.355 13.44 41.291 14.134 42l8.006 8.203c-16.798-3.752-45.472-14.975-55.312-48.184 7.329 65.941 75.796 68.924 75.796 68.924s-1.925-17.369 15.971-34.086c10.785-10.074 35.831-28.084 38.802-57.771 2.908-29.052-22.074-48.251-31.638-54.48 9.429 8.886 19.59 22.799 17.809 40.556-2.377 23.765-20.296 39.515-32.15 49.938-1.837 1.615-3.509 3.085-4.939 4.419-12.9 12.056-16.523 24.55-17.462 31.946-.765-.109-1.61-.244-2.498-.402l.008.768s-.312-.322-.821-.916c-.476-.086-.926-.164-1.43-.264l-.063-1.572c-4.162-5.412-12.302-18.381-10.393-35.088 3.09-26.989 31.029-58.58 27.353-90.664-3.237-28.284-28.956-45.343-28.956-45.343s.125.604.275 1.618c6.423 7.225 13.362 17.808 14.863 30.903 1.975 17.275-6.242 34.956-14.191 52.057"/></g></svg>