<!DOCTYPE svg PUBLIC "-//W3C//DTD SVG 1.1//EN" "http://www.w3.org/Graphics/SVG/1.1/DTD/svg11.dtd" [
	<!ENTITY ns_flows "http://ns.adobe.com/Flows/1.0/">
]><svg xmlns="http://www.w3.org/2000/svg" width="183" height="41" viewBox="0 0 183 41"><path fill="#DCDCDC" d="M72.374 17.873c-.12-2.256-.264-4.969-.24-6.985h-.072c-.552 1.896-1.224 3.913-2.041 6.145l-2.856 7.849h-1.584l-2.616-7.705c-.768-2.28-1.416-4.368-1.872-6.289h-.048c-.048 2.016-.168 4.729-.312 7.153l-.432 6.937h-1.992l1.128-16.178h2.665l2.76 7.825c.672 1.992 1.224 3.768 1.632 5.448h.072c.408-1.632.984-3.408 1.704-5.448l2.88-7.825h2.664l1.008 16.177h-2.041l-.407-7.104zM78.084 13.36l2.544 6.865c.264.768.552 1.68.744 2.376h.048c.216-.696.456-1.584.744-2.424l2.304-6.817h2.232l-3.168 8.281c-1.512 3.984-2.544 6.024-3.984 7.272-1.032.912-2.064 1.271-2.592 1.368l-.528-1.776c.528-.168 1.224-.504 1.848-1.032.576-.456 1.296-1.272 1.776-2.353.096-.216.168-.384.168-.504s-.048-.288-.144-.552l-4.296-10.704h2.304zM101.629 17.873c-.12-2.256-.265-4.969-.24-6.985h-.072c-.552 1.896-1.224 3.913-2.04 6.145l-2.856 7.849h-1.584l-2.616-7.705c-.768-2.28-1.416-4.368-1.872-6.289h-.049c-.048 2.016-.168 4.729-.312 7.153l-.432 6.937h-1.992l1.128-16.178h2.665l2.76 7.825c.672 1.992 1.224 3.768 1.632 5.448h.072c.408-1.632.984-3.408 1.704-5.448l2.88-7.825h2.665l1.008 16.177h-2.04l-.409-7.104zM107.484 19.553c.048 2.856 1.872 4.032 3.984 4.032 1.512 0 2.424-.264 3.216-.6l.36 1.512c-.744.337-2.017.721-3.864.721-3.577 0-5.713-2.353-5.713-5.857s2.064-6.264 5.448-6.264c3.793 0 4.801 3.336 4.801 5.472 0 .432-.048.768-.072.984h-8.16zm6.192-1.512c.023-1.344-.553-3.433-2.929-3.433-2.136 0-3.072 1.968-3.24 3.433h6.169zM127.836 7.936v14.042c0 1.032.023 2.208.096 3h-1.896l-.097-2.017h-.048c-.648 1.297-2.064 2.28-3.96 2.28-2.809 0-4.969-2.376-4.969-5.904-.024-3.864 2.376-6.24 5.208-6.24 1.776 0 2.977.84 3.505 1.776h.048v-6.937h2.113zm-2.112 10.153c0-.264-.024-.624-.096-.888-.313-1.344-1.465-2.448-3.049-2.448-2.184 0-3.48 1.92-3.48 4.489 0 2.352 1.152 4.296 3.433 4.296 1.416 0 2.712-.936 3.097-2.52.071-.288.096-.576.096-.912v-2.017zM133.043 10.096c.023.72-.504 1.296-1.345 1.296-.743 0-1.271-.576-1.271-1.296 0-.744.552-1.32 1.32-1.32.793 0 1.296.576 1.296 1.32zm-2.352 14.882v-11.618h2.112v11.617h-2.112zM141.923 24.978l-.168-1.464h-.072c-.647.912-1.896 1.728-3.552 1.728-2.353 0-3.553-1.656-3.553-3.336 0-2.808 2.496-4.344 6.984-4.32v-.24c0-.96-.264-2.688-2.64-2.688-1.08 0-2.208.336-3.024.864l-.48-1.392c.961-.624 2.353-1.032 3.816-1.032 3.553 0 4.417 2.424 4.417 4.752v4.344c0 1.008.048 1.992.191 2.784h-1.919zm-.311-5.929c-2.305-.048-4.921.36-4.921 2.616 0 1.368.912 2.017 1.992 2.017 1.513 0 2.473-.96 2.809-1.944.071-.216.12-.456.12-.672v-2.017zM152.581 8.992c1.008-.168 2.328-.312 4.008-.312 2.064 0 3.577.48 4.537 1.344.888.768 1.416 1.944 1.416 3.384 0 1.464-.433 2.616-1.248 3.456-1.104 1.176-2.904 1.776-4.944 1.776-.624 0-1.2-.024-1.681-.144v6.48h-2.088v-15.984zm2.087 7.801c.456.12 1.032.168 1.729.168 2.521 0 4.057-1.224 4.057-3.457 0-2.136-1.513-3.168-3.816-3.168-.912 0-1.608.072-1.969.168v6.289zM164.701 16.985c0-1.368-.023-2.544-.096-3.625h1.848l.072 2.28h.096c.528-1.56 1.801-2.544 3.217-2.544.24 0 .408.024.6.072v1.992c-.216-.048-.432-.072-.72-.072-1.488 0-2.544 1.128-2.832 2.712-.048.288-.097.624-.097.984v6.192h-2.088v-7.991zM182.749 19.073c0 4.296-2.976 6.168-5.784 6.168-3.145 0-5.568-2.304-5.568-5.976 0-3.888 2.544-6.168 5.761-6.168 3.335 0 5.591 2.424 5.591 5.976zm-9.217.12c0 2.544 1.465 4.464 3.528 4.464 2.017 0 3.528-1.896 3.528-4.512 0-1.968-.983-4.464-3.479-4.464-2.497 0-3.577 2.304-3.577 4.512zM60.148 31.24l1.634 3.438c.207.479.402.946.597 1.426h.024c.146-.419.305-.887.512-1.462l1.28-3.401h1.122l-1.719 4.145c-.451 1.078-.963 2.312-1.536 3.066-.537.658-1.134.994-1.865.994-.269 0-.463-.024-.598-.072l.11-.851c.085.024.207.036.39.036.854-.012 1.354-.814 1.609-1.39.085-.18.061-.299-.037-.49l-2.731-5.438h1.208zM75.927 35.768c-.061-1.126-.134-2.479-.122-3.485h-.037c-.28.946-.622 1.952-1.036 3.066l-1.451 3.917h-.805l-1.329-3.845c-.39-1.139-.719-2.181-.951-3.139h-.024c-.024 1.006-.085 2.359-.159 3.569l-.219 3.462h-1.012l.573-8.073h1.353l1.402 3.905c.341.994.622 1.88.829 2.719h.036c.208-.814.5-1.701.866-2.719l1.463-3.905h1.354l.512 8.073h-1.037l-.206-3.545zM82.66 31.24v3.378h3.975v-3.378h1.073v8.073h-1.073v-3.785h-3.975v3.785h-1.061v-8.073h1.061zM93.416 31.24v3.019c.244-.036.707-.06.975-.06 1.695 0 3.17.73 3.17 2.527 0 .742-.244 1.293-.634 1.713-.671.694-1.816.946-2.926.946-.731 0-1.292-.048-1.646-.097v-8.048h1.061zm0 7.271c.219.048.488.061.854.061 1.17 0 2.182-.587 2.182-1.81 0-1.257-1.098-1.736-2.194-1.736-.39 0-.707.036-.841.06v3.425zm6.132-7.271v8.073h-1.073v-8.073h1.073zM105.257 31.24v3.401c0 1.282-.024 2.336-.098 3.414l.024.012c.414-.838.926-1.713 1.523-2.671l2.658-4.156h1.061v8.073h-1v-3.438c0-1.306.013-2.264.098-3.282l-.036-.012c-.402.886-.964 1.82-1.524 2.719l-2.572 4.013h-1.134v-8.073h1zm1.341-1.688c.049.371.171.742.743.742.562 0 .695-.348.744-.742h.816c-.061.79-.548 1.281-1.585 1.281-.999 0-1.475-.491-1.536-1.281h.818zM131.561 31.24v7.223l.72.024-.073 2.767h-.829l-.073-1.94h-5.182l-.073 1.94h-.829l-.073-2.767.622-.024c.305-.551.609-1.138.805-1.772.28-.935.39-2.013.39-3.402v-2.049h4.595zm-3.608 2.384c0 1.294-.122 2.384-.415 3.294-.171.563-.427 1.102-.67 1.533h3.633v-6.349h-2.548v1.522zM137.428 31.24v3.401c0 1.282-.024 2.336-.098 3.414l.024.012c.414-.838.926-1.713 1.523-2.671l2.658-4.156h1.061v8.073h-1v-3.438c0-1.306.013-2.264.098-3.282l-.036-.012c-.402.886-.964 1.82-1.524 2.719l-2.572 4.013h-1.134v-8.073h1zM146.941 31.72c.561-.359 1.28-.611 2.17-.611 1.427 0 2.414.73 2.414 1.977 0 .994-.731 1.749-1.694 1.964v.024c1.158.12 1.999.862 1.999 2.024 0 1.677-1.475 2.348-2.975 2.348-.743 0-1.523-.156-2.146-.527l.28-.814c.439.252 1.171.491 1.841.491 1.22 0 1.89-.646 1.89-1.533 0-1.21-1.183-1.557-2.23-1.557h-.488v-.791h.488c1.085 0 1.926-.659 1.926-1.485 0-.814-.585-1.27-1.475-1.27-.622 0-1.269.251-1.707.527l-.293-.767zM157.379 36.774l-.854 2.539h-1.098l2.792-8.073h1.28l2.804 8.073h-1.134l-.878-2.539h-2.912zm2.695-.814l-.805-2.324c-.184-.527-.305-1.006-.427-1.474h-.024c-.122.479-.256.971-.415 1.462l-.805 2.336h2.476zM167.319 31.24v3.401c0 1.282-.024 2.336-.098 3.414l.024.012c.414-.838.926-1.713 1.523-2.671l2.658-4.156h1.061v8.073h-1v-3.438c0-1.306.013-2.264.098-3.282l-.036-.012c-.402.886-.964 1.82-1.524 2.719l-2.572 4.013h-1.134v-8.073h1zm1.341-1.688c.049.371.171.742.743.742.562 0 .695-.348.744-.742h.816c-.061.79-.548 1.281-1.585 1.281-.999 0-1.475-.491-1.536-1.281h.818zM178.208 31.24v3.378h3.975v-3.378h1.072v8.073h-1.072v-3.785h-3.975v3.785h-1.061v-8.073h1.061zM37 0l-13 6.831v16.88l13-6.831zM14 0l-14 8.304v31.052l14-8.607zM37 0v31.087l12 8.269v-31.22zM14 0v16.88l10 6.831v-16.88z"/></svg>