<!DOCTYPE svg PUBLIC "-//W3C//DTD SVG 1.1//EN" "http://www.w3.org/Graphics/SVG/1.1/DTD/svg11.dtd" [
	<!ENTITY ns_flows "http://ns.adobe.com/Flows/1.0/">
]><svg xmlns="http://www.w3.org/2000/svg" width="1000" height="1000" viewBox="-28 -2.5 1000 1000" enable-background="new -28 -2.5 1000 1000"><path fill="#fff" d="M29.008 30.766v-9.856c0-3.711 2.452-4.571 4.175-4.571h10.567v-16.281l-14.562-.058c-16.162 0-19.838 12.14-19.838 19.911v10.854h-9.35v16.767h9.35v47.468h19.658v-47.468h13.27l1.722-16.766h-14.992zM243.924 80.817c-.398-.67-2.817-6.054-14.502-17.113-12.224-11.583-10.582-9.711 4.146-29.736 8.966-12.198 12.548-19.649 11.43-22.844-1.068-3.032-7.667-2.231-7.667-2.231l-21.949.14s-1.625-.227-2.836.504c-1.176.727-1.934 2.411-1.934 2.411s-3.477 9.433-8.11 17.465c-9.77 16.941-13.68 17.841-15.28 16.782-3.715-2.448-2.785-9.841-2.785-15.099 0-16.416 2.432-23.261-4.761-25.03-2.377-.593-4.148-.982-10.251-1.046-7.826-.08-14.455.032-18.208 1.9-2.499 1.253-4.426 4.033-3.244 4.196 1.447.197 4.732.905 6.472 3.325 2.247 3.119 2.167 10.135 2.167 10.135s1.291 19.32-3.014 21.728c-2.967 1.642-7.021-1.722-15.732-17.089-4.461-7.868-7.839-16.575-7.839-16.575s-.653-1.623-1.807-2.494c-1.409-1.055-3.378-1.387-3.378-1.387l-20.856.134s-3.132.096-4.279 1.485c-1.026 1.234-.08 3.794-.08 3.794s16.325 38.992 34.814 58.637c16.965 18.021 36.226 16.834 36.226 16.834h8.718s2.635-.293 3.983-1.772c1.246-1.361 1.205-3.912 1.205-3.912s-.172-11.953 5.261-13.709c5.357-1.74 12.24 11.554 19.528 16.655 5.514 3.858 9.707 3.02 9.707 3.02l19.499-.281c-.004-.002 10.193-.642 5.356-8.827zM351.111 19.474v-10.879h-5.442v10.879h-10.876v5.436h10.876v10.874h5.442v-10.874h10.889v-5.436zM332.896 7.5h-23.598c-11.974 0-21.953 8.828-21.953 18.537 0 9.909 6.562 17.82 17.817 17.82.784 0 1.542-.049 2.286-.097-.729 1.396-1.252 2.96-1.252 4.599 0 2.755 1.515 4.326 3.394 6.145l-4.279.041c-13.712 0-23.31 9.43-23.31 18.472 0 8.92 11.573 14.483 25.281 14.483 15.627 0 25.246-8.856 25.246-17.772 0-7.138-1.548-10.731-9.168-16.446-2.189-1.639-6.947-4.999-6.947-7.255 0-2.646.75-3.945 4.738-7.062 4.083-3.181 6.97-7.382 6.97-12.596 0-5.686-2.319-10.834-6.696-13.334h6.195l5.276-5.535zm-8.003 60.695c.199.819.302 1.67.302 2.537 0 7.21-4.639 12.835-17.958 12.835-9.483 0-16.324-6-16.324-13.195 0-7.06 8.025-13.146 17.505-13.038 2.209.02 4.27.371 6.136.978 5.151 3.576 9.292 5.809 10.339 9.883zm-15.165-27.941c-6.363-.195-12.415-6.022-13.509-14.374-1.102-8.342 3.168-14.726 9.53-14.54 6.35.195 11.795 7.039 12.89 15.382 1.094 8.348-2.561 13.717-8.911 13.532zM447.222 50.723c-1.236-2.502-4.657-4.575-9.209-.97-6.145 4.873-16.013 4.873-16.013 4.873s-9.87 0-16.017-4.874c-4.552-3.604-7.969-1.532-9.205.97-2.151 4.356.279 6.459 5.771 10 4.691 3.034 11.137 4.162 15.3 4.594l-3.479 3.494c-4.891 4.921-9.614 9.673-12.889 12.974-1.956 1.971-1.956 5.166 0 7.137l.588.6c1.96 1.972 5.137 1.972 7.102 0l12.885-12.979c4.896 4.932 9.616 9.683 12.895 12.979 1.961 1.972 5.136 1.972 7.098 0l.588-.6c1.96-1.971 1.96-5.166 0-7.137l-12.897-12.973-3.479-3.512c4.159-.43 10.534-1.567 15.19-4.575 5.491-3.542 7.922-5.645 5.771-10.001zM422 48.035c12.078 0 21.883-9.853 21.883-22.017s-9.805-22.018-21.883-22.018c-12.082 0-21.883 9.853-21.883 22.018s9.801 22.017 21.883 22.017zm0-32.846c5.945 0 10.765 4.848 10.765 10.829 0 5.984-4.819 10.829-10.765 10.829s-10.765-4.844-10.765-10.829c0-5.981 4.82-10.829 10.765-10.829z"/><path fill="#EF5A2C" d="M568.295 14.644c-.945-1.082-2.298-1.705-3.731-1.705h-68.192l-.968-5.747c-.392-2.379-2.45-4.127-4.862-4.127h-11.106c-2.729 0-4.935 2.206-4.935 4.937 0 2.732 2.206 4.938 4.935 4.938h6.926l9.181 55.12c.036.222.15.404.223.612.077.259.141.505.263.747.159.323.371.599.592.883.156.187.294.38.471.554.284.267.616.453.952.637.188.106.35.246.553.324.571.234 1.176.371 1.811.371h54.289c2.73 0 4.936-2.208 4.936-4.938 0-2.729-2.205-4.938-4.936-4.938h-50.103l-.819-4.936h55.857c2.46 0 4.539-1.809 4.887-4.233l4.935-34.563c.2-1.425-.225-2.862-1.159-3.936zm-53.08 32.855h-13.093l-1.644-9.873h14.736v9.873zm0-14.811h-14.805c-.263 0-.5.075-.729.148l-1.667-10.022h17.201v9.874zm19.739 14.811h-14.804v-9.873h14.804v9.873zm0-14.811h-14.804v-9.874h14.804v9.874zm20.395 14.811h-15.46v-9.873h16.867l-1.407 9.873zm2.122-14.811h-17.582v-9.874h18.989l-1.407 9.874zm-49.66 44.435c-4.088 0-7.4 3.317-7.4 7.405s3.313 7.407 7.4 7.407c4.091 0 7.404-3.319 7.404-7.407s-3.314-7.405-7.404-7.405zm44.418 0c-4.089 0-7.404 3.317-7.404 7.405s3.315 7.407 7.404 7.407c4.084 0 7.4-3.319 7.4-7.407s-3.316-7.405-7.4-7.405z"/><path fill="#898989" d="M667.438 83.009l-12.94-12.944c5.271-7.28 8.39-16.212 8.39-25.869 0-24.369-19.824-44.196-44.192-44.196s-44.196 19.827-44.196 44.196 19.828 44.196 44.196 44.196c9.654 0 18.588-3.119 25.864-8.393l12.946 12.947c1.369 1.371 3.172 2.053 4.97 2.053 1.797 0 3.594-.682 4.962-2.053 2.749-2.744 2.749-7.192 0-9.937zm-48.742-8.665c-16.622 0-30.148-13.524-30.148-30.147 0-16.621 13.526-30.147 30.148-30.147s30.143 13.527 30.143 30.147c0 16.623-13.521 30.147-30.143 30.147z"/></svg>