<!DOCTYPE svg PUBLIC "-//W3C//DTD SVG 1.1//EN" "http://www.w3.org/Graphics/SVG/1.1/DTD/svg11.dtd" [
	<!ENTITY ns_flows "http://ns.adobe.com/Flows/1.0/">
]><svg xmlns="http://www.w3.org/2000/svg" width="1000" height="1000" viewBox="-16 -2.5 1000 1000" enable-background="new -16 -2.5 1000 1000"><path fill="#fff" d="M40.825 30.766v-9.856c0-3.711 2.452-4.571 4.175-4.571h10.567v-16.281l-14.564-.058c-16.162 0-19.836 12.14-19.836 19.911v10.854h-9.35v16.767h9.35v47.468h19.658v-47.468h13.27l1.722-16.767-14.992.001zM255.739 80.817c-.398-.67-2.817-6.054-14.502-17.113-12.224-11.583-10.582-9.711 4.146-29.736 8.966-12.198 12.548-19.649 11.43-22.844-1.068-3.032-7.667-2.231-7.667-2.231l-21.949.14s-1.625-.227-2.836.504c-1.176.727-1.934 2.411-1.934 2.411s-3.477 9.433-8.11 17.465c-9.77 16.941-13.68 17.841-15.28 16.782-3.715-2.448-2.785-9.841-2.785-15.099 0-16.416 2.432-23.261-4.761-25.03-2.377-.593-4.148-.982-10.251-1.046-7.826-.08-14.455.032-18.208 1.9-2.499 1.253-4.426 4.033-3.244 4.196 1.447.197 4.732.905 6.472 3.325 2.247 3.119 2.167 10.135 2.167 10.135s1.291 19.32-3.014 21.728c-2.967 1.642-7.021-1.722-15.732-17.089-4.461-7.868-7.839-16.575-7.839-16.575s-.653-1.623-1.807-2.494c-1.409-1.055-3.378-1.387-3.378-1.387l-20.856.134s-3.132.096-4.279 1.485c-1.026 1.234-.08 3.794-.08 3.794s16.325 38.992 34.814 58.637c16.965 18.021 36.226 16.834 36.226 16.834h8.718s2.635-.293 3.983-1.772c1.246-1.361 1.205-3.912 1.205-3.912s-.172-11.953 5.261-13.709c5.357-1.74 12.24 11.554 19.528 16.655 5.514 3.858 9.707 3.02 9.707 3.02l19.499-.281c-.004-.002 10.195-.642 5.356-8.827zM362.927 19.474v-10.879h-5.441v10.879h-10.876v5.436h10.876v10.874h5.441v-10.874h10.889v-5.436zM344.711 7.5h-23.598c-11.975 0-21.953 8.828-21.953 18.537 0 9.909 6.562 17.82 17.816 17.82.784 0 1.542-.049 2.286-.097-.729 1.396-1.252 2.96-1.252 4.599 0 2.755 1.516 4.326 3.395 6.145l-4.279.041c-13.712 0-23.31 9.43-23.31 18.472 0 8.92 11.573 14.483 25.281 14.483 15.627 0 25.246-8.856 25.246-17.772 0-7.138-1.548-10.731-9.168-16.446-2.188-1.639-6.946-4.999-6.946-7.255 0-2.646.75-3.945 4.737-7.062 4.083-3.181 6.97-7.382 6.97-12.596 0-5.686-2.318-10.834-6.695-13.334h6.194l5.276-5.535zm-8.003 60.695c.199.819.302 1.67.302 2.537 0 7.21-4.639 12.835-17.958 12.835-9.482 0-16.324-6-16.324-13.195 0-7.06 8.025-13.146 17.506-13.038 2.209.02 4.27.371 6.136.978 5.152 3.576 9.293 5.809 10.338 9.883zm-15.165-27.941c-6.363-.195-12.415-6.022-13.509-14.374-1.103-8.342 3.168-14.726 9.53-14.54 6.35.195 11.795 7.039 12.89 15.382 1.095 8.348-2.56 13.717-8.911 13.532zM459.038 50.723c-1.236-2.502-4.657-4.575-9.209-.97-6.146 4.874-16.013 4.874-16.013 4.874s-9.87 0-16.018-4.874c-4.552-3.604-7.969-1.532-9.205.97-2.15 4.356.279 6.459 5.771 10 4.69 3.034 11.137 4.162 15.3 4.594l-3.479 3.494c-4.891 4.921-9.613 9.673-12.889 12.974-1.956 1.971-1.956 5.166 0 7.137l.588.6c1.96 1.972 5.138 1.972 7.103 0l12.885-12.979c4.896 4.932 9.616 9.683 12.895 12.979 1.961 1.972 5.137 1.972 7.099 0l.588-.6c1.96-1.971 1.96-5.166 0-7.137l-12.896-12.974-3.479-3.512c4.159-.43 10.534-1.567 15.189-4.575 5.49-3.542 7.92-5.645 5.77-10.001zM433.816 48.035c12.077 0 21.883-9.853 21.883-22.017s-9.805-22.018-21.883-22.018c-12.082 0-21.884 9.853-21.884 22.018s9.802 22.017 21.884 22.017zm0-32.846c5.944 0 10.765 4.848 10.765 10.829 0 5.984-4.819 10.829-10.765 10.829-5.946 0-10.766-4.844-10.766-10.829.001-5.981 4.821-10.829 10.766-10.829z"/><path fill="#F05B2C" d="M580.11 14.644c-.945-1.082-2.298-1.705-3.731-1.705h-68.192l-.968-5.747c-.392-2.379-2.45-4.127-4.861-4.127h-11.108c-2.729 0-4.934 2.206-4.934 4.937 0 2.732 2.205 4.938 4.934 4.938h6.926l9.182 55.12c.035.222.149.404.223.612.077.259.141.505.263.747.159.323.371.599.592.883.156.188.294.38.472.554.284.267.616.453.952.637.188.106.35.246.553.324.571.234 1.176.371 1.811.371h54.289c2.73 0 4.937-2.208 4.937-4.938 0-2.729-2.205-4.938-4.937-4.938h-50.103l-.819-4.936h55.857c2.46 0 4.539-1.809 4.887-4.233l4.935-34.563c.2-1.425-.226-2.862-1.16-3.936zm-53.08 32.855h-13.093l-1.645-9.873h14.736l.002 9.873zm0-14.811h-14.806c-.263 0-.5.075-.729.148l-1.667-10.022h17.201v9.874zm19.74 14.811h-14.804v-9.873h14.804v9.873zm0-14.811h-14.804v-9.874h14.804v9.874zm20.394 14.811h-15.46v-9.873h16.867l-1.407 9.873zm2.122-14.811h-17.582v-9.874h18.989l-1.407 9.874zm-49.66 44.435c-4.088 0-7.4 3.317-7.4 7.405s3.313 7.407 7.4 7.407c4.091 0 7.404-3.319 7.404-7.407s-3.313-7.405-7.404-7.405zm44.418 0c-4.089 0-7.404 3.317-7.404 7.405s3.315 7.407 7.404 7.407c4.084 0 7.4-3.319 7.4-7.407s-3.316-7.405-7.4-7.405z"/><path fill="#898989" d="M679.254 83.009l-12.939-12.944c5.271-7.28 8.39-16.212 8.39-25.869-.002-24.369-19.825-44.196-44.193-44.196-24.367 0-44.195 19.827-44.195 44.196 0 24.369 19.828 44.196 44.195 44.196 9.654 0 18.588-3.119 25.864-8.393l12.946 12.947c1.369 1.371 3.172 2.053 4.97 2.053 1.797 0 3.594-.682 4.962-2.053 2.748-2.744 2.748-7.192 0-9.937zm-48.742-8.665c-16.622 0-30.147-13.524-30.147-30.147 0-16.621 13.525-30.147 30.147-30.147s30.144 13.527 30.144 30.147c-.002 16.623-13.522 30.147-30.144 30.147z"/><path fill="#F1572A" d="M733.815 0c-18.503 0-33.5 15.124-33.5 33.777 0 18.656 33.5 61.223 33.5 61.223s33.5-42.567 33.5-61.223c0-18.653-15.002-33.777-33.5-33.777zm0 54.888c-10.986 0-19.891-8.978-19.891-20.055 0-11.078 8.903-20.057 19.891-20.057 10.982 0 19.89 8.979 19.89 20.057s-8.906 20.055-19.89 20.055z"/><path fill="#2B6497" d="M934.487 3.653c-25.642 0-46.5 20.86-46.5 46.5 0 25.641 20.858 46.5 46.5 46.5 10.979 0 21.646-3.923 30.037-11.042 1.68-1.422 1.883-3.935.461-5.612-1.427-1.677-3.938-1.884-5.613-.461-6.955 5.9-15.793 9.15-24.885 9.15-21.248 0-38.535-17.286-38.535-38.535s17.287-38.536 38.535-38.536 38.537 17.287 38.537 38.536c0 6.885-1.855 13.654-5.363 19.573-1.123 1.893-.5 4.335 1.395 5.456 1.896 1.122 4.336.496 5.457-1.396 4.236-7.149 6.476-15.321 6.476-23.634-.002-25.638-20.859-46.499-46.502-46.499zm-.142 35.466c-1.647 0-2.944.567-3.895 1.705-.95 1.138-1.424 2.557-1.424 4.257v26.254c0 1.688.481 3.117 1.438 4.284.965 1.167 2.254 1.75 3.879 1.75 1.687 0 3.004-.573 3.957-1.724.955-1.148 1.433-2.586 1.433-4.311v-26.253c0-1.7-.482-3.119-1.451-4.257-.963-1.137-2.277-1.705-3.937-1.705zm5.496-12.999c-.555-.971-1.309-1.744-2.26-2.319-.947-.575-1.98-.864-3.094-.864-1.693 0-3.152.628-4.365 1.881-1.217 1.252-1.822 2.735-1.822 4.45 0 1.703.605 3.184 1.822 4.441 1.213 1.26 2.672 1.89 4.365 1.89 1.694 0 3.151-.63 4.364-1.89 1.218-1.258 1.824-2.738 1.824-4.441.002-1.126-.276-2.176-.834-3.148z"/><path fill="#fff" d="M933.142 2.347c-25.641 0-46.497 20.859-46.497 46.5 0 25.64 20.856 46.5 46.497 46.5 10.98 0 21.646-3.923 30.037-11.042 1.681-1.422 1.884-3.935.463-5.612-1.426-1.678-3.938-1.884-5.612-.462-6.955 5.901-15.793 9.15-24.888 9.15-21.247 0-38.534-17.285-38.534-38.534s17.287-38.536 38.534-38.536c21.248 0 38.537 17.287 38.537 38.536 0 6.885-1.854 13.653-5.362 19.572-1.121 1.894-.498 4.335 1.395 5.457 1.896 1.121 4.336.495 5.457-1.396 4.238-7.149 6.477-15.32 6.477-23.633-.002-25.641-20.862-46.5-46.504-46.5zm-.141 35.465c-1.65 0-2.947.568-3.896 1.705-.949 1.139-1.423 2.557-1.423 4.257v26.255c0 1.688.48 3.116 1.439 4.283.963 1.167 2.254 1.751 3.879 1.751 1.685 0 3.004-.574 3.957-1.725.953-1.147 1.43-2.586 1.43-4.31v-26.255c0-1.7-.481-3.118-1.448-4.257-.963-1.136-2.28-1.704-3.938-1.704zm5.494-12.999c-.555-.97-1.31-1.744-2.258-2.319-.949-.575-1.98-.863-3.097-.863-1.692 0-3.149.627-4.364 1.881-1.218 1.252-1.822 2.735-1.822 4.449 0 1.703.604 3.185 1.822 4.442 1.215 1.259 2.672 1.889 4.364 1.889 1.695 0 3.154-.63 4.365-1.889 1.217-1.258 1.824-2.739 1.824-4.442.002-1.127-.275-2.177-.834-3.148z"/><path fill="#2C689B" d="M64.873 171.486c-3.336-5.67-14.416-10.766-18.229-10.766-.792 0-1.498.178-2.102.528-1.571.912-2.967 2.06-4.154 3.399-3.5-3.822-6.685-8.158-9.496-12.937-2.86-4.86-5.196-9.997-6.847-15.046 1.722-.372 3.379-1.014 4.912-1.902 1.649-.959 3.123-2.199 4.38-3.686.409-.48.666-1.068.737-1.692.636-5.52-.83-11.646-4.127-17.249-1.764-2.992-3.931-5.619-6.446-7.809-.528-.463-1.194-.74-1.894-.788-3.367-.235-6.778.553-9.693 2.247l-.316.202-.016.007-.395.213c-13.754 7.992-13.555 32.895.448 56.691 10.771 18.303 26.916 30.6 40.173 30.6h.002c3.432 0 6.573-.813 9.328-2.413 2.85-1.655 5.162-4.093 6.872-7.246.156-.288.257-.592.308-.907l.009-.021c.298-.628.379-1.334.237-2.015-.687-3.25-1.931-6.417-3.691-9.41zm-2.976 10.098c-1.075 1.729-2.419 3.066-4.007 3.986-1.756 1.021-3.802 1.541-6.082 1.541h-.002c-10.878-.002-25.116-11.284-34.62-27.436-11.78-20.015-13.039-41.973-2.774-47.939l.355-.186.149-.086.234-.156c1.507-.875 3.209-1.363 4.945-1.414 1.644 1.576 3.088 3.41 4.298 5.467 2.361 4.008 3.562 8.436 3.371 12.309-.625.618-1.313 1.146-2.055 1.577-1.722 1.001-3.713 1.481-5.713 1.403-1.01-.053-1.998.396-2.639 1.188-.641.786-.866 1.835-.608 2.814 1.804 6.839 4.694 13.664 8.589 20.285 3.805 6.459 8.255 12.192 13.231 17.043.734.718 1.771 1.041 2.788.869 1.018-.17 1.889-.814 2.345-1.733.787-1.585 1.959-2.931 3.41-3.929 2.602.58 10.21 4.129 12.208 7.521 1.222 2.074 2.126 4.239 2.701 6.451-.052.142-.091.284-.124.425z"/><path fill="#fff" d="M63.873 170.486c-3.336-5.67-14.416-10.766-18.229-10.766-.792 0-1.498.178-2.102.528-1.571.912-2.967 2.06-4.154 3.399-3.5-3.822-6.685-8.158-9.496-12.937-2.86-4.86-5.196-9.997-6.847-15.046 1.722-.372 3.379-1.014 4.912-1.902 1.649-.959 3.123-2.199 4.38-3.686.409-.48.666-1.068.737-1.692.636-5.52-.83-11.646-4.127-17.249-1.764-2.992-3.931-5.619-6.446-7.809-.528-.463-1.194-.74-1.894-.788-3.367-.235-6.778.553-9.693 2.247l-.316.202-.016.007-.395.213c-13.754 7.992-13.555 32.895.448 56.691 10.771 18.303 26.916 30.6 40.173 30.6h.002c3.432 0 6.573-.813 9.328-2.413 2.85-1.655 5.162-4.093 6.872-7.246.156-.288.257-.592.308-.907l.009-.021c.298-.628.379-1.334.237-2.015-.687-3.25-1.931-6.417-3.691-9.41zm-2.976 10.098c-1.075 1.729-2.419 3.066-4.007 3.986-1.756 1.021-3.802 1.541-6.082 1.541h-.002c-10.878-.002-25.116-11.284-34.62-27.436-11.78-20.015-13.039-41.973-2.774-47.939l.355-.186.149-.086.234-.156c1.507-.875 3.209-1.363 4.945-1.414 1.644 1.576 3.088 3.41 4.298 5.467 2.361 4.008 3.562 8.436 3.371 12.309-.625.618-1.313 1.146-2.055 1.577-1.722 1.001-3.713 1.481-5.713 1.403-1.01-.053-1.998.396-2.639 1.188-.641.786-.866 1.835-.608 2.814 1.804 6.839 4.694 13.664 8.589 20.285 3.805 6.459 8.255 12.192 13.231 17.043.734.718 1.771 1.041 2.788.869 1.018-.17 1.889-.814 2.345-1.733.787-1.585 1.959-2.931 3.41-3.929 2.602.58 10.21 4.129 12.208 7.521 1.222 2.074 2.126 4.239 2.701 6.451-.052.142-.091.284-.124.425z"/><path fill="#3B86C4" d="M58.547 545.334h-1.443v-11.553c0-.984-.444-1.443-1.444-1.443h-37.546c-1 0-1.493.524-1.493 1.507v5.64h-1.395v-10.035h-5.773v36.102h5.773v-10.035h1.395v5.781c0 .984.493 1.365 1.493 1.365h37.545c1 0 1.444-.46 1.444-1.444v-11.552h1.443v-4.333zm-4.331-11.553v8.664h-2.889v-1.443h-7.22v-4.333h-23.104v8.665h-2.889v-11.553h36.102zm-36.102 27.437v-11.552h2.889v8.664h23.104v-4.332h7.22v-1.444h2.889v8.664h-36.102zM457.211 561.86h-14.152c.045-.592.076-1.186.076-1.777 0-4.746-1.456-9.326-4.136-13.161l19.761-14.238c1.095-.79 1.35-2.326.57-3.432-.782-1.109-2.305-1.364-3.399-.577l-46.691 33.643c-.863.62-1.229 1.734-.906 2.754.324 1.02 1.262 1.711 2.321 1.711h46.555c1.345 0 2.435-1.103 2.435-2.461.001-1.36-1.089-2.462-2.434-2.462zm-22.179-12.079c2.094 3.002 3.232 6.588 3.232 10.302 0 .592-.031 1.186-.091 1.777h-19.906l16.765-12.079zM101.257 567.475h18.772v-11.191h-18.772v11.191zm23.357 0h18.771v-11.191h-18.771v11.191zm23.357 0h18.772v-11.191h-18.772v11.191zm-23.357-14.379h18.771v-11.191h-18.771v11.191zm23.357 0h18.772v-11.191h-18.772v11.191zm0-25.571v11.191h18.772v-11.191h-18.772zM546.106 536.5c-.624-5.979-5.97-10.666-12.452-10.666-6.537 0-11.915 4.772-12.46 10.826-4.765 1.188-8.136 5.262-8.136 9.998v12.154c0 5.709 4.909 10.354 10.946 10.354h19.989c6.036 0 10.947-4.645 10.947-10.354v-12.154c.001-5.023-3.729-9.225-8.834-10.158zm-12.452-8.113c5.413 0 9.815 4.164 9.815 9.283 0 3.839-2.476 7.141-5.997 8.552-.138-1.68-1.48-3.023-3.219-3.262l-4.014-9.823c-.192-.463-.744-.691-1.233-.508-.488.182-.729.703-.537 1.168l3.944 9.34c-1.376.477-2.368 1.678-2.471 3.122-3.575-1.388-6.103-4.712-6.103-8.589.002-5.119 4.404-9.283 9.815-9.283zm-17.74 30.426v-12.154c0-3.207 2.091-6.004 5.153-7.125.857 5.159 5.227 9.244 10.683 10.02l.345.178v16.734h-8.09c-4.463-.001-8.091-3.433-8.091-7.653zm36.17 0c0 4.221-3.629 7.652-8.09 7.652h-8.091v-16.964c5.367-.925 9.578-5.051 10.322-10.202 3.424.916 5.858 3.869 5.858 7.359v12.155zM258.468 519.342h-32.937c-1.664 0-3.019 1.395-3.019 3.111v50.094c0 1.715 1.355 3.111 3.019 3.111h32.937c1.664 0 3.019-1.396 3.019-3.111v-50.094c0-1.717-1.355-3.111-3.019-3.111zm.798 52.937c0 .049-1.066 1.125-1.114 1.125h-32.305c-.047 0-1.113-1.076-1.113-1.125v-49.559c0-.049 1.066-1.127 1.113-1.127h32.305c.048 0 1.114 1.078 1.114 1.127v49.559zm-26.734-46.181l-2.042.264v3.115h-2.414v2.254h2.414v38.152l2.042.143v-38.296h22.278v-2.254h-22.278v-3.378zM662.896 541.332c0-2.18-.254-3.693-.721-4.713-2.053-6.668-8.287-11.518-15.66-11.518-5.021 0-9.51 2.256-12.516 5.795-3.006-3.539-7.492-5.795-12.516-5.795-9.047 0-16.381 7.297-16.381 16.299 0 5.309 2.564 10.012 6.516 12.986 8.434 9.209 22.566 15.512 22.566 15.512s15.342-6.844 23.594-16.688c3.145-2.969 5.117-7.158 5.117-11.811l-.004-.037.005-.03zm-15.263 10.279l-2.199-5.969-4.893 16.604-6.367-20.986-5.941 20.949-5.365-16.748-2.506 6.621h-9.063l7.404-2.385 4.352-11.496 5.039 15.721 6-21.168 6.414 21.131 4.674-15.863 4.125 11.205 7.67 2.385h-9.344zM349.311 590.127h-9.121v-2.238h-40.275v2.238h-9.122v-2.607c-.693-.296-1.204-.77-1.464-1.365-.212-.483-.355-1.274.164-2.28.723-1.409.231-3.861-1.073-5.359l-.423-.485c-1.677-1.922-1.992-5.276-.7-7.477l7.523-12.84c.957-1.626 2.856-2.681 4.839-2.681.679 0 1.331.124 1.936.367l32.608 13.099c1.873.754 5.393.909 7.332.323l5.173-1.565c1.922-.581 3.84-2.744 4.188-4.724l4.813-27.459-5.806-12.787c-.277-.607-.24-1.314.101-1.893l8.555-14.527c.549-.937 1.864-1.279 2.81-.728.98.577 1.305 1.839.729 2.815l-8.012 13.605 2.88 6.342 1.282-7.317c.39-2.235 1.476-4.639 2.938-4.639.258 0 .638.078.985.452.555.597.728 1.634.766 2.509l15.96-4.427c1.083-.299 2.232.365 2.529 1.428.301 1.095-.34 2.229-1.431 2.531l-15.214 4.219-3.657 10.278-6.639 46.93h-41.392l.664-1.058c1.16-1.842 1.773-3.957 1.773-6.114 0-6.348-5.164-11.51-11.51-11.51-6.345 0-11.508 5.162-11.508 11.51 0 6.347 5.164 11.509 11.508 11.509 2.864 0 5.616-1.073 7.749-3.018l.197-.18h42.358l-.311 2.203c-.333 2.353-2.37 4.305-4.703 4.632v2.288zm-7.745-1.377h6.367v-2.238h.688c1.917 0 3.761-1.601 4.028-3.496l.089-.634h-40.244c-2.355 2.062-5.355 3.197-8.475 3.197-7.104 0-12.885-5.781-12.885-12.886 0-7.107 5.78-12.887 12.885-12.887 7.106 0 12.886 5.779 12.886 12.887 0 2.015-.476 3.995-1.386 5.795h37.769l6.514-45.948 3.92-11.018 15.903-4.412c.359-.099.571-.474.472-.834-.097-.35-.472-.568-.835-.471l-16.242 4.504c-.099.028-.196.091-.295.196l-1.328 1.388.142-1.915c.132-1.736-.258-2.574-.406-2.67-.22.068-1.134 1.229-1.533 3.512l-2.052 11.705-5.014-11.05 8.375-14.222c.188-.322.081-.738-.239-.928-.311-.182-.744-.073-.929.239l-8.554 14.528c-.112.188-.125.423-.034.622l5.981 13.177-.037.208-4.85 27.668c-.431 2.474-2.741 5.078-5.145 5.805l-5.173 1.565c-2.259.686-6.063.514-8.244-.363l-32.607-13.097c-.441-.178-.92-.269-1.422-.269-1.504 0-2.938.785-3.65 2l-7.524 12.84c-.998 1.7-.746 4.391.55 5.876l.422.485c1.695 1.941 2.248 4.971 1.259 6.892-.149.291-.292.718-.125 1.101.151.344.532.616 1.074.768l.504.141v2.238h6.369v-2.238h43.03v2.239z"/><path fill="#B41F24" d="M314.802 572.167c0 6.79-5.506 12.294-12.294 12.294s-12.294-5.504-12.294-12.294 5.506-12.295 12.294-12.295 12.294 5.505 12.294 12.295zm632.965-9.556c0 7.878-6.39 14.266-14.267 14.266-7.879 0-14.269-6.388-14.269-14.266 0-7.88 6.39-14.269 14.269-14.269 7.877.001 14.267 6.389 14.267 14.269z"/><path fill="#3B86C4" d="M715.847 538.72c5.306-1.311 6.279-1.181 15.583.061l.306.041c9.201 1.225 13.008-.569 17.415-2.646l.832-.391c2.893-1.348 4.838-4.428 4.838-7.664 0-3.069-1.679-5.953-4.725-8.114-7.076-5.03-18.166-5.245-24.798-2.544-4.417 1.798-6.176 1.831-8.838 1.884-1.02.02-2.178.044-3.646.168-5.265.45-10.485 1.807-10.502 1.813-3.957.833-7.303 5.247-7.303 9.638 0 2.383.951 4.506 2.751 6.143 5.323 4.848 11.756 3.218 16.925 1.904l1.162-.293zm-17.114-2.691c-1.486-1.355-2.272-3.106-2.272-5.065 0-3.75 2.813-7.511 6.185-8.222.051-.012 5.151-1.338 10.292-1.778 1.421-.119 2.553-.142 3.551-.161 2.722-.054 4.688-.091 9.354-1.992 6.135-2.496 16.831-2.296 23.416 2.384 2.65 1.883 4.11 4.341 4.11 6.926 0 2.681-1.606 5.23-3.996 6.345l-.837.392c-4.375 2.061-7.832 3.689-16.612 2.519l-.302-.039c-9.35-1.246-10.55-1.407-16.123-.03l-1.169.294c-5.085 1.288-10.848 2.749-15.597-1.573zm43.697-10.738c1.502 0 2.725-1.229 2.725-2.736s-1.223-2.736-2.725-2.736-2.725 1.229-2.725 2.736 1.223 2.736 2.725 2.736zm0-4.017c.702 0 1.273.574 1.273 1.28 0 .705-.571 1.279-1.273 1.279s-1.271-.574-1.271-1.279c-.001-.705.569-1.28 1.271-1.28zm-8.21 4.017c1.504 0 2.724-1.229 2.724-2.736s-1.22-2.736-2.724-2.736c-1.502 0-2.723 1.229-2.723 2.736s1.221 2.736 2.723 2.736zm0-4.017c.703 0 1.274.574 1.274 1.28 0 .705-.571 1.279-1.274 1.279-.702 0-1.272-.574-1.272-1.279-.001-.705.57-1.28 1.272-1.28zm-8.014 6.024c1.503 0 2.726-1.227 2.726-2.736 0-1.507-1.223-2.735-2.726-2.735-1.502 0-2.724 1.229-2.724 2.735 0 1.509 1.222 2.736 2.724 2.736zm0-4.016c.703 0 1.276.574 1.276 1.279 0 .707-.573 1.279-1.276 1.279-.701 0-1.272-.572-1.272-1.279 0-.705.571-1.279 1.272-1.279zm-18.219 6.024c1.502 0 2.725-1.228 2.725-2.735 0-1.509-1.223-2.736-2.725-2.736-1.503 0-2.725 1.228-2.725 2.736.001 1.507 1.222 2.735 2.725 2.735zm0-4.015c.702 0 1.273.574 1.273 1.279s-.571 1.278-1.273 1.278-1.272-.573-1.272-1.278.57-1.279 1.272-1.279zm-5.468 2.747c-1.504 0-2.725 1.229-2.725 2.737 0 1.507 1.221 2.736 2.725 2.736 1.5 0 2.725-1.229 2.725-2.736-.001-1.508-1.225-2.737-2.725-2.737zm0 4.015c-.704 0-1.273-.572-1.273-1.277 0-.707.569-1.28 1.273-1.28.702 0 1.272.573 1.272 1.28 0 .704-.57 1.277-1.272 1.277zm6.15-.548c-1.502 0-2.725 1.229-2.725 2.735 0 1.509 1.223 2.737 2.725 2.737 1.503 0 2.726-1.229 2.726-2.737 0-1.507-1.223-2.735-2.726-2.735zm0 4.015c-.701 0-1.274-.572-1.274-1.279 0-.705.573-1.279 1.274-1.279.7 0 1.272.574 1.272 1.279 0 .706-.572 1.279-1.272 1.279zm38.432-1.871c1.501 0 2.724-1.229 2.724-2.736 0-1.509-1.223-2.736-2.724-2.736-1.503 0-2.725 1.228-2.725 2.736 0 1.508 1.222 2.736 2.725 2.736zm0-4.015c.701 0 1.271.574 1.271 1.279 0 .706-.57 1.277-1.271 1.277-.704 0-1.275-.571-1.275-1.277-.001-.705.57-1.279 1.275-1.279zm-11.393 3.287c0 1.508 1.223 2.735 2.723 2.735 1.504 0 2.728-1.228 2.728-2.735s-1.224-2.736-2.728-2.736c-1.5 0-2.723 1.228-2.723 2.736zm2.723-1.279c.703 0 1.274.574 1.274 1.279s-.571 1.278-1.274 1.278c-.701 0-1.272-.573-1.272-1.278s.57-1.279 1.272-1.279zm-12.106.591c0 1.508 1.222 2.735 2.724 2.735s2.725-1.228 2.725-2.735-1.223-2.737-2.725-2.737-2.724 1.23-2.724 2.737zm2.724-1.278c.702 0 1.273.572 1.273 1.278 0 .705-.571 1.279-1.273 1.279-.704 0-1.274-.574-1.274-1.279-.001-.706.57-1.278 1.274-1.278zm39.105 28.262l-.831-.393c-4.409-2.076-8.218-3.87-17.419-2.645l-.304.042c-9.303 1.24-10.275 1.37-15.584.059l-1.162-.292c-5.168-1.312-11.6-2.942-16.923 1.905-1.799 1.638-2.752 3.761-2.752 6.143 0 4.392 3.345 8.806 7.303 9.639.019.006 5.239 1.363 10.502 1.813 1.468.123 2.626.146 3.647.168 2.662.052 4.419.085 8.836 1.883 6.63 2.701 17.721 2.486 24.799-2.542 3.047-2.163 4.724-5.046 4.724-8.115 0-3.237-1.942-6.318-4.836-7.665zm-.724 14.589c-6.585 4.681-17.282 4.881-23.417 2.384-4.666-1.901-6.632-1.938-9.354-1.991-.997-.021-2.129-.043-3.551-.162-5.141-.44-10.243-1.767-10.294-1.778-3.367-.71-6.184-4.472-6.184-8.222 0-1.959.786-3.71 2.276-5.065 4.746-4.32 10.51-2.859 15.595-1.569l1.168.293c5.572 1.378 6.774 1.217 16.121-.029l.305-.04c8.779-1.17 12.235.459 16.61 2.52l.836.392c2.392 1.114 3.997 3.664 3.997 6.345.001 2.581-1.459 5.04-4.108 6.922zm-6.83-4.097c-1.502 0-2.725 1.229-2.725 2.737s1.223 2.735 2.725 2.735c1.505 0 2.727-1.228 2.727-2.735s-1.223-2.737-2.727-2.737zm0 4.017c-.7 0-1.272-.574-1.272-1.279 0-.706.572-1.28 1.272-1.28.701 0 1.274.574 1.274 1.28 0 .704-.573 1.279-1.274 1.279zm-8.208-4.017c-1.503 0-2.725 1.229-2.725 2.737s1.222 2.735 2.725 2.735 2.725-1.228 2.725-2.735-1.222-2.737-2.725-2.737zm0 4.017c-.702 0-1.275-.574-1.275-1.279 0-.706.573-1.28 1.275-1.28.701 0 1.273.574 1.273 1.28 0 .704-.572 1.279-1.273 1.279zm-8.013-6.025c-1.504 0-2.725 1.229-2.725 2.737s1.221 2.735 2.725 2.735c1.5 0 2.722-1.228 2.722-2.735 0-1.508-1.222-2.737-2.722-2.737zm0 4.017c-.704 0-1.275-.574-1.275-1.279 0-.706.571-1.278 1.275-1.278.701 0 1.272.572 1.272 1.278 0 .705-.571 1.279-1.272 1.279zm-18.222-6.024c-1.502 0-2.725 1.227-2.725 2.735 0 1.51 1.223 2.736 2.725 2.736 1.503 0 2.725-1.227 2.725-2.736 0-1.508-1.222-2.735-2.725-2.735zm0 4.015c-.701 0-1.272-.571-1.272-1.279 0-.705.571-1.278 1.272-1.278s1.274.573 1.274 1.278c.001.708-.573 1.279-1.274 1.279zm-5.469-8.22c-1.501 0-2.726 1.229-2.726 2.737s1.225 2.735 2.726 2.735c1.504 0 2.726-1.228 2.726-2.735-.001-1.508-1.223-2.737-2.726-2.737zm0 4.017c-.7 0-1.271-.574-1.271-1.279 0-.706.571-1.28 1.271-1.28.702 0 1.274.574 1.274 1.28 0 .705-.572 1.279-1.274 1.279zm6.151-7.483c-1.502 0-2.724 1.229-2.724 2.737 0 1.507 1.222 2.736 2.724 2.736 1.503 0 2.725-1.229 2.725-2.736-.001-1.508-1.222-2.737-2.725-2.737zm0 4.016c-.702 0-1.272-.573-1.272-1.278 0-.707.57-1.279 1.272-1.279.704 0 1.275.572 1.275 1.279 0 .705-.571 1.278-1.275 1.278zm38.431-.687c-1.502 0-2.725 1.228-2.725 2.737 0 1.507 1.223 2.735 2.725 2.735 1.503 0 2.726-1.229 2.726-2.735-.001-1.51-1.224-2.737-2.726-2.737zm0 4.015c-.702 0-1.272-.573-1.272-1.278 0-.707.57-1.279 1.272-1.279s1.275.572 1.275 1.279c0 .705-.573 1.278-1.275 1.278zm-5.943-3.287c0-1.509-1.222-2.735-2.725-2.735-1.501 0-2.725 1.227-2.725 2.735 0 1.51 1.224 2.736 2.725 2.736 1.503 0 2.725-1.226 2.725-2.736zm-2.724 1.279c-.702 0-1.272-.574-1.272-1.279s.57-1.279 1.272-1.279 1.272.574 1.272 1.279-.57 1.279-1.272 1.279zm-9.384-3.328c-1.502 0-2.725 1.229-2.725 2.735 0 1.51 1.223 2.738 2.725 2.738 1.503 0 2.725-1.229 2.725-2.738-.001-1.506-1.222-2.735-2.725-2.735zm0 4.015c-.702 0-1.274-.572-1.274-1.279 0-.705.572-1.279 1.274-1.279s1.275.574 1.275 1.279c0 .707-.573 1.279-1.275 1.279zm.231-12.928c.136.135.309.2.485.2.174 0 .35-.065.484-.2l3.631-3.646c.27-.27.27-.706 0-.976l-3.631-3.646c-.267-.271-.702-.271-.97 0-.27.268-.27.705 0 .975l2.458 2.47h-30.659l2.46-2.472c.271-.269.271-.705 0-.974-.269-.271-.7-.271-.97 0l-3.632 3.645c-.27.271-.27.707 0 .977l3.632 3.645c.134.137.31.203.483.203.177 0 .353-.066.486-.203.271-.267.271-.705 0-.974l-2.458-2.468h30.657l-2.458 2.47c-.267.266-.267.705.002.974zM852.617 520.25c-7.045-4.986-18.081-5.197-24.682-2.521-4.396 1.781-6.148 1.816-8.797 1.869-1.016.02-2.166.041-3.626.166-5.241.445-10.437 1.789-10.453 1.795-3.94.826-7.268 5.201-7.268 9.553 0 2.359.943 4.465 2.735 6.088 5.3 4.805 11.702 3.188 16.847 1.887l1.155-.289c5.28-1.299 6.248-1.17 15.51.061l.302.041c9.158 1.213 12.946-.564 17.334-2.621l.829-.389c2.877-1.336 4.812-4.389 4.812-7.598 0-3.042-1.669-5.899-4.698-8.042zm-.722 14.33l-.832.389c-4.354 2.043-7.796 3.656-16.533 2.496l-.302-.039c-9.304-1.236-10.497-1.395-16.044-.029l-1.162.291c-5.063 1.277-10.797 2.727-15.524-1.557-1.479-1.342-2.262-3.078-2.262-5.02 0-3.717 2.801-7.445 6.154-8.148.051-.014 5.127-1.326 10.243-1.762 1.413-.119 2.542-.143 3.535-.16 2.71-.053 4.664-.09 9.309-1.975 6.106-2.476 16.751-2.276 23.306 2.361 2.637 1.867 4.09 4.303 4.09 6.863-.001 2.659-1.601 5.187-3.978 6.29zm-6.91-14.516c-1.495 0-2.711 1.217-2.711 2.713 0 1.494 1.216 2.711 2.711 2.711 1.494 0 2.713-1.217 2.713-2.711 0-1.496-1.219-2.713-2.713-2.713zm0 3.981c-.7 0-1.267-.568-1.267-1.268 0-.701.566-1.268 1.267-1.268.699 0 1.269.566 1.269 1.268 0 .7-.569 1.268-1.269 1.268zm-5.458-1.268c0-1.496-1.219-2.713-2.713-2.713-1.495 0-2.711 1.217-2.711 2.713 0 1.494 1.216 2.711 2.711 2.711 1.495 0 2.713-1.217 2.713-2.711zm-2.713 1.268c-.699 0-1.267-.568-1.267-1.268 0-.701.567-1.268 1.267-1.268s1.27.566 1.27 1.268c0 .7-.57 1.268-1.27 1.268zm-5.262.721c0-1.494-1.216-2.711-2.713-2.711-1.495 0-2.711 1.217-2.711 2.711 0 1.496 1.216 2.713 2.711 2.713 1.497 0 2.713-1.217 2.713-2.713zm-2.713 1.269c-.697 0-1.268-.568-1.268-1.27 0-.699.57-1.268 1.268-1.268.698 0 1.269.568 1.269 1.268-.001.702-.571 1.27-1.269 1.27zm-18.134 3.434c1.496 0 2.715-1.219 2.715-2.713s-1.219-2.711-2.715-2.711c-1.494 0-2.709 1.217-2.709 2.711s1.215 2.713 2.709 2.713zm0-3.981c.7 0 1.271.568 1.271 1.268s-.57 1.268-1.271 1.268c-.698 0-1.266-.568-1.266-1.268s.568-1.268 1.266-1.268zm-5.442 2.723c-1.494 0-2.711 1.217-2.711 2.713 0 1.494 1.217 2.711 2.711 2.711 1.495 0 2.713-1.217 2.713-2.711 0-1.496-1.218-2.713-2.713-2.713zm0 3.98c-.7 0-1.267-.568-1.267-1.268 0-.701.566-1.268 1.267-1.268.699 0 1.27.566 1.27 1.268-.001.7-.571 1.268-1.27 1.268zm6.123-.545c-1.494 0-2.713 1.217-2.713 2.711 0 1.496 1.219 2.713 2.713 2.713 1.495 0 2.71-1.217 2.71-2.713 0-1.494-1.215-2.711-2.71-2.711zm0 3.979c-.7 0-1.269-.566-1.269-1.268 0-.699.568-1.266 1.269-1.266.697 0 1.266.566 1.266 1.266-.001.702-.569 1.268-1.266 1.268zm38.247-7.277c-1.494 0-2.711 1.217-2.711 2.713 0 1.494 1.217 2.711 2.711 2.711 1.495 0 2.71-1.217 2.71-2.711 0-1.497-1.215-2.713-2.71-2.713zm0 3.98c-.699 0-1.267-.568-1.267-1.268s.567-1.268 1.267-1.268 1.267.568 1.267 1.268-.568 1.268-1.267 1.268zm-8.628-1.99c-1.494 0-2.71 1.217-2.71 2.713 0 1.494 1.216 2.711 2.71 2.711 1.498 0 2.714-1.217 2.714-2.711 0-1.496-1.216-2.713-2.714-2.713zm0 3.98c-.696 0-1.266-.57-1.266-1.268 0-.701.569-1.27 1.266-1.27.7 0 1.27.568 1.27 1.27-.001.698-.57 1.268-1.27 1.268zm-9.338-4.662c-1.494 0-2.71 1.217-2.71 2.713 0 1.494 1.216 2.711 2.71 2.711 1.495 0 2.713-1.217 2.713-2.711 0-1.496-1.218-2.713-2.713-2.713zm0 3.981c-.7 0-1.267-.568-1.267-1.268s.566-1.268 1.267-1.268 1.27.568 1.27 1.268-.57 1.268-1.27 1.268zm20.837 25.474l-.825-.389c-4.39-2.057-8.18-3.836-17.338-2.621l-.302.041c-9.259 1.23-10.229 1.357-15.51.059l-1.155-.287c-5.145-1.301-11.547-2.916-16.844 1.885-1.791 1.625-2.738 3.729-2.738 6.092 0 4.35 3.327 8.725 7.268 9.551.017.006 5.215 1.35 10.453 1.795 1.46.125 2.61.146 3.626.168 2.651.051 4.4.086 8.797 1.867 6.601 2.676 17.637 2.465 24.682-2.521 3.032-2.143 4.698-5 4.698-8.043-.001-3.208-1.932-6.261-4.812-7.597zm-.722 14.461c-6.552 4.637-17.199 4.836-23.306 2.361-4.642-1.885-6.599-1.92-9.309-1.975-.993-.018-2.119-.041-3.535-.16-5.116-.436-10.192-1.75-10.243-1.762-3.352-.703-6.154-4.432-6.154-8.146 0-1.943.782-3.68 2.265-5.021 4.725-4.283 10.461-2.834 15.521-1.557l1.162.291c5.547 1.365 6.743 1.207 16.044-.029l.306-.039c8.736-1.158 12.175.455 16.529 2.496l.832.389c2.382 1.104 3.978 3.631 3.978 6.287 0 2.563-1.453 5-4.09 6.865zm-6.797-4.06c-1.495 0-2.711 1.217-2.711 2.713 0 1.494 1.216 2.711 2.711 2.711 1.498 0 2.713-1.217 2.713-2.711 0-1.496-1.215-2.713-2.713-2.713zm0 3.98c-.697 0-1.267-.57-1.267-1.268 0-.701.569-1.27 1.267-1.27.699 0 1.269.568 1.269 1.27 0 .698-.569 1.268-1.269 1.268zm-8.171-3.98c-1.495 0-2.711 1.217-2.711 2.713 0 1.494 1.216 2.711 2.711 2.711 1.497 0 2.713-1.217 2.713-2.711 0-1.496-1.215-2.713-2.713-2.713zm0 3.98c-.697 0-1.267-.57-1.267-1.268 0-.701.569-1.27 1.267-1.27.699 0 1.27.568 1.27 1.27 0 .698-.57 1.268-1.27 1.268zm-7.973-5.971c-1.495 0-2.713 1.217-2.713 2.711 0 1.496 1.218 2.713 2.713 2.713s2.711-1.217 2.711-2.713c0-1.494-1.216-2.711-2.711-2.711zm0 3.981c-.699 0-1.27-.568-1.27-1.27 0-.697.57-1.268 1.27-1.268.696 0 1.267.57 1.267 1.268-.001.702-.571 1.27-1.267 1.27zm-18.136-5.971c-1.494 0-2.709 1.219-2.709 2.713s1.215 2.711 2.709 2.711c1.498 0 2.715-1.217 2.715-2.711s-1.217-2.713-2.715-2.713zm0 3.981c-.695 0-1.266-.568-1.266-1.268s.57-1.268 1.266-1.268c.7 0 1.271.568 1.271 1.268s-.571 1.268-1.271 1.268zm-5.442-8.147c-1.494 0-2.711 1.217-2.711 2.713 0 1.494 1.217 2.711 2.711 2.711 1.498 0 2.713-1.217 2.713-2.711 0-1.496-1.215-2.713-2.713-2.713zm0 3.979c-.696 0-1.267-.568-1.267-1.266 0-.701.57-1.27 1.267-1.27.699 0 1.27.568 1.27 1.27-.001.697-.571 1.266-1.27 1.266zm6.123-7.414c-1.494 0-2.711 1.217-2.711 2.713 0 1.494 1.217 2.711 2.711 2.711 1.495 0 2.71-1.217 2.71-2.711 0-1.497-1.215-2.713-2.71-2.713zm0 3.98c-.7 0-1.267-.568-1.267-1.268 0-.701.566-1.27 1.267-1.27.699 0 1.266.568 1.266 1.27-.001.7-.567 1.268-1.266 1.268zm38.247-.681c-1.494 0-2.711 1.217-2.711 2.711 0 1.496 1.217 2.713 2.711 2.713 1.495 0 2.714-1.217 2.714-2.713 0-1.495-1.219-2.711-2.714-2.711zm0 3.98c-.699 0-1.267-.57-1.267-1.27s.567-1.268 1.267-1.268 1.27.568 1.27 1.268-.571 1.27-1.27 1.27zm-5.914-3.26c0-1.494-1.216-2.711-2.71-2.711-1.495 0-2.714 1.217-2.714 2.711 0 1.496 1.219 2.713 2.714 2.713 1.494 0 2.71-1.217 2.71-2.713zm-2.71 1.268c-.7 0-1.27-.566-1.27-1.268 0-.699.569-1.266 1.27-1.266.696 0 1.266.566 1.266 1.266-.001.701-.57 1.268-1.266 1.268zm-9.342-3.297c-1.494 0-2.71 1.217-2.71 2.711s1.216 2.713 2.71 2.713c1.498 0 2.713-1.219 2.713-2.713s-1.215-2.711-2.713-2.711zm0 3.978c-.696 0-1.267-.566-1.267-1.268 0-.699.57-1.268 1.267-1.268.7 0 1.27.568 1.27 1.268 0 .702-.57 1.268-1.27 1.268zm37.48-5.283l-2.229 2.229v-26.687l2.229 2.226c.242.244.634.244.877 0 .245-.242.245-.635 0-.877l-3.286-3.287c-.242-.242-.634-.242-.877 0l-3.285 3.287c-.125.123-.184.279-.184.439 0 .158.059.316.184.438.239.244.634.244.877 0l2.226-2.227v26.688l-2.226-2.229c-.243-.242-.638-.242-.88 0-.122.125-.181.283-.181.441 0 .16.059.316.181.439l3.285 3.287c.246.242.638.242.88 0l3.286-3.287c.245-.244.245-.635 0-.881-.243-.241-.634-.241-.877.001zM962.703 514.269c-.896 0-1.62.731-1.62 1.635v6.157l-6.334 6.269-2.511-.224c1.248-1.422 4.001-4.583 4.594-5.48.632-.957-.094-3.122-2.205-3.139-3.361-.026-5.392 2.248-5.392 2.248l-4.873 5.671-.39-.034v-2.337l3.286-3.033c.316-.308.493-.732.493-1.175v-4.923c0-.903-.725-1.635-1.619-1.635s-1.62.731-1.62 1.635v4.231l-3.287 3.034c-.314.308-.492.731-.492 1.174v4.525c0 .848.642 1.553 1.478 1.627l2.391.212-7.402 15.063c-1.192-.271-2.429-.427-3.701-.427-4.324 0-8.259 1.668-11.242 4.381l-3.807-11.047c3.479-.115 8.161-.764 7.637-2.493-.711-2.351-6.994-2.536-9.842-2.412-2.848.125-4.693-3.771-7.866-1.356-2.982 2.272 3.761 5.514 6.595 6.121l4.815 13.976c-1.954 2.771-3.115 6.15-3.115 9.804 0 6.014 3.125 11.293 7.813 14.309h-9.977c.125-.466.198-.952.198-1.457 0-3.071-2.473-5.566-5.516-5.566-3.042 0-5.517 2.495-5.517 5.566 0 1.968 1.021 3.697 2.555 4.687v.038h.063c.844.529 1.835.84 2.899.84s2.057-.311 2.899-.84h39c.844.529 1.835.84 2.899.84s2.056-.311 2.899-.84h.998v-.791c1-1.008 1.619-2.399 1.619-3.934 0-3.071-2.476-5.566-5.517-5.566-3.042 0-5.517 2.495-5.517 5.566 0 .505.073.991.198 1.457h-6.163c4.688-3.016 7.813-8.295 7.813-14.309 0-6.958-4.175-12.944-10.126-15.562l7.74-15.751 7.442.66.143.006c.515 0 1.004-.248 1.311-.675l7.181-7.443c.202-.279.31-.615.31-.961v-6.687c.002-.904-.724-1.635-1.618-1.635zm-51.764 62.355h-3.492c-.327-.397-.532-.901-.532-1.457 0-1.268 1.022-2.299 2.278-2.299s2.278 1.031 2.278 2.299c.001.556-.204 1.06-.532 1.457zm43.053-3.756c1.255 0 2.277 1.031 2.277 2.299 0 .556-.205 1.06-.532 1.457h-3.491c-.327-.397-.532-.901-.532-1.457 0-1.268 1.023-2.299 2.278-2.299zm-6.907-10.553c0 7.558-6.096 13.706-13.586 13.706-7.491 0-13.586-6.148-13.586-13.706s6.095-13.704 13.586-13.704c7.49 0 13.586 6.147 13.586 13.704zm-15.67-4.777h-6.605v3.268h3.343l-.04.06 6.767 4.594 1.13-1.694-4.594-3.118v-3.11zM6.321 624.687c.121.121.277.18.436.18.157 0 .316-.059.437-.18.241-.237.241-.626 0-.866l-2.209-2.191h27.561l-2.209 2.194c-.242.237-.242.626 0 .866.122.118.279.177.437.177s.315-.059.438-.177l3.263-3.241c.242-.24.242-.626 0-.866l-3.263-3.241c-.241-.238-.632-.238-.874 0-.242.24-.242.627 0 .866l2.211 2.195h-27.568l2.211-2.195c.241-.239.241-.629 0-.866-.242-.238-.63-.238-.872 0l-3.266 3.238c-.242.24-.242.629 0 .869l3.267 3.238zm2.655 29.32c.22.217.573.217.794 0 .22-.217.22-.569 0-.787l-2.969-2.947c-.221-.217-.575-.217-.794 0l-2.969 2.947c-.111.107-.164.251-.164.392 0 .145.053.286.164.396.218.217.573.217.794 0l2.008-1.993v23.921l-2.009-1.993c-.22-.218-.575-.218-.794 0-.11.11-.165.25-.165.395 0 .142.055.285.165.392l2.968 2.948c.221.217.574.217.795 0l2.97-2.948c.22-.216.22-.568 0-.786-.221-.218-.575-.218-.794 0l-2.013 1.997v-23.931l2.013 1.997zm53.892-10.201c-4.24-3.641-16.551-4.936-22.015-6.069-5.463-1.134-10.518-5.425-19.322-8.74-8.807-3.317-12.883-.889-17.123 2.186-4.238 3.074-3.505 6.636 0 9.711 3.209 2.811 17.816 8.945 20.276 9.97l.353.144c.726.22 1.498.396 2.299.541l4.547 24.938h7.256l-4.453-24.429c7.211-.084 14.72-1.429 17.582-1.376 6.524-.563 11.334 3.239 13.128 2.512s1.711-5.748-2.528-9.388zM137.481 647.612c-2.668-1.379-5.968-1.309-8.646.486-3.959 2.658-5.051 8.068-2.434 12.088 2.617 4.021 7.949 5.127 11.91 2.473 2.753-1.848 4.114-5.023 3.813-8.139 3.831-4.131 5.501-8.682 5.501-8.682s-4.85-.228-10.144 1.774zm-1.875 11.494c-1.832 1.23-4.295.717-5.505-1.141-1.209-1.859-.705-4.359 1.125-5.586 1.832-1.229 4.296-.717 5.505 1.141 1.209 1.86.707 4.36-1.125 5.586zm-26.147-3.326h2.414c0-.543.008-.908.029-1.332l-2.412-.125c-.021.471-.031.914-.031 1.457zm.908-8.107l2.686.941c.175-.592.373-1.164.59-1.719l-2.606-1.17c-.248.629-.471 1.278-.67 1.948zm3.042-6.432l2.33 1.693c.378-.553.782-1.078 1.21-1.58l-2.171-1.904c-.482.569-.94 1.164-1.369 1.791zm4.71-5.22l2.016 2.613c.593-.447 1.206-.859 1.84-1.236l-1.733-2.805c-.733.435-1.441.912-2.123 1.428zm9.437-.719l-.997-3.549c-.949.246-1.882.549-2.796.902l1.413 3.414c.777-.3 1.572-.558 2.38-.767zm6.206-.522l.086-3.879c-1.227-.025-2.457.033-3.676.174l.487 3.852c1.029-.119 2.067-.17 3.103-.147zm7.397-2.922c-1.417-.436-2.871-.748-4.345-.939-.189 1.348-.381 2.697-.573 4.047 1.23.16 2.449.422 3.633.787l1.285-3.895zm6.467 2.807c-1.354-.895-2.793-1.645-4.292-2.25l-1.789 4.146c1.233.498 2.417 1.115 3.529 1.85l2.552-3.746zm1.949 1.17l-3.139 3.83c1.112.9 2.129 1.934 3.026 3.104 1.286-1.027 2.574-2.059 3.86-3.09-1.11-1.45-2.371-2.731-3.747-3.844zm4.662 5.131l-4.037 2.84c.884 1.336 1.618 2.828 2.168 4.477l4.555-1.771c-.682-2.042-1.592-3.892-2.686-5.546zm3.262 6.765l-5.015 1.68c.535 1.918.828 3.934.828 6.369h5.229c0-2.976-.368-5.625-1.042-8.049z"/></svg>