<?xml version="1.0" encoding="utf-8"?>
<!-- Generator: Adobe Illustrator 15.1.0, SVG Export Plug-In  -->
<!DOCTYPE svg PUBLIC "-//W3C//DTD SVG 1.1//EN" "http://www.w3.org/Graphics/SVG/1.1/DTD/svg11.dtd" [
	<!ENTITY ns_flows "http://ns.adobe.com/Flows/1.0/">
]>
<svg version="1.1"
	 xmlns="http://www.w3.org/2000/svg" xmlns:xlink="http://www.w3.org/1999/xlink" xmlns:a="http://ns.adobe.com/AdobeSVGViewerExtensions/3.0/"
	 x="0px" y="0px" width="23px" height="18px" viewBox="0 0 23 18" enable-background="new 0 0 23 18" xml:space="preserve">
<defs>
</defs>
<path fill="#FFFFFF" d="M22.381,5.123h-3.802L13.496,0.22c-0.309-0.303-0.81-0.265-1.119,0.038c-0.309,0.304-0.309,0.737,0,1.04
	l3.963,3.825H6.485l3.962-3.807c0.309-0.302,0.309-0.755,0-1.059c-0.309-0.303-0.811-0.359-1.119-0.057L4.246,5.123H0.443
	C0.131,5.123,0,5.523,0,5.829v2.881c0,0.306,0.131,0.276,0.443,0.276h1.654l2.077,8.44C4.175,17.732,4.429,18,4.74,18h13.57
	c0.312,0,0.565-0.268,0.565-0.574l1.889-8.44h1.616c0.313,0,0.619,0.03,0.619-0.276V5.829C23,5.523,22.693,5.123,22.381,5.123z
	 M8.872,14.346c0,0.459-0.354,0.831-0.821,0.831c-0.469,0-0.822-0.372-0.822-0.831v-3.919c0-0.459,0.354-0.831,0.822-0.831
	c0.468,0,0.821,0.372,0.821,0.831V14.346z M12.486,14.346c0,0.459-0.354,0.831-0.821,0.831c-0.469,0-0.822-0.372-0.822-0.831v-3.919
	c0-0.459,0.354-0.831,0.822-0.831c0.468,0,0.821,0.372,0.821,0.831V14.346z M16.101,14.346c0,0.459-0.354,0.831-0.821,0.831
	c-0.469,0-0.821-0.372-0.821-0.831v-3.919c0-0.459,0.353-0.831,0.821-0.831c0.468,0,0.821,0.372,0.821,0.831V14.346z"/>
</svg>
