<?xml version="1.0" encoding="utf-8"?>
<!-- Generator: Adobe Illustrator 15.1.0, SVG Export Plug-In  -->
<!DOCTYPE svg PUBLIC "-//W3C//DTD SVG 1.1//EN" "http://www.w3.org/Graphics/SVG/1.1/DTD/svg11.dtd" [
	<!ENTITY ns_flows "http://ns.adobe.com/Flows/1.0/">
]>
<svg version="1.1"
	 xmlns="http://www.w3.org/2000/svg" xmlns:xlink="http://www.w3.org/1999/xlink" xmlns:a="http://ns.adobe.com/AdobeSVGViewerExtensions/3.0/"
	 x="0px" y="0px" width="9px" height="9px" viewBox="0 0 9 9" enable-background="new 0 0 9 9" xml:space="preserve">
<defs>
</defs>
<path fill-rule="evenodd" clip-rule="evenodd" fill="#FFFFFF" d="M1.018,0.519c0,0.194-0.314,0.508-0.508,0.508
	C0.314,1.027,0,0.713,0,0.519C0,0.315,0.314,0.01,0.509,0.01C0.704,0.01,1.018,0.315,1.018,0.519z M0.519,9
	C0.314,9,0.01,8.685,0.01,8.491s0.305-0.51,0.509-0.51c0.203,0,0.508,0.316,0.508,0.51S0.722,9,0.519,9z M1.989,1.48
	c0,0.204-0.314,0.509-0.509,0.509S0.971,1.684,0.971,1.48c0-0.194,0.314-0.509,0.509-0.509S1.989,1.286,1.989,1.48z M1.489,8.028
	c-0.204,0-0.509-0.314-0.509-0.508c0-0.195,0.305-0.51,0.509-0.51s0.509,0.314,0.509,0.51C1.998,7.714,1.693,8.028,1.489,8.028z
	 M2.46,7.048c-0.204,0-0.509-0.314-0.509-0.509S2.257,6.03,2.46,6.03c0.203,0,0.509,0.314,0.509,0.509S2.664,7.048,2.46,7.048z
	 M2.96,2.46c0,0.204-0.314,0.509-0.5,0.509S1.961,2.664,1.961,2.46S2.275,1.952,2.46,1.952S2.96,2.257,2.96,2.46z M3.94,3.422
	c0,0.204-0.314,0.518-0.508,0.518S2.923,3.626,2.923,3.422c0-0.194,0.314-0.508,0.509-0.508S3.94,3.229,3.94,3.422z M3.432,6.077
	c-0.204,0-0.509-0.314-0.509-0.509c0-0.193,0.305-0.509,0.509-0.509S3.94,5.375,3.94,5.568C3.94,5.763,3.635,6.077,3.432,6.077z
	 M4.504,5.152c-0.269,0-0.666-0.407-0.666-0.657s0.397-0.657,0.666-0.657c0.268,0,0.666,0.407,0.666,0.657S4.772,5.152,4.504,5.152z
	 M5.578,3.94c-0.203,0-0.518-0.314-0.518-0.508s0.314-0.509,0.518-0.509c0.194,0,0.508,0.314,0.508,0.509S5.772,3.94,5.578,3.94z
	 M6.077,5.568c0,0.203-0.313,0.509-0.509,0.509c-0.193,0-0.508-0.306-0.508-0.509S5.375,5.06,5.568,5.06
	C5.763,5.06,6.077,5.365,6.077,5.568z M6.54,2.951c-0.204,0-0.51-0.305-0.51-0.5s0.306-0.499,0.51-0.499
	c0.203,0,0.508,0.305,0.508,0.499S6.743,2.951,6.54,2.951z M7.047,6.539c0,0.204-0.305,0.509-0.5,0.509
	c-0.193,0-0.499-0.305-0.499-0.509S6.354,6.03,6.547,6.03C6.743,6.03,7.047,6.335,7.047,6.539z M7.52,1.989
	c-0.204,0-0.51-0.314-0.51-0.509c0-0.194,0.306-0.509,0.51-0.509c0.193,0,0.508,0.315,0.508,0.509
	C8.028,1.674,7.713,1.989,7.52,1.989z M8.028,7.511c0,0.203-0.314,0.508-0.508,0.508c-0.195,0-0.51-0.305-0.51-0.508
	c0-0.195,0.314-0.51,0.51-0.51C7.713,7.001,8.028,7.315,8.028,7.511z M8.482,1.017c-0.194,0-0.509-0.314-0.509-0.508
	C7.973,0.315,8.288,0,8.482,0c0.203,0,0.509,0.315,0.509,0.509C8.991,0.703,8.685,1.017,8.482,1.017z M9,8.481
	c0,0.203-0.314,0.51-0.509,0.51s-0.509-0.307-0.509-0.51s0.314-0.508,0.509-0.508S9,8.278,9,8.481z"/>
</svg>
