<?xml version="1.0" encoding="utf-8"?>
<!-- Generator: Adobe Illustrator 15.1.0, SVG Export Plug-In  -->
<!DOCTYPE svg PUBLIC "-//W3C//DTD SVG 1.1//EN" "http://www.w3.org/Graphics/SVG/1.1/DTD/svg11.dtd" [
	<!ENTITY ns_flows "http://ns.adobe.com/Flows/1.0/">
]>
<svg version="1.1"
	 xmlns="http://www.w3.org/2000/svg" xmlns:xlink="http://www.w3.org/1999/xlink" xmlns:a="http://ns.adobe.com/AdobeSVGViewerExtensions/3.0/"
	 x="0px" y="0px" width="42px" height="38px" viewBox="0 0 42 38" enable-background="new 0 0 42 38" xml:space="preserve">
<defs>
</defs>
<g>
	<g>
		<path fill="#2D679C" d="M21.487,0.975c-11.313,0-20.515,6.904-20.515,15.389c0,5.272,3.58,10.149,9.425,12.957
			c-0.495,2.114-1.628,4.84-4.216,5.652c-0.743,0.234-1.194,1.001-1.044,1.773C5.274,37.48,5.908,38,6.631,38
			c0.042,0,0.084-0.002,0.129-0.004c0.454-0.04,10.863-0.979,15.713-6.266C33.479,31.349,42,24.697,42,16.364
			C42,7.878,32.796,0.975,21.487,0.975z M21.751,28.648c-0.455,0.006-0.884,0.216-1.17,0.576c-1.95,2.449-5.606,3.881-8.702,4.696
			c1.046-1.816,1.53-3.825,1.753-5.278c0.111-0.709-0.275-1.402-0.931-1.673c-5.354-2.215-8.681-6.279-8.681-10.606
			c0-6.778,7.833-12.291,17.465-12.291c9.628,0,17.464,5.513,17.464,12.291C38.951,23.037,31.232,28.549,21.751,28.648z
			 M14.494,13.807c-1.355,0-2.455,1.117-2.455,2.493c0,1.376,1.1,2.492,2.455,2.492c1.357,0,2.455-1.115,2.455-2.492
			C16.949,14.924,15.851,13.807,14.494,13.807z M21.485,13.807c-1.355,0-2.454,1.117-2.454,2.493c0,1.376,1.099,2.492,2.454,2.492
			c1.356,0,2.454-1.115,2.454-2.492C23.939,14.924,22.842,13.807,21.485,13.807z M28.479,13.807c-1.356,0-2.455,1.117-2.455,2.493
			c0,1.376,1.099,2.492,2.455,2.492c1.355,0,2.454-1.115,2.454-2.492C30.933,14.924,29.834,13.807,28.479,13.807z"/>
	</g>
</g>
<g>
	<g>
		<path fill="#FFFFFF" d="M20.459,0C9.177,0,0,6.885,0,15.348c0,5.258,3.569,10.122,9.399,12.924
			c-0.493,2.108-1.624,4.824-4.205,5.638c-0.742,0.231-1.191,0.995-1.042,1.768c0.138,0.733,0.769,1.25,1.491,1.25
			c0.042,0,0.083-0.002,0.128-0.004c0.453-0.04,10.834-0.978,15.672-6.249c10.977-0.38,19.474-7.016,19.474-15.326
			C40.918,6.885,31.74,0,20.459,0z M20.723,27.6c-0.453,0.006-0.88,0.216-1.167,0.573c-1.944,2.444-5.591,3.873-8.677,4.686
			c1.042-1.81,1.525-3.815,1.748-5.264c0.11-0.706-0.274-1.398-0.928-1.67c-5.341-2.209-8.658-6.262-8.658-10.577
			c0-6.759,7.813-12.258,17.418-12.258c9.603,0,17.417,5.499,17.417,12.258C37.877,22.003,30.181,27.499,20.723,27.6z
			 M13.485,12.798c-1.352,0-2.448,1.113-2.448,2.486c0,1.373,1.096,2.485,2.448,2.485c1.354,0,2.449-1.113,2.449-2.485
			C15.934,13.912,14.838,12.798,13.485,12.798z M20.458,12.798c-1.353,0-2.448,1.113-2.448,2.486c0,1.373,1.095,2.485,2.448,2.485
			c1.351,0,2.449-1.113,2.449-2.485C22.907,13.912,21.81,12.798,20.458,12.798z M27.433,12.798c-1.353,0-2.448,1.113-2.448,2.486
			c0,1.373,1.096,2.485,2.448,2.485c1.352,0,2.447-1.113,2.447-2.485C29.88,13.912,28.784,12.798,27.433,12.798z"/>
	</g>
</g>
</svg>
