<!DOCTYPE svg PUBLIC "-//W3C//DTD SVG 1.1//EN" "http://www.w3.org/Graphics/SVG/1.1/DTD/svg11.dtd" [
	<!ENTITY ns_flows "http://ns.adobe.com/Flows/1.0/">
]><svg xmlns="http://www.w3.org/2000/svg" width="23" height="18" viewBox="0 0 23 18"><path fill="#fff" d="M22.381 5.123h-3.802l-5.083-4.903c-.309-.303-.81-.265-1.119.038-.309.304-.309.737 0 1.04l3.963 3.825h-9.855l3.962-3.807c.309-.302.309-.755 0-1.059-.309-.303-.811-.359-1.119-.057l-5.082 4.923h-3.803c-.312 0-.443.4-.443.706v2.881c0 .306.131.276.443.276h1.654l2.077 8.44c.001.306.255.574.566.574h13.57c.312 0 .565-.268.565-.574l1.889-8.44h1.616c.313 0 .619.03.619-.276v-2.881c.001-.306-.306-.706-.618-.706zm-13.509 9.223c0 .459-.354.831-.821.831-.469 0-.822-.372-.822-.831v-3.919c0-.459.354-.831.822-.831.468 0 .821.372.821.831v3.919zm3.614 0c0 .459-.354.831-.821.831-.469 0-.822-.372-.822-.831v-3.919c0-.459.354-.831.822-.831.468 0 .821.372.821.831v3.919zm3.615 0c0 .459-.354.831-.821.831-.469 0-.821-.372-.821-.831v-3.919c0-.459.353-.831.821-.831.468 0 .821.372.821.831v3.919z"/></svg>