<!DOCTYPE svg PUBLIC "-//W3C//DTD SVG 1.1//EN" "http://www.w3.org/Graphics/SVG/1.1/DTD/svg11.dtd" [
	<!ENTITY ns_flows "http://ns.adobe.com/Flows/1.0/">
]><svg xmlns="http://www.w3.org/2000/svg" width="27" height="27" viewBox="0 0 27 27"><path fill-rule="evenodd" clip-rule="evenodd" fill="#EE1C4D" d="M17.999 7.179l-4.311 4.311-4.106-4.106-2.258 2.258 4.106 4.106-4.106 4.105 2.258 2.258 4.106-4.104 4.104 4.104 2.258-2.258-4.104-4.105 4.311-4.311-2.258-2.258zm-4.5-7.179c-7.443 0-13.499 6.056-13.499 13.5 0 7.443 6.056 13.5 13.499 13.5 7.444 0 13.501-6.057 13.501-13.5 0-7.444-6.057-13.5-13.501-13.5zm0 25.92c-6.848 0-12.419-5.571-12.419-12.42 0-6.848 5.571-12.42 12.419-12.42 6.849 0 12.421 5.572 12.421 12.42 0 6.849-5.572 12.42-12.421 12.42z"/></svg>