<!DOCTYPE svg PUBLIC "-//W3C//DTD SVG 1.1//EN" "http://www.w3.org/Graphics/SVG/1.1/DTD/svg11.dtd" [
	<!ENTITY ns_flows "http://ns.adobe.com/Flows/1.0/">
]><svg xmlns="http://www.w3.org/2000/svg" width="9" height="9" viewBox="0 0 9 9"><path fill-rule="evenodd" clip-rule="evenodd" fill="#fff" d="M1.018.519c0 .194-.314.508-.508.508-.196 0-.51-.314-.51-.508 0-.204.314-.509.509-.509s.509.305.509.509zm-.499 8.481c-.205 0-.509-.315-.509-.509s.305-.51.509-.51c.203 0 .508.316.508.51s-.305.509-.508.509zm1.47-7.52c0 .204-.314.509-.509.509s-.509-.305-.509-.509c0-.194.314-.509.509-.509s.509.315.509.509zm-.5 6.548c-.204 0-.509-.314-.509-.508 0-.195.305-.51.509-.51s.509.314.509.51c0 .194-.305.508-.509.508zm.971-.98c-.204 0-.509-.314-.509-.509s.306-.509.509-.509.509.314.509.509-.305.509-.509.509zm.5-4.588c0 .204-.314.509-.5.509s-.499-.305-.499-.509.314-.508.499-.508.5.305.5.508zm.98.962c0 .204-.314.518-.508.518s-.509-.314-.509-.518c0-.194.314-.508.509-.508s.508.315.508.508zm-.508 2.655c-.204 0-.509-.314-.509-.509 0-.193.305-.509.509-.509s.508.316.508.509c0 .195-.305.509-.508.509zm1.072-.925c-.269 0-.666-.407-.666-.657s.397-.657.666-.657c.268 0 .666.407.666.657s-.398.657-.666.657zm1.074-1.212c-.203 0-.518-.314-.518-.508s.314-.509.518-.509c.194 0 .508.314.508.509s-.314.508-.508.508zm.499 1.628c0 .203-.313.509-.509.509-.193 0-.508-.306-.508-.509s.315-.508.508-.508c.195 0 .509.305.509.508zm.463-2.617c-.204 0-.51-.305-.51-.5s.306-.499.51-.499c.203 0 .508.305.508.499s-.305.5-.508.5zm.507 3.588c0 .204-.305.509-.5.509-.193 0-.499-.305-.499-.509s.306-.509.499-.509c.196 0 .5.305.5.509zm.473-4.55c-.204 0-.51-.314-.51-.509 0-.194.306-.509.51-.509.193 0 .508.315.508.509s-.315.509-.508.509zm.508 5.522c0 .203-.314.508-.508.508-.195 0-.51-.305-.51-.508 0-.195.314-.51.51-.51.193 0 .508.314.508.51zm.454-6.494c-.194 0-.509-.314-.509-.508s.315-.509.509-.509c.203 0 .509.315.509.509s-.306.508-.509.508zm.518 7.464c0 .203-.314.51-.509.51s-.509-.307-.509-.51.314-.508.509-.508.509.305.509.508z"/></svg>