<!DOCTYPE svg PUBLIC "-//W3C//DTD SVG 1.1//EN" "http://www.w3.org/Graphics/SVG/1.1/DTD/svg11.dtd" [
	<!ENTITY ns_flows "http://ns.adobe.com/Flows/1.0/">
]><svg xmlns="http://www.w3.org/2000/svg" width="42" height="38" viewBox="0 0 42 38"><path fill="#2D679C" d="M21.487.975c-11.313 0-20.515 6.904-20.515 15.389 0 5.272 3.58 10.149 9.425 12.957-.495 2.114-1.628 4.84-4.216 5.652-.743.234-1.194 1.001-1.044 1.773.137.734.771 1.254 1.494 1.254l.129-.004c.454-.04 10.863-.979 15.713-6.266 11.006-.381 19.527-7.033 19.527-15.366 0-8.486-9.204-15.389-20.513-15.389zm.264 27.673c-.455.006-.884.216-1.17.576-1.95 2.449-5.606 3.881-8.702 4.696 1.046-1.816 1.53-3.825 1.753-5.278.111-.709-.275-1.402-.931-1.673-5.354-2.215-8.681-6.279-8.681-10.606 0-6.778 7.833-12.291 17.465-12.291 9.628 0 17.464 5.513 17.464 12.291.002 6.674-7.717 12.186-17.198 12.285zm-7.257-14.841c-1.355 0-2.455 1.117-2.455 2.493s1.1 2.492 2.455 2.492c1.357 0 2.455-1.115 2.455-2.492 0-1.376-1.098-2.493-2.455-2.493zm6.991 0c-1.355 0-2.454 1.117-2.454 2.493s1.099 2.492 2.454 2.492c1.356 0 2.454-1.115 2.454-2.492 0-1.376-1.097-2.493-2.454-2.493zm6.994 0c-1.356 0-2.455 1.117-2.455 2.493s1.099 2.492 2.455 2.492c1.355 0 2.454-1.115 2.454-2.492 0-1.376-1.099-2.493-2.454-2.493z"/><path fill="#fff" d="M20.459 0c-11.282 0-20.459 6.885-20.459 15.348 0 5.258 3.569 10.122 9.399 12.924-.493 2.108-1.624 4.824-4.205 5.638-.742.231-1.191.995-1.042 1.768.138.733.769 1.25 1.491 1.25l.128-.004c.453-.04 10.834-.978 15.672-6.249 10.977-.38 19.474-7.016 19.474-15.326.001-8.464-9.177-15.349-20.458-15.349zm.264 27.6c-.453.006-.88.216-1.167.573-1.944 2.444-5.591 3.873-8.677 4.686 1.042-1.81 1.525-3.815 1.748-5.264.11-.706-.274-1.398-.928-1.67-5.341-2.209-8.658-6.262-8.658-10.577 0-6.759 7.813-12.258 17.418-12.258 9.603 0 17.417 5.499 17.417 12.258.001 6.655-7.695 12.151-17.153 12.252zm-7.238-14.802c-1.352 0-2.448 1.113-2.448 2.486 0 1.373 1.096 2.485 2.448 2.485 1.354 0 2.449-1.113 2.449-2.485 0-1.372-1.096-2.486-2.449-2.486zm6.973 0c-1.353 0-2.448 1.113-2.448 2.486 0 1.373 1.095 2.485 2.448 2.485 1.351 0 2.449-1.113 2.449-2.485 0-1.372-1.097-2.486-2.449-2.486zm6.975 0c-1.353 0-2.448 1.113-2.448 2.486 0 1.373 1.096 2.485 2.448 2.485 1.352 0 2.447-1.113 2.447-2.485 0-1.372-1.096-2.486-2.447-2.486z"/></svg>