<!DOCTYPE svg PUBLIC "-//W3C//DTD SVG 1.1//EN" "http://www.w3.org/Graphics/SVG/1.1/DTD/svg11.dtd" [
	<!ENTITY ns_flows "http://ns.adobe.com/Flows/1.0/">
]><svg xmlns="http://www.w3.org/2000/svg" width="120" height="120" viewBox="0 0 120 120"><path fill-rule="evenodd" clip-rule="evenodd" fill="#C8C8C8" d="M86.848 120h-86.848v-89.667l30.332-30.333h89.668v86.848l-33.152 33.152zm1.636-38.139l-7.969-7.971c3.246-4.48 5.168-9.98 5.168-15.924 0-15.003-12.207-27.209-27.209-27.209-15.003 0-27.208 12.206-27.208 27.209 0 15.002 12.206 27.208 27.208 27.208 5.944 0 11.444-1.92 15.924-5.168l7.971 7.971c.844.844 1.951 1.268 3.059 1.268 1.105 0 2.213-.424 3.057-1.268 1.689-1.69 1.689-4.426-.001-6.116zm-30.01-5.336c-10.233 0-18.56-8.326-18.56-18.559 0-10.234 8.326-18.56 18.56-18.56 10.235 0 18.559 8.326 18.559 18.56 0 10.233-8.324 18.559-18.559 18.559z"/></svg>