<!DOCTYPE svg PUBLIC "-//W3C//DTD SVG 1.1//EN" "http://www.w3.org/Graphics/SVG/1.1/DTD/svg11.dtd" [
	<!ENTITY ns_flows "http://ns.adobe.com/Flows/1.0/">
]><svg xmlns="http://www.w3.org/2000/svg" width="23" height="23" viewBox="0 0 23 23"><path fill-rule="evenodd" clip-rule="evenodd" fill="#EF5B2D" d="M11.819 6.727l-7.001 7.085 1.167 1.181 5.834-5.905 5.833 5.905 1.166-1.181-6.999-7.085zm-.318-6.727c-6.342 0-11.501 5.159-11.501 11.501 0 6.34 5.159 11.499 11.501 11.499 6.341 0 11.499-5.159 11.499-11.499 0-6.342-5.158-11.501-11.499-11.501zm0 21.16c-5.327 0-9.661-4.334-9.661-9.659 0-5.328 4.334-9.661 9.661-9.661 5.326 0 9.659 4.333 9.659 9.661 0 5.325-4.333 9.659-9.659 9.659z"/></svg>