<!DOCTYPE svg PUBLIC "-//W3C//DTD SVG 1.1//EN" "http://www.w3.org/Graphics/SVG/1.1/DTD/svg11.dtd" [
	<!ENTITY ns_flows "http://ns.adobe.com/Flows/1.0/">
]><svg xmlns="http://www.w3.org/2000/svg" width="45" height="45" viewBox="0 0 45 45"><path fill="#fff" d="M44.025 39.32l-6.132-6.133c2.498-3.447 3.977-7.678 3.977-12.252 0-11.543-9.391-20.935-20.935-20.935-11.544 0-20.935 9.392-20.935 20.936 0 11.543 9.391 20.934 20.935 20.934 4.573 0 8.804-1.479 12.252-3.977l6.132 6.135c.65.648 1.502.972 2.353.972.852 0 1.704-.324 2.354-.973 1.299-1.3 1.299-3.408-.001-4.707zm-23.09-4.103c-7.874 0-14.28-6.408-14.28-14.281 0-7.874 6.406-14.28 14.28-14.28s14.28 6.407 14.28 14.28c0 7.873-6.406 14.281-14.28 14.281z"/></svg>