<?xml version="1.0" encoding="utf-8"?>
<!-- Generator: Adobe Illustrator 15.1.0, SVG Export Plug-In  -->
<!DOCTYPE svg PUBLIC "-//W3C//DTD SVG 1.1//EN" "http://www.w3.org/Graphics/SVG/1.1/DTD/svg11.dtd" [
	<!ENTITY ns_flows "http://ns.adobe.com/Flows/1.0/">
]>
<svg version="1.1"
	 xmlns="http://www.w3.org/2000/svg" xmlns:xlink="http://www.w3.org/1999/xlink" xmlns:a="http://ns.adobe.com/AdobeSVGViewerExtensions/3.0/"
	 x="0px" y="0px" width="632px" height="195px" viewBox="0 0 632 195" enable-background="new 0 0 632 195" xml:space="preserve">
<defs>
</defs>
<g>
	<defs>
		<rect id="SVGID_1_" x="0" y="0" width="631.637" height="194.879"/>
	</defs>
	<clipPath id="SVGID_5_">
		<use xlink:href="#SVGID_1_"  overflow="visible"/>
	</clipPath>
	<g clip-path="url(#SVGID_5_)">
		<defs>
			<rect id="SVGID_2_" x="0" y="0" width="631.637" height="194.879"/>
		</defs>
		<clipPath id="SVGID_6_">
			<use xlink:href="#SVGID_2_"  overflow="visible"/>
		</clipPath>
		<g clip-path="url(#SVGID_6_)">
			<g>
				<defs>
					<rect id="SVGID_3_" x="95.456" y="47.54" width="1.724" height="1.583"/>
				</defs>
				<clipPath id="SVGID_7_">
					<use xlink:href="#SVGID_3_"  overflow="visible"/>
				</clipPath>
				<g clip-path="url(#SVGID_7_)">
					<defs>
						<path id="SVGID_4_" d="M95.456,47.54c0.021,0.174,0.035,0.351,0.054,0.528c0.487,0.296,1.035,0.642,1.67,1.055
							C96.602,48.575,96.026,48.047,95.456,47.54"/>
					</defs>
					<clipPath id="SVGID_8_">
						<use xlink:href="#SVGID_4_"  overflow="visible"/>
					</clipPath>
					
						<linearGradient id="SVGID_9_" gradientUnits="userSpaceOnUse" x1="0" y1="194.8794" x2="1.0005" y2="194.8794" gradientTransform="matrix(1.7445 -0.0227 0.0227 -1.7112 91.028 381.814)">
						<stop  offset="0" style="stop-color:#DEDEDD"/>
						<stop  offset="0.0305" style="stop-color:#E3CABC"/>
						<stop  offset="0.075" style="stop-color:#E7B096"/>
						<stop  offset="0.1249" style="stop-color:#E99A77"/>
						<stop  offset="0.1792" style="stop-color:#EB875F"/>
						<stop  offset="0.2392" style="stop-color:#EC774A"/>
						<stop  offset="0.307" style="stop-color:#ED683A"/>
						<stop  offset="0.386" style="stop-color:#EE5C2E"/>
						<stop  offset="0.4837" style="stop-color:#EF5327"/>
						<stop  offset="0.6207" style="stop-color:#F04E24"/>
						<stop  offset="1" style="stop-color:#F04C23"/>
						<stop  offset="1" style="stop-color:#E94D25"/>
						<stop  offset="1" style="stop-color:#C55635"/>
						<stop  offset="1" style="stop-color:#A85B43"/>
						<stop  offset="1" style="stop-color:#905D4D"/>
						<stop  offset="1" style="stop-color:#7D5D54"/>
						<stop  offset="1" style="stop-color:#6F5D59"/>
						<stop  offset="1" style="stop-color:#645D5C"/>
						<stop  offset="1" style="stop-color:#5E5D5D"/>
						<stop  offset="1" style="stop-color:#5D5D5E"/>
						<stop  offset="1" style="stop-color:#0A0000"/>
					</linearGradient>
					<polygon clip-path="url(#SVGID_8_)" fill="url(#SVGID_9_)" points="95.456,47.54 97.201,47.517 97.18,49.123 95.434,49.145 
											"/>
				</g>
			</g>
		</g>
		<path clip-path="url(#SVGID_6_)" fill="#EE5A2B" d="M43.744,25.071C25.835,64.805-2.41,83.016,0.165,120.246
			c0.099,1.414,0.266,2.758,0.416,4.121c9.84,33.209,38.514,44.43,55.312,48.183l-8.006-8.204c-0.694-0.707-16.919-17.643-14.133-42
			c1.385-12.084,7.107-24.396,13.163-37.437c7.95-17.1,16.166-34.781,14.192-52.056C59.606,19.757,52.667,9.175,46.245,1.949
			C46.821,5.832,47.786,16.096,43.744,25.071"/>
		<path clip-path="url(#SVGID_6_)" fill="#EE5A2B" d="M49.556,29.653C31.648,69.387,3.401,87.598,5.977,124.829
			c0.099,1.412,0.266,2.76,0.416,4.121c9.839,33.207,38.514,44.434,55.311,48.182l-8.005-8.203
			c-0.692-0.707-16.919-17.645-14.133-42c1.383-12.084,7.108-24.396,13.164-37.437c7.948-17.1,16.165-34.781,14.19-52.056
			c-1.501-13.094-8.438-23.678-14.863-30.901C52.633,10.414,53.597,20.679,49.556,29.653"/>
		<path clip-path="url(#SVGID_6_)" fill="#F26922" d="M80.591,125.969c-17.366,22.594-18.306,44.946-18.318,49.277
			c0.888,0.157,1.734,0.292,2.498,0.402c0.94-7.396,4.562-19.891,17.463-31.945c1.429-1.335,3.102-2.806,4.939-4.422
			c11.854-10.423,29.772-26.173,32.149-49.938c1.781-17.757-8.38-31.669-17.809-40.555c-0.634-0.413-1.183-0.758-1.67-1.055
			c0.154,1.285,0.257,2.582,0.323,3.876C110.16,78.302,90.962,112.474,80.591,125.969"/>
		<path clip-path="url(#SVGID_6_)" fill="#EE5A2B" d="M80.351,125.138c-17.366,22.594-18.306,44.945-18.318,49.277
			c0.888,0.156,1.734,0.291,2.498,0.402c0.94-7.396,4.562-19.891,17.463-31.945c1.429-1.336,3.102-2.807,4.939-4.421
			c11.854-10.425,29.772-26.175,32.149-49.938c1.781-17.758-8.38-31.67-17.809-40.556c-0.634-0.413-1.183-0.758-1.67-1.055
			c0.154,1.285,0.257,2.582,0.323,3.876C109.919,77.47,90.722,111.642,80.351,125.138"/>
		<path clip-path="url(#SVGID_6_)" fill="#EE5A2B" d="M183.843,144.454c-4.938,0-9.501-0.91-13.691-2.73
			c-4.19-1.819-7.83-4.31-10.917-7.47s-5.489-6.912-7.21-11.256c-1.724-4.341-2.582-9.035-2.582-14.078
			c0-5.109,0.858-9.771,2.582-13.986c1.721-4.214,4.123-7.807,7.21-10.775c3.087-2.97,6.727-5.268,10.917-6.896
			c4.19-1.631,8.753-2.445,13.691-2.445h17.25c5.132,0,9.826,0.832,14.083,2.492c4.255,1.661,7.909,3.99,10.962,6.991
			c3.053,3.003,5.426,6.595,7.116,10.777c1.69,4.181,2.533,8.798,2.533,13.842c0,5.043-0.861,9.737-2.582,14.078
			c-1.721,4.344-4.126,8.096-7.21,11.256c-3.086,3.16-6.742,5.65-10.965,7.47c-4.225,1.82-8.869,2.73-13.937,2.73H183.843z
			 M201.093,132.289c3.249,0,6.237-0.573,8.967-1.724c2.729-1.148,5.082-2.73,7.066-4.74c1.98-2.013,3.524-4.422,4.627-7.232
			c1.107-2.81,1.659-5.844,1.659-9.1s-0.552-6.275-1.659-9.053c-1.103-2.776-2.647-5.155-4.627-7.134
			c-1.984-1.98-4.337-3.529-7.066-4.646c-2.73-1.116-5.718-1.677-8.967-1.677h-17.25c-3.184,0-6.124,0.561-8.82,1.677
			c-2.695,1.117-5.018,2.666-6.968,4.646c-1.949,1.979-3.475,4.343-4.581,7.088c-1.104,2.745-1.657,5.779-1.657,9.099
			c0,3.256,0.553,6.29,1.657,9.1c1.106,2.811,2.632,5.22,4.581,7.232c1.95,2.01,4.273,3.592,6.968,4.74
			c2.696,1.15,5.636,1.724,8.82,1.724H201.093z"/>
		<path clip-path="url(#SVGID_6_)" fill="#EE5A2B" d="M267.169,125.107v-11.784h28.458c4.35,0,7.746-1.196,10.182-3.59
			c2.435-2.397,3.655-5.605,3.655-9.626c0-4.023-1.217-7.216-3.649-9.58c-2.433-2.361-5.82-3.544-10.164-3.544h-37.449v57.471
			h-12.378V74.817h49.803c4.091,0,7.746,0.592,10.962,1.773c3.217,1.183,5.929,2.844,8.138,4.982
			c2.208,2.139,3.898,4.741,5.067,7.805c1.171,3.066,1.754,6.515,1.754,10.345c0,3.769-0.583,7.2-1.754,10.297
			c-1.169,3.1-2.859,5.764-5.067,7.998c-2.209,2.235-4.921,3.975-8.138,5.221c-3.216,1.244-6.871,1.869-10.962,1.869H267.169z"/>
		<polygon clip-path="url(#SVGID_6_)" fill="#EE5A2B" points="353.028,144.454 353.028,86.982 326.13,86.982 326.13,74.817 
			392.299,74.817 392.299,86.982 365.402,86.982 365.402,144.454 		"/>
		<rect x="401.168" y="74.817" clip-path="url(#SVGID_6_)" fill="#EE5A2B" width="12.379" height="69.636"/>
		<path clip-path="url(#SVGID_6_)" fill="#EE5A2B" d="M514.706,144.454l-13.548-48.946l-20.072,45.305
			c-0.716,1.472-1.58,2.604-2.583,3.401c-1.01,0.799-2.259,1.198-3.756,1.198c-2.859,0-4.97-1.532-6.332-4.6l-19.98-45.305
			l-13.546,48.946h-12.183l18.227-65.515c0.843-3.32,2.891-4.983,6.137-4.983c1.302,0,2.521,0.353,3.657,1.054
			c1.132,0.703,1.997,1.724,2.584,3.067l21.828,49.23l21.834-49.23c1.167-2.746,3.146-4.121,5.94-4.121
			c2.988,0,4.97,1.663,5.947,4.983l18.123,65.515H514.706z"/>
		<path clip-path="url(#SVGID_6_)" fill="#EE5A2B" d="M609.042,144.454l-10.621-17.529h-33.527l5.85-9.864h21.73l-15.788-26.055
			l-32.159,53.448h-14.132l40.74-66.666c0.715-1.213,1.559-2.169,2.53-2.874c0.979-0.7,2.146-1.052,3.509-1.052
			s2.516,0.352,3.462,1.052c0.941,0.705,1.769,1.661,2.484,2.874l40.832,66.666H609.042z"/>
		<path clip-path="url(#SVGID_6_)" fill="#808081" d="M156.293,194.459v-33.876h29.3v5.918h-23.278v27.958H156.293z
			 M166.679,175.261h17.447v5.173h-17.447V175.261z"/>
		<rect x="229.971" y="160.583" clip-path="url(#SVGID_6_)" fill="#808081" width="6.021" height="33.876"/>
		<polygon clip-path="url(#SVGID_6_)" fill="#808081" points="293.265,194.459 293.265,166.501 280.177,166.501 280.177,160.583 
			312.373,160.583 312.373,166.501 299.285,166.501 299.285,194.459 		"/>
		<path clip-path="url(#SVGID_6_)" fill="#808081" d="M361.869,169.669v24.79h-5.738v-30.754c0-1.087,0.278-1.949,0.832-2.586
			c0.553-0.639,1.302-0.956,2.25-0.956c0.442,0,0.87,0.094,1.282,0.281c0.41,0.185,0.839,0.495,1.278,0.93l24.324,23.719v-24.791
			h5.736v31.035c0,1.117-0.277,1.989-0.83,2.609c-0.555,0.622-1.274,0.933-2.159,0.933c-0.979,0-1.896-0.42-2.747-1.259
			L361.869,169.669z"/>
		<path clip-path="url(#SVGID_6_)" fill="#808081" d="M437.583,194.459v-33.876h30.82v5.918h-24.796v22.04h24.843v5.918H437.583z
			 M447.969,174.749h19.106v4.984h-19.106V174.749z"/>
		<path clip-path="url(#SVGID_6_)" fill="#808081" d="M513.489,194.459v-5.918h25.84c1.611,0,2.852-0.402,3.722-1.211
			c0.869-0.807,1.305-1.878,1.305-3.216c0-1.491-0.436-2.593-1.305-3.31c-0.87-0.713-2.11-1.071-3.722-1.071h-15.835
			c-1.613,0-3.074-0.24-4.387-0.72c-1.311-0.483-2.418-1.151-3.316-2.006c-0.901-0.854-1.6-1.87-2.089-3.052
			c-0.488-1.181-0.733-2.47-0.733-3.868c0-1.367,0.228-2.632,0.687-3.796c0.457-1.166,1.138-2.168,2.04-3.007
			c0.899-0.839,2.015-1.499,3.341-1.979c1.326-0.482,2.845-0.723,4.554-0.723h24.748v5.918h-24.748c-1.422,0-2.506,0.364-3.25,1.096
			c-0.742,0.729-1.113,1.746-1.113,3.051s0.386,2.315,1.158,3.028c0.777,0.715,1.823,1.072,3.147,1.072h15.765
			c3.534,0,6.203,0.809,8.001,2.424c1.797,1.616,2.698,4.07,2.698,7.362c0,1.429-0.221,2.748-0.658,3.961
			c-0.438,1.211-1.097,2.261-1.974,3.146c-0.878,0.885-1.988,1.578-3.325,2.073c-1.339,0.498-2.907,0.745-4.71,0.745H513.489z"/>
		<path clip-path="url(#SVGID_6_)" fill="#808081" d="M595.133,194.459v-5.918h25.837c1.613,0,2.853-0.402,3.723-1.211
			c0.87-0.807,1.304-1.878,1.304-3.216c0-1.491-0.434-2.593-1.304-3.31c-0.87-0.713-2.109-1.071-3.723-1.071h-15.834
			c-1.613,0-3.074-0.24-4.386-0.72c-1.312-0.483-2.418-1.151-3.317-2.006c-0.902-0.854-1.598-1.87-2.088-3.052
			c-0.489-1.181-0.735-2.47-0.735-3.868c0-1.367,0.229-2.632,0.687-3.796c0.459-1.166,1.139-2.168,2.04-3.007
			c0.9-0.839,2.016-1.499,3.342-1.979c1.327-0.482,2.845-0.723,4.554-0.723h24.748v5.918h-24.748c-1.422,0-2.505,0.364-3.249,1.096
			c-0.744,0.729-1.114,1.746-1.114,3.051s0.386,2.315,1.158,3.028c0.776,0.715,1.823,1.072,3.146,1.072h15.766
			c3.536,0,6.203,0.809,8,2.424c1.798,1.616,2.699,4.07,2.699,7.362c0,1.429-0.219,2.748-0.657,3.961
			c-0.438,1.211-1.098,2.261-1.975,3.146c-0.878,0.885-1.987,1.578-3.325,2.073c-1.339,0.498-2.907,0.745-4.711,0.745H595.133z"/>
		<path clip-path="url(#SVGID_6_)" fill="#828181" d="M46.677,84.578c-6.056,13.04-11.779,25.352-13.164,37.438
			c-2.785,24.355,13.44,41.291,14.134,42l8.006,8.203c-16.798-3.752-45.472-14.975-55.312-48.184
			c7.329,65.941,75.796,68.924,75.796,68.924s-1.925-17.369,15.971-34.086c10.785-10.074,35.831-28.084,38.802-57.771
			c2.908-29.052-22.074-48.251-31.638-54.48c9.429,8.886,19.59,22.799,17.809,40.556c-2.377,23.765-20.296,39.515-32.15,49.938
			c-1.837,1.615-3.509,3.085-4.939,4.419c-12.9,12.056-16.523,24.55-17.462,31.946c-0.765-0.109-1.61-0.244-2.498-0.402
			c-0.001,0.496,0.008,0.768,0.008,0.768s-0.312-0.322-0.821-0.916c-0.476-0.086-0.926-0.164-1.43-0.264l-0.063-1.572
			c-4.162-5.412-12.302-18.381-10.393-35.088c3.09-26.989,31.029-58.58,27.353-90.664C71.449,17.059,45.73,0,45.73,0
			s0.125,0.604,0.275,1.618c6.423,7.225,13.362,17.808,14.863,30.903C62.843,49.796,54.626,67.477,46.677,84.578"/>
	</g>
</g>
</svg>
