<?xml version="1.0" encoding="utf-8"?>
<!-- Generator: Adobe Illustrator 15.1.0, SVG Export Plug-In  -->
<!DOCTYPE svg PUBLIC "-//W3C//DTD SVG 1.1//EN" "http://www.w3.org/Graphics/SVG/1.1/DTD/svg11.dtd" [
	<!ENTITY ns_flows "http://ns.adobe.com/Flows/1.0/">
]>
<svg version="1.1"
	 xmlns="http://www.w3.org/2000/svg" xmlns:xlink="http://www.w3.org/1999/xlink" xmlns:a="http://ns.adobe.com/AdobeSVGViewerExtensions/3.0/"
	 x="0px" y="0px" width="183px" height="41px" viewBox="0 0 183 41" enable-background="new 0 0 183 41" xml:space="preserve">
<defs>
</defs>
<path fill="#DCDCDC" d="M72.374,17.873c-0.12-2.256-0.264-4.969-0.24-6.985h-0.072c-0.552,1.896-1.224,3.913-2.041,6.145
	l-2.856,7.849h-1.584l-2.616-7.705c-0.768-2.28-1.416-4.368-1.872-6.289h-0.048c-0.048,2.016-0.168,4.729-0.312,7.153l-0.432,6.937
	h-1.992L59.437,8.8h2.665l2.76,7.825c0.672,1.992,1.224,3.768,1.632,5.448h0.072c0.408-1.632,0.984-3.408,1.704-5.448L71.15,8.8
	h2.664l1.008,16.177h-2.041L72.374,17.873z"/>
<path fill="#DCDCDC" d="M78.084,13.36l2.544,6.865c0.264,0.768,0.552,1.68,0.744,2.376h0.048c0.216-0.696,0.456-1.584,0.744-2.424
	l2.304-6.817h2.232l-3.168,8.281c-1.512,3.984-2.544,6.024-3.984,7.272c-1.032,0.912-2.064,1.271-2.592,1.368l-0.528-1.776
	c0.528-0.168,1.224-0.504,1.848-1.032c0.576-0.456,1.296-1.272,1.776-2.353c0.096-0.216,0.168-0.384,0.168-0.504
	s-0.048-0.288-0.144-0.552L75.78,13.36H78.084z"/>
<path fill="#DCDCDC" d="M101.629,17.873c-0.12-2.256-0.265-4.969-0.24-6.985h-0.072c-0.552,1.896-1.224,3.913-2.04,6.145
	l-2.856,7.849h-1.584l-2.616-7.705c-0.768-2.28-1.416-4.368-1.872-6.289H90.3c-0.048,2.016-0.168,4.729-0.312,7.153l-0.432,6.937
	h-1.992L88.692,8.8h2.665l2.76,7.825c0.672,1.992,1.224,3.768,1.632,5.448h0.072c0.408-1.632,0.984-3.408,1.704-5.448l2.88-7.825
	h2.665l1.008,16.177h-2.04L101.629,17.873z"/>
<path fill="#DCDCDC" d="M107.484,19.553c0.048,2.856,1.872,4.032,3.984,4.032c1.512,0,2.424-0.264,3.216-0.6l0.36,1.512
	c-0.744,0.337-2.017,0.721-3.864,0.721c-3.577,0-5.713-2.353-5.713-5.857c0-3.504,2.064-6.264,5.448-6.264
	c3.793,0,4.801,3.336,4.801,5.472c0,0.432-0.048,0.768-0.072,0.984H107.484z M113.676,18.041c0.023-1.344-0.553-3.433-2.929-3.433
	c-2.136,0-3.072,1.968-3.24,3.433H113.676z"/>
<path fill="#DCDCDC" d="M127.836,7.936v14.042c0,1.032,0.023,2.208,0.096,3h-1.896l-0.097-2.017h-0.048
	c-0.648,1.297-2.064,2.28-3.96,2.28c-2.809,0-4.969-2.376-4.969-5.904c-0.024-3.864,2.376-6.24,5.208-6.24
	c1.776,0,2.977,0.84,3.505,1.776h0.048V7.936H127.836z M125.724,18.089c0-0.264-0.024-0.624-0.096-0.888
	c-0.313-1.344-1.465-2.448-3.049-2.448c-2.184,0-3.48,1.92-3.48,4.489c0,2.352,1.152,4.296,3.433,4.296
	c1.416,0,2.712-0.936,3.097-2.52c0.071-0.288,0.096-0.576,0.096-0.912V18.089z"/>
<path fill="#DCDCDC" d="M133.043,10.096c0.023,0.72-0.504,1.296-1.345,1.296c-0.743,0-1.271-0.576-1.271-1.296
	c0-0.744,0.552-1.32,1.32-1.32C132.54,8.776,133.043,9.352,133.043,10.096z M130.691,24.978V13.36h2.112v11.617H130.691z"/>
<path fill="#DCDCDC" d="M141.923,24.978l-0.168-1.464h-0.072c-0.647,0.912-1.896,1.728-3.552,1.728
	c-2.353,0-3.553-1.656-3.553-3.336c0-2.808,2.496-4.344,6.984-4.32v-0.24c0-0.96-0.264-2.688-2.64-2.688
	c-1.08,0-2.208,0.336-3.024,0.864l-0.48-1.392c0.961-0.624,2.353-1.032,3.816-1.032c3.553,0,4.417,2.424,4.417,4.752v4.344
	c0,1.008,0.048,1.992,0.191,2.784H141.923z M141.612,19.049c-2.305-0.048-4.921,0.36-4.921,2.616c0,1.368,0.912,2.017,1.992,2.017
	c1.513,0,2.473-0.96,2.809-1.944c0.071-0.216,0.12-0.456,0.12-0.672V19.049z"/>
<path fill="#DCDCDC" d="M152.581,8.992c1.008-0.168,2.328-0.312,4.008-0.312c2.064,0,3.577,0.48,4.537,1.344
	c0.888,0.768,1.416,1.944,1.416,3.384c0,1.464-0.433,2.616-1.248,3.456c-1.104,1.176-2.904,1.776-4.944,1.776
	c-0.624,0-1.2-0.024-1.681-0.144v6.48h-2.088V8.992z M154.668,16.793c0.456,0.12,1.032,0.168,1.729,0.168
	c2.521,0,4.057-1.224,4.057-3.457c0-2.136-1.513-3.168-3.816-3.168c-0.912,0-1.608,0.072-1.969,0.168V16.793z"/>
<path fill="#DCDCDC" d="M164.701,16.985c0-1.368-0.023-2.544-0.096-3.625h1.848l0.072,2.28h0.096
	c0.528-1.56,1.801-2.544,3.217-2.544c0.24,0,0.408,0.024,0.6,0.072v1.992c-0.216-0.048-0.432-0.072-0.72-0.072
	c-1.488,0-2.544,1.128-2.832,2.712c-0.048,0.288-0.097,0.624-0.097,0.984v6.192h-2.088V16.985z"/>
<path fill="#DCDCDC" d="M182.749,19.073c0,4.296-2.976,6.168-5.784,6.168c-3.145,0-5.568-2.304-5.568-5.976
	c0-3.888,2.544-6.168,5.761-6.168C180.493,13.097,182.749,15.521,182.749,19.073z M173.532,19.193c0,2.544,1.465,4.464,3.528,4.464
	c2.017,0,3.528-1.896,3.528-4.512c0-1.968-0.983-4.464-3.479-4.464C174.612,14.681,173.532,16.985,173.532,19.193z"/>
<path fill="#DCDCDC" d="M60.148,31.24l1.634,3.438c0.207,0.479,0.402,0.946,0.597,1.426h0.024c0.146-0.419,0.305-0.887,0.512-1.462
	l1.28-3.401h1.122l-1.719,4.145c-0.451,1.078-0.963,2.312-1.536,3.066c-0.537,0.658-1.134,0.994-1.865,0.994
	c-0.269,0-0.463-0.024-0.598-0.072l0.11-0.851c0.085,0.024,0.207,0.036,0.39,0.036c0.854-0.012,1.354-0.814,1.609-1.39
	c0.085-0.18,0.061-0.299-0.037-0.49l-2.731-5.438H60.148z"/>
<path fill="#DCDCDC" d="M75.927,35.768c-0.061-1.126-0.134-2.479-0.122-3.485h-0.037c-0.28,0.946-0.622,1.952-1.036,3.066
	l-1.451,3.917h-0.805l-1.329-3.845c-0.39-1.139-0.719-2.181-0.951-3.139h-0.024c-0.024,1.006-0.085,2.359-0.159,3.569l-0.219,3.462
	h-1.012l0.573-8.073h1.353l1.402,3.905c0.341,0.994,0.622,1.88,0.829,2.719h0.036c0.208-0.814,0.5-1.701,0.866-2.719l1.463-3.905
	h1.354l0.512,8.073h-1.037L75.927,35.768z"/>
<path fill="#DCDCDC" d="M82.66,31.24v3.378h3.975V31.24h1.073v8.073h-1.073v-3.785H82.66v3.785h-1.061V31.24H82.66z"/>
<path fill="#DCDCDC" d="M93.416,31.24v3.019c0.244-0.036,0.707-0.06,0.975-0.06c1.695,0,3.17,0.73,3.17,2.527
	c0,0.742-0.244,1.293-0.634,1.713c-0.671,0.694-1.816,0.946-2.926,0.946c-0.731,0-1.292-0.048-1.646-0.097V31.24H93.416z
	 M93.416,38.511c0.219,0.048,0.488,0.061,0.854,0.061c1.17,0,2.182-0.587,2.182-1.81c0-1.257-1.098-1.736-2.194-1.736
	c-0.39,0-0.707,0.036-0.841,0.06V38.511z M99.548,31.24v8.073h-1.073V31.24H99.548z"/>
<path fill="#DCDCDC" d="M105.257,31.24v3.401c0,1.282-0.024,2.336-0.098,3.414l0.024,0.012c0.414-0.838,0.926-1.713,1.523-2.671
	l2.658-4.156h1.061v8.073h-1v-3.438c0-1.306,0.013-2.264,0.098-3.282l-0.036-0.012c-0.402,0.886-0.964,1.82-1.524,2.719
	l-2.572,4.013h-1.134V31.24H105.257z M106.598,29.552c0.049,0.371,0.171,0.742,0.743,0.742c0.562,0,0.695-0.348,0.744-0.742h0.816
	c-0.061,0.79-0.548,1.281-1.585,1.281c-0.999,0-1.475-0.491-1.536-1.281H106.598z"/>
<path fill="#DCDCDC" d="M131.561,31.24v7.223l0.72,0.024l-0.073,2.767h-0.829l-0.073-1.94h-5.182l-0.073,1.94h-0.829l-0.073-2.767
	l0.622-0.024c0.305-0.551,0.609-1.138,0.805-1.772c0.28-0.935,0.39-2.013,0.39-3.402V31.24H131.561z M127.953,33.624
	c0,1.294-0.122,2.384-0.415,3.294c-0.171,0.563-0.427,1.102-0.67,1.533h3.633v-6.349h-2.548V33.624z"/>
<path fill="#DCDCDC" d="M137.428,31.24v3.401c0,1.282-0.024,2.336-0.098,3.414l0.024,0.012c0.414-0.838,0.926-1.713,1.523-2.671
	l2.658-4.156h1.061v8.073h-1v-3.438c0-1.306,0.013-2.264,0.098-3.282l-0.036-0.012c-0.402,0.886-0.964,1.82-1.524,2.719
	l-2.572,4.013h-1.134V31.24H137.428z"/>
<path fill="#DCDCDC" d="M146.941,31.72c0.561-0.359,1.28-0.611,2.17-0.611c1.427,0,2.414,0.73,2.414,1.977
	c0,0.994-0.731,1.749-1.694,1.964v0.024c1.158,0.12,1.999,0.862,1.999,2.024c0,1.677-1.475,2.348-2.975,2.348
	c-0.743,0-1.523-0.156-2.146-0.527l0.28-0.814c0.439,0.252,1.171,0.491,1.841,0.491c1.22,0,1.89-0.646,1.89-1.533
	c0-1.21-1.183-1.557-2.23-1.557h-0.488v-0.791h0.488c1.085,0,1.926-0.659,1.926-1.485c0-0.814-0.585-1.27-1.475-1.27
	c-0.622,0-1.269,0.251-1.707,0.527L146.941,31.72z"/>
<path fill="#DCDCDC" d="M157.379,36.774l-0.854,2.539h-1.098l2.792-8.073h1.28l2.804,8.073h-1.134l-0.878-2.539H157.379z
	 M160.074,35.96l-0.805-2.324c-0.184-0.527-0.305-1.006-0.427-1.474h-0.024c-0.122,0.479-0.256,0.971-0.415,1.462l-0.805,2.336
	H160.074z"/>
<path fill="#DCDCDC" d="M167.319,31.24v3.401c0,1.282-0.024,2.336-0.098,3.414l0.024,0.012c0.414-0.838,0.926-1.713,1.523-2.671
	l2.658-4.156h1.061v8.073h-1v-3.438c0-1.306,0.013-2.264,0.098-3.282l-0.036-0.012c-0.402,0.886-0.964,1.82-1.524,2.719
	l-2.572,4.013h-1.134V31.24H167.319z M168.66,29.552c0.049,0.371,0.171,0.742,0.743,0.742c0.562,0,0.695-0.348,0.744-0.742h0.816
	c-0.061,0.79-0.548,1.281-1.585,1.281c-0.999,0-1.475-0.491-1.536-1.281H168.66z"/>
<path fill="#DCDCDC" d="M178.208,31.24v3.378h3.975V31.24h1.072v8.073h-1.072v-3.785h-3.975v3.785h-1.061V31.24H178.208z"/>
<polygon fill="#DCDCDC" points="37,0 24,6.831 24,23.711 37,16.88 "/>
<polygon fill="#DCDCDC" points="14,0 0,8.304 0,39.356 14,30.749 "/>
<polygon fill="#DCDCDC" points="37,0 37,31.087 49,39.356 49,8.136 "/>
<polygon fill="#DCDCDC" points="14,0 14,16.88 24,23.711 24,6.831 "/>
</svg>
