<?xml version="1.0" encoding="utf-8"?>
<!-- Generator: Adobe Illustrator 15.1.0, SVG Export Plug-In  -->
<!DOCTYPE svg PUBLIC "-//W3C//DTD SVG 1.1//EN" "http://www.w3.org/Graphics/SVG/1.1/DTD/svg11.dtd" [
	<!ENTITY ns_flows "http://ns.adobe.com/Flows/1.0/">
]>
<svg version="1.1"
	 xmlns="http://www.w3.org/2000/svg" xmlns:xlink="http://www.w3.org/1999/xlink" xmlns:a="http://ns.adobe.com/AdobeSVGViewerExtensions/3.0/"
	 x="0px" y="0px" width="1000px" height="1000px" viewBox="-16.185 -2.5 1000 1000" enable-background="new -16.185 -2.5 1000 1000"
	 xml:space="preserve">
<defs>
</defs>
<path fill="#FFFFFF" d="M40.824,30.766v-9.856c0-3.711,2.452-4.571,4.175-4.571c1.713,0,10.567,0,10.567,0V0.058L41.003,0
	C24.841,0,21.166,12.14,21.166,19.911v10.854h-9.35v16.767h9.35c0,21.536,0,47.468,0,47.468h19.658c0,0,0-26.197,0-47.468h13.27
	l1.722-16.767H40.824z"/>
<path fill="#FFFFFF" d="M255.739,80.817c-0.398-0.67-2.817-6.054-14.502-17.113c-12.224-11.583-10.582-9.711,4.146-29.736
	c8.966-12.198,12.548-19.649,11.43-22.844c-1.068-3.032-7.667-2.231-7.667-2.231l-21.949,0.14c0,0-1.625-0.227-2.836,0.504
	c-1.176,0.727-1.934,2.411-1.934,2.411s-3.477,9.433-8.11,17.465c-9.77,16.941-13.68,17.841-15.28,16.782
	c-3.715-2.448-2.785-9.841-2.785-15.099c0-16.416,2.432-23.261-4.761-25.03c-2.377-0.593-4.148-0.982-10.251-1.046
	c-7.826-0.08-14.455,0.032-18.208,1.9c-2.499,1.253-4.426,4.033-3.244,4.196c1.447,0.197,4.732,0.905,6.472,3.325
	c2.247,3.119,2.167,10.135,2.167,10.135s1.291,19.32-3.014,21.728c-2.967,1.642-7.021-1.722-15.732-17.089
	c-4.461-7.868-7.839-16.575-7.839-16.575s-0.653-1.623-1.807-2.494c-1.409-1.055-3.378-1.387-3.378-1.387l-20.856,0.134
	c0,0-3.132,0.096-4.279,1.485c-1.026,1.234-0.08,3.794-0.08,3.794s16.325,38.992,34.814,58.637
	c16.965,18.021,36.226,16.834,36.226,16.834h8.718c0,0,2.635-0.293,3.983-1.772c1.246-1.361,1.205-3.912,1.205-3.912
	s-0.172-11.953,5.261-13.709c5.357-1.74,12.24,11.554,19.528,16.655c5.514,3.858,9.707,3.02,9.707,3.02l19.499-0.281
	C250.379,89.642,260.577,89.002,255.739,80.817z"/>
<polygon fill="#FFFFFF" points="362.927,19.474 362.927,8.595 357.485,8.595 357.485,19.474 346.609,19.474 346.609,24.91 
	357.485,24.91 357.485,35.784 362.927,35.784 362.927,24.91 373.815,24.91 373.815,19.474 "/>
<path fill="#FFFFFF" d="M344.711,7.5c0,0-17.422,0-23.598,0c-11.974,0-21.953,8.828-21.953,18.537c0,9.909,6.562,17.82,17.817,17.82
	c0.784,0,1.542-0.049,2.286-0.097c-0.729,1.396-1.252,2.96-1.252,4.599c0,2.755,1.515,4.326,3.394,6.145
	c-1.416,0-2.783,0.041-4.279,0.041c-13.712,0-23.31,9.43-23.31,18.472c0,8.92,11.573,14.483,25.281,14.483
	c15.627,0,25.246-8.856,25.246-17.772c0-7.138-1.548-10.731-9.168-16.446c-2.189-1.639-6.947-4.999-6.947-7.255
	c0-2.646,0.75-3.945,4.738-7.062c4.083-3.181,6.97-7.382,6.97-12.596c0-5.686-2.319-10.834-6.696-13.334h6.195L344.711,7.5z
	 M336.708,68.195c0.199,0.819,0.302,1.67,0.302,2.537c0,7.21-4.639,12.835-17.958,12.835c-9.483,0-16.324-6-16.324-13.195
	c0-7.06,8.025-13.146,17.505-13.038c2.209,0.02,4.27,0.371,6.136,0.978C331.521,61.888,335.662,64.121,336.708,68.195z
	 M321.543,40.254c-6.363-0.195-12.415-6.022-13.509-14.374c-1.102-8.342,3.168-14.726,9.53-14.54
	c6.35,0.195,11.795,7.039,12.89,15.382C331.549,35.07,327.894,40.439,321.543,40.254z"/>
<path fill="#FFFFFF" d="M459.037,50.723c-1.236-2.502-4.657-4.575-9.209-0.97c-6.145,4.874-16.013,4.874-16.013,4.874
	s-9.87,0-16.017-4.874c-4.552-3.604-7.969-1.532-9.205,0.97c-2.151,4.356,0.279,6.459,5.771,10c4.691,3.034,11.137,4.162,15.3,4.594
	l-3.479,3.494c-4.891,4.921-9.614,9.673-12.889,12.974c-1.956,1.971-1.956,5.166,0,7.137l0.588,0.6c1.96,1.972,5.137,1.972,7.102,0
	l12.885-12.979c4.896,4.932,9.616,9.683,12.895,12.979c1.961,1.972,5.136,1.972,7.098,0l0.588-0.6c1.96-1.971,1.96-5.166,0-7.137
	l-12.895-12.974l-3.479-3.512c4.159-0.43,10.534-1.567,15.19-4.575C458.758,57.182,461.188,55.079,459.037,50.723z"/>
<path fill="#FFFFFF" d="M433.815,48.035c12.078,0,21.883-9.853,21.883-22.017S445.894,4,433.815,4
	c-12.082,0-21.883,9.853-21.883,22.018S421.733,48.035,433.815,48.035z M433.815,15.189c5.945,0,10.765,4.848,10.765,10.829
	c0,5.984-4.819,10.829-10.765,10.829s-10.765-4.844-10.765-10.829C423.051,20.037,427.87,15.189,433.815,15.189z"/>
<g>
	<g>
		<path fill="#EF5A2C" d="M580.11,14.644c-0.945-1.082-2.298-1.705-3.731-1.705h-68.192l-0.968-5.747
			c-0.392-2.379-2.45-4.127-4.862-4.127H491.25c-2.729,0-4.935,2.206-4.935,4.937c0,2.732,2.206,4.938,4.935,4.938h6.926
			l9.181,55.12c0.036,0.222,0.15,0.404,0.223,0.612c0.077,0.259,0.141,0.505,0.263,0.747c0.159,0.323,0.371,0.599,0.592,0.883
			c0.156,0.187,0.294,0.38,0.471,0.554c0.284,0.267,0.616,0.453,0.952,0.637c0.188,0.106,0.35,0.246,0.553,0.324
			c0.571,0.234,1.176,0.371,1.811,0.371c0.006,0,54.289,0,54.289,0c2.73,0,4.936-2.208,4.936-4.938c0-2.729-2.205-4.938-4.936-4.938
			h-50.103l-0.819-4.936h55.857c2.46,0,4.539-1.809,4.887-4.233l4.935-34.563C581.47,17.155,581.044,15.718,580.11,14.644z
			 M527.03,47.499h-13.093l-1.644-9.873h14.736V47.499z M527.03,32.688h-14.805c-0.263,0-0.5,0.075-0.729,0.148l-1.667-10.022
			h17.201V32.688z M546.77,47.499h-14.804v-9.873h14.804V47.499z M546.77,32.688h-14.804v-9.874h14.804V32.688z M567.164,47.499
			h-15.46v-9.873h16.867L567.164,47.499z M569.286,32.688h-17.582v-9.874h18.989L569.286,32.688z M519.626,77.123
			c-4.088,0-7.4,3.317-7.4,7.405c0,4.088,3.313,7.407,7.4,7.407c4.091,0,7.404-3.319,7.404-7.407
			C527.03,80.44,523.717,77.123,519.626,77.123z M564.044,77.123c-4.089,0-7.404,3.317-7.404,7.405c0,4.088,3.315,7.407,7.404,7.407
			c4.084,0,7.4-3.319,7.4-7.407C571.444,80.44,568.128,77.123,564.044,77.123z"/>
	</g>
</g>
<path fill="#898989" d="M679.254,83.009l-12.94-12.944c5.271-7.28,8.39-16.212,8.39-25.869C674.703,19.827,654.88,0,630.512,0
	s-44.196,19.827-44.196,44.196s19.828,44.196,44.196,44.196c9.654,0,18.588-3.119,25.864-8.393l12.946,12.947
	c1.369,1.371,3.172,2.053,4.97,2.053c1.797,0,3.594-0.682,4.962-2.053C682.002,90.202,682.002,85.754,679.254,83.009z
	 M630.512,74.344c-16.622,0-30.148-13.524-30.148-30.147c0-16.621,13.526-30.147,30.148-30.147s30.143,13.527,30.143,30.147
	C660.654,60.82,647.134,74.344,630.512,74.344z"/>
<g>
	<g>
		<path fill-rule="evenodd" clip-rule="evenodd" fill="#F0552A" d="M733.815,0c-18.502,0-33.5,15.124-33.5,33.777
			c0,18.656,33.5,61.223,33.5,61.223s33.5-42.567,33.5-61.223C767.315,15.124,752.313,0,733.815,0z M733.815,54.888
			c-10.986,0-19.89-8.978-19.89-20.055c0-11.078,8.903-20.057,19.89-20.057c10.983,0,19.89,8.979,19.89,20.057
			C753.705,45.911,744.799,54.888,733.815,54.888z"/>
	</g>
</g>
<g>
	<g>
		<path fill="#2A6396" d="M934.487,3.653c-25.641,0-46.5,20.86-46.5,46.5c0,25.641,20.859,46.5,46.5,46.5
			c10.979,0,21.646-3.923,30.037-11.042c1.68-1.422,1.883-3.935,0.461-5.612c-1.426-1.677-3.938-1.884-5.613-0.461
			c-6.955,5.9-15.793,9.15-24.885,9.15c-21.248,0-38.535-17.286-38.535-38.535s17.287-38.536,38.535-38.536
			s38.537,17.287,38.537,38.536c0,6.885-1.855,13.654-5.363,19.573c-1.123,1.893-0.5,4.335,1.395,5.456
			c1.895,1.122,4.336,0.496,5.457-1.396c4.236-7.149,6.475-15.321,6.475-23.634C980.987,24.514,960.13,3.653,934.487,3.653z
			 M934.345,39.119c-1.648,0-2.945,0.567-3.895,1.705s-1.424,2.557-1.424,4.257v26.254c0,1.688,0.482,3.117,1.439,4.284
			c0.965,1.167,2.254,1.75,3.879,1.75c1.686,0,3.004-0.573,3.957-1.724c0.955-1.148,1.432-2.586,1.432-4.311V45.081
			c0-1.7-0.482-3.119-1.451-4.257C937.319,39.687,936.005,39.119,934.345,39.119z M939.841,26.12
			c-0.555-0.971-1.309-1.744-2.26-2.319c-0.947-0.575-1.98-0.864-3.094-0.864c-1.693,0-3.152,0.628-4.365,1.881
			c-1.217,1.252-1.822,2.735-1.822,4.45c0,1.703,0.605,3.184,1.822,4.441c1.213,1.26,2.672,1.89,4.365,1.89
			c1.695,0,3.152-0.63,4.365-1.89c1.217-1.258,1.824-2.738,1.824-4.441C940.677,28.142,940.399,27.092,939.841,26.12z"/>
	</g>
</g>
<g>
	<g>
		<path fill="#FFFFFF" d="M933.142,2.347c-25.641,0-46.498,20.859-46.498,46.5c0,25.64,20.857,46.5,46.498,46.5
			c10.98,0,21.646-3.923,30.037-11.042c1.68-1.422,1.883-3.935,0.463-5.612c-1.426-1.678-3.938-1.884-5.613-0.462
			c-6.955,5.901-15.793,9.15-24.887,9.15c-21.248,0-38.535-17.285-38.535-38.534s17.287-38.536,38.535-38.536
			s38.537,17.287,38.537,38.536c0,6.885-1.854,13.653-5.363,19.572c-1.121,1.894-0.498,4.335,1.395,5.457
			c1.895,1.121,4.336,0.495,5.457-1.396c4.238-7.149,6.477-15.32,6.477-23.633C979.644,23.206,958.784,2.347,933.142,2.347z
			 M933.001,37.812c-1.65,0-2.947,0.568-3.896,1.705c-0.949,1.139-1.422,2.557-1.422,4.257v26.255c0,1.688,0.48,3.116,1.439,4.283
			c0.963,1.167,2.254,1.751,3.879,1.751c1.684,0,3.004-0.574,3.957-1.725c0.953-1.147,1.43-2.586,1.43-4.31V43.773
			c0-1.7-0.482-3.118-1.449-4.257C935.976,38.38,934.659,37.812,933.001,37.812z M938.495,24.813
			c-0.555-0.97-1.309-1.744-2.258-2.319s-1.98-0.863-3.096-0.863c-1.693,0-3.15,0.627-4.365,1.881
			c-1.217,1.252-1.822,2.735-1.822,4.449c0,1.703,0.605,3.185,1.822,4.442c1.215,1.259,2.672,1.889,4.365,1.889
			c1.695,0,3.154-0.63,4.365-1.889c1.217-1.258,1.824-2.739,1.824-4.442C939.331,26.834,939.054,25.784,938.495,24.813z"/>
	</g>
</g>
<path fill="#2C679B" d="M64.872,171.487c-3.336-5.671-14.416-10.767-18.229-10.767c-0.792,0-1.498,0.179-2.102,0.529
	c-1.571,0.912-2.967,2.06-4.154,3.399c-3.5-3.822-6.685-8.158-9.496-12.936c-2.86-4.86-5.196-9.997-6.847-15.046
	c1.722-0.372,3.379-1.013,4.912-1.902c1.649-0.959,3.123-2.199,4.38-3.686c0.409-0.48,0.666-1.068,0.737-1.692
	c0.636-5.52-0.83-11.647-4.127-17.249c-1.764-2.992-3.931-5.619-6.446-7.809c-0.528-0.463-1.194-0.74-1.894-0.788
	c-3.367-0.236-6.778,0.553-9.693,2.247c-0.108,0.063-0.212,0.132-0.316,0.202l-0.016,0.007c-0.126,0.067-0.252,0.133-0.395,0.213
	c-13.754,7.992-13.555,32.894,0.448,56.692C22.405,181.203,38.55,193.5,51.807,193.5h0.002c3.432,0,6.573-0.813,9.328-2.413
	c2.85-1.656,5.162-4.093,6.872-7.246c0.156-0.288,0.257-0.592,0.308-0.907c0.005-0.008,0.007-0.015,0.009-0.021
	c0.298-0.628,0.379-1.334,0.237-2.014C67.877,177.647,66.633,174.479,64.872,171.487z M61.897,181.584
	c-1.075,1.729-2.419,3.066-4.007,3.987c-1.756,1.021-3.802,1.541-6.082,1.541h-0.002c-10.878-0.002-25.116-11.285-34.62-27.436
	c-11.78-20.015-13.039-41.973-2.774-47.939l0.355-0.186c0.051-0.029,0.101-0.058,0.149-0.086c0.088-0.053,0.175-0.114,0.234-0.156
	c1.507-0.876,3.209-1.364,4.945-1.415c1.644,1.577,3.088,3.411,4.298,5.467c2.361,4.008,3.562,8.436,3.371,12.309
	c-0.625,0.618-1.313,1.146-2.055,1.577c-1.722,1.001-3.713,1.481-5.713,1.403c-1.01-0.052-1.998,0.397-2.639,1.188
	c-0.641,0.786-0.866,1.835-0.608,2.814c1.804,6.839,4.694,13.664,8.589,20.285c3.805,6.46,8.255,12.193,13.231,17.043
	c0.734,0.718,1.771,1.041,2.788,0.87c1.018-0.17,1.889-0.815,2.345-1.734c0.787-1.585,1.959-2.931,3.41-3.928
	c2.602,0.58,10.21,4.128,12.208,7.521c1.222,2.074,2.126,4.239,2.701,6.451C61.969,181.301,61.929,181.443,61.897,181.584z"/>
<path fill="#FFFFFF" d="M63.872,170.487c-3.336-5.671-14.416-10.767-18.229-10.767c-0.792,0-1.498,0.179-2.102,0.529
	c-1.571,0.912-2.967,2.06-4.154,3.399c-3.5-3.822-6.685-8.158-9.496-12.936c-2.86-4.86-5.196-9.997-6.847-15.046
	c1.722-0.372,3.379-1.013,4.912-1.902c1.649-0.959,3.123-2.199,4.38-3.686c0.409-0.48,0.666-1.068,0.737-1.692
	c0.636-5.52-0.83-11.647-4.127-17.249c-1.764-2.992-3.931-5.619-6.446-7.809c-0.528-0.463-1.194-0.74-1.894-0.788
	c-3.367-0.236-6.778,0.553-9.693,2.247c-0.108,0.063-0.212,0.132-0.316,0.202l-0.016,0.007c-0.126,0.067-0.252,0.133-0.395,0.213
	c-13.754,7.992-13.555,32.894,0.448,56.692C21.405,180.203,37.55,192.5,50.807,192.5h0.002c3.432,0,6.573-0.813,9.328-2.413
	c2.85-1.656,5.162-4.093,6.872-7.246c0.156-0.288,0.257-0.592,0.308-0.907c0.005-0.008,0.007-0.015,0.009-0.021
	c0.298-0.628,0.379-1.334,0.237-2.014C66.877,176.647,65.633,173.479,63.872,170.487z M60.897,180.584
	c-1.075,1.729-2.419,3.066-4.007,3.987c-1.756,1.021-3.802,1.541-6.082,1.541h-0.002c-10.878-0.002-25.116-11.285-34.62-27.436
	c-11.78-20.015-13.039-41.973-2.774-47.939l0.355-0.186c0.051-0.029,0.101-0.058,0.149-0.086c0.088-0.053,0.175-0.114,0.234-0.156
	c1.507-0.876,3.209-1.364,4.945-1.415c1.644,1.577,3.088,3.411,4.298,5.467c2.361,4.008,3.562,8.436,3.371,12.309
	c-0.625,0.618-1.313,1.146-2.055,1.577c-1.722,1.001-3.713,1.481-5.713,1.403c-1.01-0.052-1.998,0.397-2.639,1.188
	c-0.641,0.786-0.866,1.835-0.608,2.814c1.804,6.839,4.694,13.664,8.589,20.285c3.805,6.46,8.255,12.193,13.231,17.043
	c0.734,0.718,1.771,1.041,2.788,0.87c1.018-0.17,1.889-0.815,2.345-1.734c0.787-1.585,1.959-2.931,3.41-3.928
	c2.602,0.58,10.21,4.128,12.208,7.521c1.222,2.074,2.126,4.239,2.701,6.451C60.969,180.301,60.929,180.443,60.897,180.584z"/>
</svg>
