<?xml version="1.0" encoding="utf-8"?>
<!-- Generator: Adobe Illustrator 15.1.0, SVG Export Plug-In  -->
<!DOCTYPE svg PUBLIC "-//W3C//DTD SVG 1.1//EN" "http://www.w3.org/Graphics/SVG/1.1/DTD/svg11.dtd" [
	<!ENTITY ns_flows "http://ns.adobe.com/Flows/1.0/">
]>
<svg version="1.1"
	 xmlns="http://www.w3.org/2000/svg" xmlns:xlink="http://www.w3.org/1999/xlink" xmlns:a="http://ns.adobe.com/AdobeSVGViewerExtensions/3.0/"
	 x="0px" y="0px" width="1000px" height="1000px" viewBox="-16 -2.5 1000 1000" enable-background="new -16 -2.5 1000 1000"
	 xml:space="preserve">
<defs>
</defs>
<path fill="#FFFFFF" d="M40.825,30.766V20.91c0-3.711,2.452-4.571,4.175-4.571c1.713,0,10.567,0,10.567,0V0.058L41.003,0
	C24.841,0,21.167,12.14,21.167,19.911v10.854h-9.35v16.767h9.35c0,21.536,0,47.468,0,47.468h19.658c0,0,0-26.197,0-47.468h13.27
	l1.722-16.767L40.825,30.766L40.825,30.766z"/>
<path fill="#FFFFFF" d="M255.739,80.817c-0.398-0.67-2.817-6.054-14.502-17.113c-12.224-11.583-10.582-9.711,4.146-29.736
	c8.966-12.198,12.548-19.649,11.43-22.844c-1.068-3.032-7.667-2.231-7.667-2.231l-21.949,0.14c0,0-1.625-0.227-2.836,0.504
	c-1.176,0.727-1.934,2.411-1.934,2.411s-3.477,9.433-8.11,17.465c-9.77,16.941-13.68,17.841-15.28,16.782
	c-3.715-2.448-2.785-9.841-2.785-15.099c0-16.416,2.432-23.261-4.761-25.03c-2.377-0.593-4.148-0.982-10.251-1.046
	c-7.826-0.08-14.455,0.032-18.208,1.9c-2.499,1.253-4.426,4.033-3.244,4.196c1.447,0.197,4.732,0.905,6.472,3.325
	c2.247,3.119,2.167,10.135,2.167,10.135s1.291,19.32-3.014,21.728c-2.967,1.642-7.021-1.722-15.732-17.089
	c-4.461-7.868-7.839-16.575-7.839-16.575s-0.653-1.623-1.807-2.494c-1.409-1.055-3.378-1.387-3.378-1.387l-20.856,0.134
	c0,0-3.132,0.096-4.279,1.485c-1.026,1.234-0.08,3.794-0.08,3.794s16.325,38.992,34.814,58.637
	c16.965,18.021,36.226,16.834,36.226,16.834h8.718c0,0,2.635-0.293,3.983-1.772c1.246-1.361,1.205-3.912,1.205-3.912
	s-0.172-11.953,5.261-13.709c5.357-1.74,12.24,11.554,19.528,16.655c5.514,3.858,9.707,3.02,9.707,3.02l19.499-0.281
	C250.379,89.642,260.578,89.002,255.739,80.817z"/>
<polygon fill="#FFFFFF" points="362.927,19.474 362.927,8.595 357.486,8.595 357.486,19.474 346.61,19.474 346.61,24.91 
	357.486,24.91 357.486,35.784 362.927,35.784 362.927,24.91 373.816,24.91 373.816,19.474 "/>
<path fill="#FFFFFF" d="M344.711,7.5c0,0-17.422,0-23.598,0c-11.975,0-21.953,8.828-21.953,18.537c0,9.909,6.562,17.82,17.816,17.82
	c0.784,0,1.542-0.049,2.286-0.097c-0.729,1.396-1.252,2.96-1.252,4.599c0,2.755,1.516,4.326,3.395,6.145
	c-1.416,0-2.783,0.041-4.279,0.041c-13.712,0-23.31,9.43-23.31,18.472c0,8.92,11.573,14.483,25.281,14.483
	c15.627,0,25.246-8.856,25.246-17.772c0-7.138-1.548-10.731-9.168-16.446c-2.188-1.639-6.946-4.999-6.946-7.255
	c0-2.646,0.75-3.945,4.737-7.062c4.083-3.181,6.97-7.382,6.97-12.596c0-5.686-2.318-10.834-6.695-13.334h6.194L344.711,7.5z
	 M336.708,68.195c0.199,0.819,0.302,1.67,0.302,2.537c0,7.21-4.639,12.835-17.958,12.835c-9.482,0-16.324-6-16.324-13.195
	c0-7.06,8.025-13.146,17.506-13.038c2.209,0.02,4.27,0.371,6.136,0.978C331.522,61.888,335.663,64.121,336.708,68.195z
	 M321.543,40.254c-6.363-0.195-12.415-6.022-13.509-14.374c-1.103-8.342,3.168-14.726,9.53-14.54
	c6.35,0.195,11.795,7.039,12.89,15.382C331.549,35.07,327.894,40.439,321.543,40.254z"/>
<path fill="#FFFFFF" d="M459.038,50.723c-1.236-2.502-4.657-4.575-9.209-0.97c-6.146,4.874-16.013,4.874-16.013,4.874
	s-9.87,0-16.018-4.874c-4.552-3.604-7.969-1.532-9.205,0.97c-2.15,4.356,0.279,6.459,5.771,10c4.69,3.034,11.137,4.162,15.3,4.594
	l-3.479,3.494c-4.891,4.921-9.613,9.673-12.889,12.974c-1.956,1.971-1.956,5.166,0,7.137l0.588,0.6c1.96,1.972,5.138,1.972,7.103,0
	l12.885-12.979c4.896,4.932,9.616,9.683,12.895,12.979c1.961,1.972,5.137,1.972,7.099,0l0.588-0.6c1.96-1.971,1.96-5.166,0-7.137
	l-12.896-12.974l-3.479-3.512c4.159-0.43,10.534-1.567,15.189-4.575C458.758,57.182,461.188,55.079,459.038,50.723z"/>
<path fill="#FFFFFF" d="M433.816,48.035c12.077,0,21.883-9.853,21.883-22.017S445.894,4,433.816,4
	c-12.082,0-21.884,9.853-21.884,22.018S421.734,48.035,433.816,48.035z M433.816,15.189c5.944,0,10.765,4.848,10.765,10.829
	c0,5.984-4.819,10.829-10.765,10.829c-5.946,0-10.766-4.844-10.766-10.829C423.051,20.037,427.871,15.189,433.816,15.189z"/>
<path fill="#F05B2C" d="M580.11,14.644c-0.945-1.082-2.298-1.705-3.731-1.705h-68.192l-0.968-5.747
	c-0.392-2.379-2.45-4.127-4.861-4.127H491.25c-2.729,0-4.934,2.206-4.934,4.937c0,2.732,2.205,4.938,4.934,4.938h6.926l9.182,55.12
	c0.035,0.222,0.149,0.404,0.223,0.612c0.077,0.259,0.141,0.505,0.263,0.747c0.159,0.323,0.371,0.599,0.592,0.883
	c0.156,0.188,0.294,0.38,0.472,0.554c0.284,0.267,0.616,0.453,0.952,0.637c0.188,0.106,0.35,0.246,0.553,0.324
	c0.571,0.234,1.176,0.371,1.811,0.371c0.006,0,54.289,0,54.289,0c2.73,0,4.937-2.208,4.937-4.938c0-2.729-2.205-4.938-4.937-4.938
	h-50.103l-0.819-4.936h55.857c2.46,0,4.539-1.809,4.887-4.233l4.935-34.563C581.47,17.155,581.044,15.718,580.11,14.644z
	 M527.03,47.499h-13.093l-1.645-9.873h14.736L527.03,47.499L527.03,47.499z M527.03,32.688h-14.806c-0.263,0-0.5,0.075-0.729,0.148
	l-1.667-10.022h17.201V32.688z M546.77,47.499h-14.804v-9.873h14.804V47.499z M546.77,32.688h-14.804v-9.874h14.804V32.688z
	 M567.164,47.499h-15.46v-9.873h16.867L567.164,47.499z M569.286,32.688h-17.582v-9.874h18.989L569.286,32.688z M519.626,77.123
	c-4.088,0-7.4,3.317-7.4,7.405c0,4.088,3.313,7.407,7.4,7.407c4.091,0,7.404-3.319,7.404-7.407
	C527.03,80.44,523.717,77.123,519.626,77.123z M564.044,77.123c-4.089,0-7.404,3.317-7.404,7.405c0,4.088,3.315,7.407,7.404,7.407
	c4.084,0,7.4-3.319,7.4-7.407C571.444,80.44,568.128,77.123,564.044,77.123z"/>
<path fill="#898989" d="M679.254,83.009l-12.939-12.944c5.271-7.28,8.39-16.212,8.39-25.869C674.703,19.827,654.88,0,630.512,0
	c-24.367,0-44.195,19.827-44.195,44.196c0,24.369,19.828,44.196,44.195,44.196c9.654,0,18.588-3.119,25.864-8.393l12.946,12.947
	c1.369,1.371,3.172,2.053,4.97,2.053c1.797,0,3.594-0.682,4.962-2.053C682.002,90.202,682.002,85.754,679.254,83.009z
	 M630.512,74.344c-16.622,0-30.147-13.524-30.147-30.147c0-16.621,13.525-30.147,30.147-30.147s30.144,13.527,30.144,30.147
	C660.654,60.82,647.134,74.344,630.512,74.344z"/>
<path fill="#F1572A" d="M733.815,0c-18.503,0-33.5,15.124-33.5,33.777c0,18.656,33.5,61.223,33.5,61.223s33.5-42.567,33.5-61.223
	C767.315,15.124,752.313,0,733.815,0z M733.815,54.888c-10.986,0-19.891-8.978-19.891-20.055c0-11.078,8.903-20.057,19.891-20.057
	c10.982,0,19.89,8.979,19.89,20.057S744.799,54.888,733.815,54.888z"/>
<path fill="#2B6497" d="M934.487,3.653c-25.642,0-46.5,20.86-46.5,46.5c0,25.641,20.858,46.5,46.5,46.5
	c10.979,0,21.646-3.923,30.037-11.042c1.68-1.422,1.883-3.935,0.461-5.612c-1.427-1.677-3.938-1.884-5.613-0.461
	c-6.955,5.9-15.793,9.15-24.885,9.15c-21.248,0-38.535-17.286-38.535-38.535s17.287-38.536,38.535-38.536
	s38.537,17.287,38.537,38.536c0,6.885-1.855,13.654-5.363,19.573c-1.123,1.893-0.5,4.335,1.395,5.456
	c1.896,1.122,4.336,0.496,5.457-1.396c4.236-7.149,6.476-15.321,6.476-23.634C980.987,24.514,960.13,3.653,934.487,3.653z
	 M934.345,39.119c-1.647,0-2.944,0.567-3.895,1.705c-0.95,1.138-1.424,2.557-1.424,4.257v26.254c0,1.688,0.481,3.117,1.438,4.284
	c0.965,1.167,2.254,1.75,3.879,1.75c1.687,0,3.004-0.573,3.957-1.724c0.955-1.148,1.433-2.586,1.433-4.311V45.081
	c0-1.7-0.482-3.119-1.451-4.257C937.319,39.687,936.005,39.119,934.345,39.119z M939.841,26.12c-0.555-0.971-1.309-1.744-2.26-2.319
	c-0.947-0.575-1.98-0.864-3.094-0.864c-1.693,0-3.152,0.628-4.365,1.881c-1.217,1.252-1.822,2.735-1.822,4.45
	c0,1.703,0.605,3.184,1.822,4.441c1.213,1.26,2.672,1.89,4.365,1.89c1.694,0,3.151-0.63,4.364-1.89
	c1.218-1.258,1.824-2.738,1.824-4.441C940.677,28.142,940.399,27.092,939.841,26.12z"/>
<path fill="#FFFFFF" d="M933.142,2.347c-25.641,0-46.497,20.859-46.497,46.5c0,25.64,20.856,46.5,46.497,46.5
	c10.98,0,21.646-3.923,30.037-11.042c1.681-1.422,1.884-3.935,0.463-5.612c-1.426-1.678-3.938-1.884-5.612-0.462
	c-6.955,5.901-15.793,9.15-24.888,9.15c-21.247,0-38.534-17.285-38.534-38.534s17.287-38.536,38.534-38.536
	c21.248,0,38.537,17.287,38.537,38.536c0,6.885-1.854,13.653-5.362,19.572c-1.121,1.894-0.498,4.335,1.395,5.457
	c1.896,1.121,4.336,0.495,5.457-1.396c4.238-7.149,6.477-15.32,6.477-23.633C979.644,23.206,958.784,2.347,933.142,2.347z
	 M933.001,37.812c-1.65,0-2.947,0.568-3.896,1.705c-0.949,1.139-1.423,2.557-1.423,4.257v26.255c0,1.688,0.48,3.116,1.439,4.283
	c0.963,1.167,2.254,1.751,3.879,1.751c1.685,0,3.004-0.574,3.957-1.725c0.953-1.147,1.43-2.586,1.43-4.31V43.773
	c0-1.7-0.481-3.118-1.448-4.257C935.976,38.38,934.659,37.812,933.001,37.812z M938.495,24.813c-0.555-0.97-1.31-1.744-2.258-2.319
	c-0.949-0.575-1.98-0.863-3.097-0.863c-1.692,0-3.149,0.627-4.364,1.881c-1.218,1.252-1.822,2.735-1.822,4.449
	c0,1.703,0.604,3.185,1.822,4.442c1.215,1.259,2.672,1.889,4.364,1.889c1.695,0,3.154-0.63,4.365-1.889
	c1.217-1.258,1.824-2.739,1.824-4.442C939.331,26.834,939.054,25.784,938.495,24.813z"/>
<path fill="#2C689B" d="M64.873,171.486c-3.336-5.67-14.416-10.766-18.229-10.766c-0.792,0-1.498,0.178-2.102,0.528
	c-1.571,0.912-2.967,2.06-4.154,3.399c-3.5-3.822-6.685-8.158-9.496-12.937c-2.86-4.86-5.196-9.997-6.847-15.046
	c1.722-0.372,3.379-1.014,4.912-1.902c1.649-0.959,3.123-2.199,4.38-3.686c0.409-0.48,0.666-1.068,0.737-1.692
	c0.636-5.52-0.83-11.646-4.127-17.249c-1.764-2.992-3.931-5.619-6.446-7.809c-0.528-0.463-1.194-0.74-1.894-0.788
	c-3.367-0.235-6.778,0.553-9.693,2.247c-0.108,0.063-0.212,0.132-0.316,0.202l-0.016,0.007c-0.126,0.066-0.252,0.133-0.395,0.213
	c-13.754,7.992-13.555,32.895,0.448,56.691c10.771,18.303,26.916,30.6,40.173,30.6h0.002c3.432,0,6.573-0.813,9.328-2.413
	c2.85-1.655,5.162-4.093,6.872-7.246c0.156-0.288,0.257-0.592,0.308-0.907c0.005-0.008,0.007-0.015,0.009-0.021
	c0.298-0.628,0.379-1.334,0.237-2.015C67.877,177.646,66.633,174.479,64.873,171.486z M61.897,181.584
	c-1.075,1.729-2.419,3.066-4.007,3.986c-1.756,1.021-3.802,1.541-6.082,1.541h-0.002c-10.878-0.002-25.116-11.284-34.62-27.436
	c-11.78-20.015-13.039-41.973-2.774-47.939l0.355-0.186c0.051-0.029,0.101-0.058,0.149-0.086c0.088-0.053,0.175-0.113,0.234-0.156
	c1.507-0.875,3.209-1.363,4.945-1.414c1.644,1.576,3.088,3.41,4.298,5.467c2.361,4.008,3.562,8.436,3.371,12.309
	c-0.625,0.618-1.313,1.146-2.055,1.577c-1.722,1.001-3.713,1.481-5.713,1.403c-1.01-0.053-1.998,0.396-2.639,1.188
	c-0.641,0.786-0.866,1.835-0.608,2.814c1.804,6.839,4.694,13.664,8.589,20.285c3.805,6.459,8.255,12.192,13.231,17.043
	c0.734,0.718,1.771,1.041,2.788,0.869c1.018-0.17,1.889-0.814,2.345-1.733c0.787-1.585,1.959-2.931,3.41-3.929
	c2.602,0.58,10.21,4.129,12.208,7.521c1.222,2.074,2.126,4.239,2.701,6.451C61.969,181.301,61.93,181.443,61.897,181.584z"/>
<path fill="#FFFFFF" d="M63.873,170.486c-3.336-5.67-14.416-10.766-18.229-10.766c-0.792,0-1.498,0.178-2.102,0.528
	c-1.571,0.912-2.967,2.06-4.154,3.399c-3.5-3.822-6.685-8.158-9.496-12.937c-2.86-4.86-5.196-9.997-6.847-15.046
	c1.722-0.372,3.379-1.014,4.912-1.902c1.649-0.959,3.123-2.199,4.38-3.686c0.409-0.48,0.666-1.068,0.737-1.692
	c0.636-5.52-0.83-11.646-4.127-17.249c-1.764-2.992-3.931-5.619-6.446-7.809c-0.528-0.463-1.194-0.74-1.894-0.788
	c-3.367-0.235-6.778,0.553-9.693,2.247c-0.108,0.063-0.212,0.132-0.316,0.202l-0.016,0.007c-0.126,0.066-0.252,0.133-0.395,0.213
	c-13.754,7.992-13.555,32.895,0.448,56.691c10.771,18.303,26.916,30.6,40.173,30.6h0.002c3.432,0,6.573-0.813,9.328-2.413
	c2.85-1.655,5.162-4.093,6.872-7.246c0.156-0.288,0.257-0.592,0.308-0.907c0.005-0.008,0.007-0.015,0.009-0.021
	c0.298-0.628,0.379-1.334,0.237-2.015C66.877,176.646,65.633,173.479,63.873,170.486z M60.897,180.584
	c-1.075,1.729-2.419,3.066-4.007,3.986c-1.756,1.021-3.802,1.541-6.082,1.541h-0.002c-10.878-0.002-25.116-11.284-34.62-27.436
	c-11.78-20.015-13.039-41.973-2.774-47.939l0.355-0.186c0.051-0.029,0.101-0.058,0.149-0.086c0.088-0.053,0.175-0.113,0.234-0.156
	c1.507-0.875,3.209-1.363,4.945-1.414c1.644,1.576,3.088,3.41,4.298,5.467c2.361,4.008,3.562,8.436,3.371,12.309
	c-0.625,0.618-1.313,1.146-2.055,1.577c-1.722,1.001-3.713,1.481-5.713,1.403c-1.01-0.053-1.998,0.396-2.639,1.188
	c-0.641,0.786-0.866,1.835-0.608,2.814c1.804,6.839,4.694,13.664,8.589,20.285c3.805,6.459,8.255,12.192,13.231,17.043
	c0.734,0.718,1.771,1.041,2.788,0.869c1.018-0.17,1.889-0.814,2.345-1.733c0.787-1.585,1.959-2.931,3.41-3.929
	c2.602,0.58,10.21,4.129,12.208,7.521c1.222,2.074,2.126,4.239,2.701,6.451C60.969,180.301,60.93,180.443,60.897,180.584z"/>
<g>
	<g>
		<path fill="#3B86C4" d="M58.547,545.334h-1.443v-11.553c0-0.984-0.444-1.443-1.444-1.443H18.114c-1,0-1.493,0.524-1.493,1.507
			v5.64h-1.395v-10.035H9.453v36.102h5.773v-10.035h1.395v5.781c0,0.984,0.493,1.365,1.493,1.365h37.545c1,0,1.444-0.46,1.444-1.444
			v-11.552h1.443V545.334z M54.216,533.781v8.664h-2.889v-1.443h-7.22v-4.333H21.003v8.665h-2.889v-11.553H54.216z M18.114,561.218
			v-11.552h2.889v8.664h23.104v-4.332h7.22v-1.444h2.889v8.664H18.114z"/>
	</g>
</g>
<path fill="#3B86C4" d="M457.211,561.86h-14.152c0.045-0.592,0.076-1.186,0.076-1.777c0-4.746-1.456-9.326-4.136-13.161
	l19.761-14.238c1.095-0.79,1.35-2.326,0.57-3.432c-0.782-1.109-2.305-1.364-3.399-0.577l-46.691,33.643
	c-0.863,0.62-1.229,1.734-0.906,2.754c0.324,1.02,1.262,1.711,2.321,1.711h29.602c0.001,0,0.004,0,0.005,0c0.002,0,0.004,0,0.007,0
	h16.941c1.345,0,2.435-1.103,2.435-2.461C459.646,562.962,458.556,561.86,457.211,561.86z M435.032,549.781
	c2.094,3.002,3.232,6.588,3.232,10.302c0,0.592-0.031,1.186-0.091,1.777h-19.906L435.032,549.781z"/>
<g>
	<g>
		<path fill="#3B86C4" d="M101.257,567.475h18.772v-11.191h-18.772V567.475z M124.614,567.475h18.771v-11.191h-18.771V567.475z
			 M147.971,567.475h18.772v-11.191h-18.772V567.475z M124.614,553.096h18.771v-11.191h-18.771V553.096z M147.971,553.096h18.772
			v-11.191h-18.772V553.096z M147.971,527.525v11.191h18.772v-11.191H147.971z"/>
	</g>
</g>
<g>
	<g>
		<path fill="#3B86C4" d="M546.106,536.5c-0.624-5.979-5.97-10.666-12.452-10.666c-6.537,0-11.915,4.772-12.46,10.826
			c-4.765,1.188-8.136,5.262-8.136,9.998v12.154c0,5.709,4.909,10.354,10.946,10.354h19.989c6.036,0,10.947-4.645,10.947-10.354
			v-12.154C554.941,541.635,551.211,537.433,546.106,536.5z M533.654,528.387c5.413,0,9.815,4.164,9.815,9.283
			c0,3.839-2.476,7.141-5.997,8.552c-0.138-1.68-1.48-3.023-3.219-3.262l-4.014-9.823c-0.192-0.463-0.744-0.691-1.233-0.508
			c-0.488,0.182-0.729,0.703-0.537,1.168l3.944,9.34c-1.376,0.477-2.368,1.678-2.471,3.122c-3.575-1.388-6.103-4.712-6.103-8.589
			C523.841,532.551,528.243,528.387,533.654,528.387z M515.914,558.813v-12.154c0-3.207,2.091-6.004,5.153-7.125
			c0.857,5.159,5.227,9.244,10.683,10.02c0.111,0.064,0.226,0.124,0.345,0.178v16.734h-8.09
			C519.542,566.465,515.914,563.033,515.914,558.813z M552.084,558.813c0,4.221-3.629,7.652-8.09,7.652h-8.091v-16.964
			c5.367-0.925,9.578-5.051,10.322-10.202c3.424,0.916,5.858,3.869,5.858,7.359V558.813z"/>
	</g>
</g>
<g>
	<g>
		<path fill="#3B86C4" d="M258.468,519.342h-32.937c-1.664,0-3.019,1.395-3.019,3.111v50.094c0,1.715,1.355,3.111,3.019,3.111
			h32.937c1.664,0,3.019-1.396,3.019-3.111v-50.094C261.487,520.736,260.132,519.342,258.468,519.342z M259.266,572.279
			c0,0.049-1.066,1.125-1.114,1.125h-32.305c-0.047,0-1.113-1.076-1.113-1.125v-49.559c0-0.049,1.066-1.127,1.113-1.127h32.305
			c0.048,0,1.114,1.078,1.114,1.127V572.279z M232.532,526.098l-2.042,0.264v3.115h-2.414v2.254h2.414v38.152l2.042,0.143V531.73
			h22.278v-2.254h-22.278V526.098z"/>
	</g>
</g>
<path fill="#3B86C4" d="M662.896,541.332c0-2.18-0.254-3.693-0.721-4.713c-2.053-6.668-8.287-11.518-15.66-11.518
	c-5.021,0-9.51,2.256-12.516,5.795c-3.006-3.539-7.492-5.795-12.516-5.795c-9.047,0-16.381,7.297-16.381,16.299
	c0,5.309,2.564,10.012,6.516,12.986c8.434,9.209,22.566,15.512,22.566,15.512s15.342-6.844,23.594-16.688
	c3.145-2.969,5.117-7.158,5.117-11.811c0-0.012-0.004-0.023-0.004-0.037C662.893,541.355,662.896,541.344,662.896,541.332z
	 M647.633,551.611l-2.199-5.969l-4.893,16.604l-6.367-20.986l-5.941,20.949l-5.365-16.748l-2.506,6.621h-9.063l7.404-2.385
	l4.352-11.496l5.039,15.721l6-21.168l6.414,21.131l4.674-15.863l4.125,11.205l7.67,2.385H647.633z"/>
<path fill="#3B86C4" d="M349.311,590.127h-9.121v-2.238h-40.275v2.238h-9.122v-2.607c-0.693-0.296-1.204-0.77-1.464-1.365
	c-0.212-0.483-0.355-1.274,0.164-2.28c0.723-1.409,0.231-3.861-1.073-5.359l-0.423-0.485c-1.677-1.922-1.992-5.276-0.7-7.477
	l7.523-12.84c0.957-1.626,2.856-2.681,4.839-2.681c0.679,0,1.331,0.124,1.936,0.367l32.608,13.099
	c1.873,0.754,5.393,0.909,7.332,0.323l5.173-1.565c1.922-0.581,3.84-2.744,4.188-4.724l4.813-27.459l-5.806-12.787
	c-0.277-0.607-0.24-1.314,0.101-1.893l8.555-14.527c0.549-0.937,1.864-1.279,2.81-0.728c0.98,0.577,1.305,1.839,0.729,2.815
	l-8.012,13.605l2.88,6.342l1.282-7.317c0.39-2.235,1.476-4.639,2.938-4.639c0.258,0,0.638,0.078,0.985,0.452
	c0.555,0.597,0.728,1.634,0.766,2.509l15.96-4.427c1.083-0.299,2.232,0.365,2.529,1.428c0.301,1.095-0.34,2.229-1.431,2.531
	l-15.214,4.219l-3.657,10.278l-6.639,46.93h-41.392l0.664-1.058c1.16-1.842,1.773-3.957,1.773-6.114
	c0-6.348-5.164-11.51-11.51-11.51c-6.345,0-11.508,5.162-11.508,11.51c0,6.347,5.164,11.509,11.508,11.509
	c2.864,0,5.616-1.073,7.749-3.018l0.197-0.18h42.358l-0.311,2.203c-0.333,2.353-2.37,4.305-4.703,4.632V590.127z M341.566,588.75
	h6.367v-2.238h0.688c1.917,0,3.761-1.601,4.028-3.496l0.089-0.634h-40.244c-2.355,2.062-5.355,3.197-8.475,3.197
	c-7.104,0-12.885-5.781-12.885-12.886c0-7.107,5.78-12.887,12.885-12.887c7.106,0,12.886,5.779,12.886,12.887
	c0,2.015-0.476,3.995-1.386,5.795h37.769l6.514-45.948l3.92-11.018l15.903-4.412c0.359-0.099,0.571-0.474,0.472-0.834
	c-0.097-0.35-0.472-0.568-0.835-0.471l-16.242,4.504c-0.099,0.028-0.196,0.091-0.295,0.196l-1.328,1.388l0.142-1.915
	c0.132-1.736-0.258-2.574-0.406-2.67c-0.22,0.068-1.134,1.229-1.533,3.512l-2.052,11.705l-5.014-11.05l8.375-14.222
	c0.188-0.322,0.081-0.738-0.239-0.928c-0.311-0.182-0.744-0.073-0.929,0.239l-8.554,14.528c-0.112,0.188-0.125,0.423-0.034,0.622
	l5.981,13.177l-0.037,0.208l-4.85,27.668c-0.431,2.474-2.741,5.078-5.145,5.805l-5.173,1.565c-2.259,0.686-6.063,0.514-8.244-0.363
	l-32.607-13.097c-0.441-0.178-0.92-0.269-1.422-0.269c-1.504,0-2.938,0.785-3.65,2l-7.524,12.84c-0.998,1.7-0.746,4.391,0.55,5.876
	l0.422,0.485c1.695,1.941,2.248,4.971,1.259,6.892c-0.149,0.291-0.292,0.718-0.125,1.101c0.151,0.344,0.532,0.616,1.074,0.768
	l0.504,0.141v2.238h6.369v-2.238h43.03V588.75z"/>
<path fill="#B41F24" d="M314.802,572.167c0,6.79-5.506,12.294-12.294,12.294s-12.294-5.504-12.294-12.294
	s5.506-12.295,12.294-12.295S314.802,565.377,314.802,572.167z M947.767,562.611c0,7.878-6.39,14.266-14.267,14.266
	c-7.879,0-14.269-6.388-14.269-14.266c0-7.88,6.39-14.269,14.269-14.269C941.377,548.343,947.767,554.731,947.767,562.611z"/>
<g>
	<g>
		<path fill="#3B86C4" d="M715.847,538.72c5.306-1.311,6.279-1.181,15.583,0.061l0.306,0.041c9.201,1.225,13.008-0.569,17.415-2.646
			l0.832-0.391c2.893-1.348,4.838-4.428,4.838-7.664c0-3.069-1.679-5.953-4.725-8.114c-7.076-5.03-18.166-5.245-24.798-2.544
			c-4.417,1.798-6.176,1.831-8.838,1.884c-1.02,0.02-2.178,0.044-3.646,0.168c-5.265,0.45-10.485,1.807-10.502,1.813
			c-3.957,0.833-7.303,5.247-7.303,9.638c0,2.383,0.951,4.506,2.751,6.143c5.323,4.848,11.756,3.218,16.925,1.904L715.847,538.72z
			 M698.733,536.029c-1.486-1.355-2.272-3.106-2.272-5.065c0-3.75,2.813-7.511,6.185-8.222c0.051-0.012,5.151-1.338,10.292-1.778
			c1.421-0.119,2.553-0.142,3.551-0.161c2.722-0.054,4.688-0.091,9.354-1.992c6.135-2.496,16.831-2.296,23.416,2.384
			c2.65,1.883,4.11,4.341,4.11,6.926c0,2.681-1.606,5.23-3.996,6.345l-0.837,0.392c-4.375,2.061-7.832,3.689-16.612,2.519
			l-0.302-0.039c-9.35-1.246-10.55-1.407-16.123-0.03l-1.169,0.294C709.245,538.89,703.482,540.351,698.733,536.029z
			 M742.43,525.291c1.502,0,2.725-1.229,2.725-2.736s-1.223-2.736-2.725-2.736s-2.725,1.229-2.725,2.736
			S740.928,525.291,742.43,525.291z M742.43,521.274c0.702,0,1.273,0.574,1.273,1.28c0,0.705-0.571,1.279-1.273,1.279
			s-1.271-0.574-1.271-1.279C741.158,521.849,741.728,521.274,742.43,521.274z M734.22,525.291c1.504,0,2.724-1.229,2.724-2.736
			s-1.22-2.736-2.724-2.736c-1.502,0-2.723,1.229-2.723,2.736S732.718,525.291,734.22,525.291z M734.22,521.274
			c0.703,0,1.274,0.574,1.274,1.28c0,0.705-0.571,1.279-1.274,1.279c-0.702,0-1.272-0.574-1.272-1.279
			C732.947,521.849,733.518,521.274,734.22,521.274z M726.206,527.298c1.503,0,2.726-1.227,2.726-2.736
			c0-1.507-1.223-2.735-2.726-2.735c-1.502,0-2.724,1.229-2.724,2.735C723.482,526.071,724.704,527.298,726.206,527.298z
			 M726.206,523.282c0.703,0,1.276,0.574,1.276,1.279c0,0.707-0.573,1.279-1.276,1.279c-0.701,0-1.272-0.572-1.272-1.279
			C724.934,523.856,725.505,523.282,726.206,523.282z M707.987,529.306c1.502,0,2.725-1.228,2.725-2.735
			c0-1.509-1.223-2.736-2.725-2.736c-1.503,0-2.725,1.228-2.725,2.736C705.263,528.078,706.484,529.306,707.987,529.306z
			 M707.987,525.291c0.702,0,1.273,0.574,1.273,1.279s-0.571,1.278-1.273,1.278s-1.272-0.573-1.272-1.278
			S707.285,525.291,707.987,525.291z M702.519,528.038c-1.504,0-2.725,1.229-2.725,2.737c0,1.507,1.221,2.736,2.725,2.736
			c1.5,0,2.725-1.229,2.725-2.736C705.243,529.267,704.019,528.038,702.519,528.038z M702.519,532.053
			c-0.704,0-1.273-0.572-1.273-1.277c0-0.707,0.569-1.28,1.273-1.28c0.702,0,1.272,0.573,1.272,1.28
			C703.791,531.48,703.221,532.053,702.519,532.053z M708.669,531.505c-1.502,0-2.725,1.229-2.725,2.735
			c0,1.509,1.223,2.737,2.725,2.737c1.503,0,2.726-1.229,2.726-2.737C711.395,532.733,710.172,531.505,708.669,531.505z
			 M708.669,535.52c-0.701,0-1.274-0.572-1.274-1.279c0-0.705,0.573-1.279,1.274-1.279c0.7,0,1.272,0.574,1.272,1.279
			C709.941,534.947,709.369,535.52,708.669,535.52z M747.101,533.649c1.501,0,2.724-1.229,2.724-2.736
			c0-1.509-1.223-2.736-2.724-2.736c-1.503,0-2.725,1.228-2.725,2.736C744.376,532.421,745.598,533.649,747.101,533.649z
			 M747.101,529.634c0.701,0,1.271,0.574,1.271,1.279c0,0.706-0.57,1.277-1.271,1.277c-0.704,0-1.275-0.571-1.275-1.277
			C745.825,530.208,746.396,529.634,747.101,529.634z M735.708,532.921c0,1.508,1.223,2.735,2.723,2.735
			c1.504,0,2.728-1.228,2.728-2.735s-1.224-2.736-2.728-2.736C736.931,530.185,735.708,531.413,735.708,532.921z M738.431,531.642
			c0.703,0,1.274,0.574,1.274,1.279s-0.571,1.278-1.274,1.278c-0.701,0-1.272-0.573-1.272-1.278S737.729,531.642,738.431,531.642z
			 M726.325,532.233c0,1.508,1.222,2.735,2.724,2.735s2.725-1.228,2.725-2.735s-1.223-2.737-2.725-2.737
			S726.325,530.726,726.325,532.233z M729.049,530.955c0.702,0,1.273,0.572,1.273,1.278c0,0.705-0.571,1.279-1.273,1.279
			c-0.704,0-1.274-0.574-1.274-1.279C727.774,531.527,728.345,530.955,729.049,530.955z M768.154,559.217l-0.831-0.393
			c-4.409-2.076-8.218-3.87-17.419-2.645l-0.304,0.042c-9.303,1.24-10.275,1.37-15.584,0.059l-1.162-0.292
			c-5.168-1.312-11.6-2.942-16.923,1.905c-1.799,1.638-2.752,3.761-2.752,6.143c0,4.392,3.345,8.806,7.303,9.639
			c0.019,0.006,5.239,1.363,10.502,1.813c1.468,0.123,2.626,0.146,3.647,0.168c2.662,0.052,4.419,0.085,8.836,1.883
			c6.63,2.701,17.721,2.486,24.799-2.542c3.047-2.163,4.724-5.046,4.724-8.115C772.99,563.645,771.048,560.564,768.154,559.217z
			 M767.43,573.806c-6.585,4.681-17.282,4.881-23.417,2.384c-4.666-1.901-6.632-1.938-9.354-1.991
			c-0.997-0.021-2.129-0.043-3.551-0.162c-5.141-0.44-10.243-1.767-10.294-1.778c-3.367-0.71-6.184-4.472-6.184-8.222
			c0-1.959,0.786-3.71,2.276-5.065c4.746-4.32,10.51-2.859,15.595-1.569l1.168,0.293c5.572,1.378,6.774,1.217,16.121-0.029
			l0.305-0.04c8.779-1.17,12.235,0.459,16.61,2.52l0.836,0.392c2.392,1.114,3.997,3.664,3.997,6.345
			C771.539,569.465,770.079,571.924,767.43,573.806z M760.6,569.709c-1.502,0-2.725,1.229-2.725,2.737s1.223,2.735,2.725,2.735
			c1.505,0,2.727-1.228,2.727-2.735S762.104,569.709,760.6,569.709z M760.6,573.726c-0.7,0-1.272-0.574-1.272-1.279
			c0-0.706,0.572-1.28,1.272-1.28c0.701,0,1.274,0.574,1.274,1.28C761.874,573.151,761.301,573.726,760.6,573.726z M752.392,569.709
			c-1.503,0-2.725,1.229-2.725,2.737s1.222,2.735,2.725,2.735s2.725-1.228,2.725-2.735S753.895,569.709,752.392,569.709z
			 M752.392,573.726c-0.702,0-1.275-0.574-1.275-1.279c0-0.706,0.573-1.28,1.275-1.28c0.701,0,1.273,0.574,1.273,1.28
			C753.665,573.151,753.093,573.726,752.392,573.726z M744.379,567.701c-1.504,0-2.725,1.229-2.725,2.737
			c0,1.508,1.221,2.735,2.725,2.735c1.5,0,2.722-1.228,2.722-2.735C747.101,568.93,745.879,567.701,744.379,567.701z
			 M744.379,571.718c-0.704,0-1.275-0.574-1.275-1.279c0-0.706,0.571-1.278,1.275-1.278c0.701,0,1.272,0.572,1.272,1.278
			C745.651,571.144,745.08,571.718,744.379,571.718z M726.157,565.694c-1.502,0-2.725,1.227-2.725,2.735
			c0,1.51,1.223,2.736,2.725,2.736c1.503,0,2.725-1.227,2.725-2.736C728.882,566.921,727.66,565.694,726.157,565.694z
			 M726.157,569.709c-0.701,0-1.272-0.571-1.272-1.279c0-0.705,0.571-1.278,1.272-1.278s1.274,0.573,1.274,1.278
			C727.432,569.138,726.858,569.709,726.157,569.709z M720.688,561.489c-1.501,0-2.726,1.229-2.726,2.737
			c0,1.508,1.225,2.735,2.726,2.735c1.504,0,2.726-1.228,2.726-2.735C723.413,562.718,722.191,561.489,720.688,561.489z
			 M720.688,565.506c-0.7,0-1.271-0.574-1.271-1.279c0-0.706,0.571-1.28,1.271-1.28c0.702,0,1.274,0.574,1.274,1.28
			C721.962,564.932,721.39,565.506,720.688,565.506z M726.839,558.023c-1.502,0-2.724,1.229-2.724,2.737
			c0,1.507,1.222,2.736,2.724,2.736c1.503,0,2.725-1.229,2.725-2.736C729.563,559.252,728.342,558.023,726.839,558.023z
			 M726.839,562.039c-0.702,0-1.272-0.573-1.272-1.278c0-0.707,0.57-1.279,1.272-1.279c0.704,0,1.275,0.572,1.275,1.279
			C728.114,561.466,727.543,562.039,726.839,562.039z M765.27,561.352c-1.502,0-2.725,1.228-2.725,2.737
			c0,1.507,1.223,2.735,2.725,2.735c1.503,0,2.726-1.229,2.726-2.735C767.995,562.579,766.772,561.352,765.27,561.352z
			 M765.27,565.367c-0.702,0-1.272-0.573-1.272-1.278c0-0.707,0.57-1.279,1.272-1.279s1.275,0.572,1.275,1.279
			C766.545,564.794,765.972,565.367,765.27,565.367z M759.327,562.08c0-1.509-1.222-2.735-2.725-2.735
			c-1.501,0-2.725,1.227-2.725,2.735c0,1.51,1.224,2.736,2.725,2.736C758.105,564.816,759.327,563.59,759.327,562.08z
			 M756.603,563.359c-0.702,0-1.272-0.574-1.272-1.279s0.57-1.279,1.272-1.279s1.272,0.574,1.272,1.279
			S757.305,563.359,756.603,563.359z M747.219,560.031c-1.502,0-2.725,1.229-2.725,2.735c0,1.51,1.223,2.738,2.725,2.738
			c1.503,0,2.725-1.229,2.725-2.738C749.943,561.26,748.722,560.031,747.219,560.031z M747.219,564.046
			c-0.702,0-1.274-0.572-1.274-1.279c0-0.705,0.572-1.279,1.274-1.279s1.275,0.574,1.275,1.279
			C748.494,563.474,747.921,564.046,747.219,564.046z M747.45,551.118c0.136,0.135,0.309,0.2,0.485,0.2
			c0.174,0,0.35-0.065,0.484-0.2l3.631-3.646c0.27-0.27,0.27-0.706,0-0.976l-3.631-3.646c-0.267-0.271-0.702-0.271-0.97,0
			c-0.27,0.268-0.27,0.705,0,0.975l2.458,2.47h-30.659l2.46-2.472c0.271-0.269,0.271-0.705,0-0.974c-0.269-0.271-0.7-0.271-0.97,0
			l-3.632,3.645c-0.27,0.271-0.27,0.707,0,0.977l3.632,3.645c0.134,0.137,0.31,0.203,0.483,0.203c0.177,0,0.353-0.066,0.486-0.203
			c0.271-0.267,0.271-0.705,0-0.974l-2.458-2.468h30.657l-2.458,2.47C747.181,550.41,747.181,550.849,747.45,551.118z"/>
	</g>
</g>
<g>
	<g>
		<path fill="#3B86C4" d="M852.617,520.25c-7.045-4.986-18.081-5.197-24.682-2.521c-4.396,1.781-6.148,1.816-8.797,1.869
			c-1.016,0.02-2.166,0.041-3.626,0.166c-5.241,0.445-10.437,1.789-10.453,1.795c-3.94,0.826-7.268,5.201-7.268,9.553
			c0,2.359,0.943,4.465,2.735,6.088c5.3,4.805,11.702,3.188,16.847,1.887l1.155-0.289c5.28-1.299,6.248-1.17,15.51,0.061
			l0.302,0.041c9.158,1.213,12.946-0.564,17.334-2.621l0.829-0.389c2.877-1.336,4.812-4.389,4.812-7.598
			C857.315,525.25,855.646,522.393,852.617,520.25z M851.895,534.58l-0.832,0.389c-4.354,2.043-7.796,3.656-16.533,2.496
			l-0.302-0.039c-9.304-1.236-10.497-1.395-16.044-0.029l-1.162,0.291c-5.063,1.277-10.797,2.727-15.524-1.557
			c-1.479-1.342-2.262-3.078-2.262-5.02c0-3.717,2.801-7.445,6.154-8.148c0.051-0.014,5.127-1.326,10.243-1.762
			c1.413-0.119,2.542-0.143,3.535-0.16c2.71-0.053,4.664-0.09,9.309-1.975c6.106-2.476,16.751-2.276,23.306,2.361
			c2.637,1.867,4.09,4.303,4.09,6.863C855.872,530.949,854.272,533.477,851.895,534.58z M844.985,520.064
			c-1.495,0-2.711,1.217-2.711,2.713c0,1.494,1.216,2.711,2.711,2.711c1.494,0,2.713-1.217,2.713-2.711
			C847.698,521.281,846.479,520.064,844.985,520.064z M844.985,524.045c-0.7,0-1.267-0.568-1.267-1.268
			c0-0.701,0.566-1.268,1.267-1.268c0.699,0,1.269,0.566,1.269,1.268C846.254,523.477,845.685,524.045,844.985,524.045z
			 M839.527,522.777c0-1.496-1.219-2.713-2.713-2.713c-1.495,0-2.711,1.217-2.711,2.713c0,1.494,1.216,2.711,2.711,2.711
			C838.309,525.488,839.527,524.271,839.527,522.777z M836.814,524.045c-0.699,0-1.267-0.568-1.267-1.268
			c0-0.701,0.567-1.268,1.267-1.268s1.27,0.566,1.27,1.268C838.084,523.477,837.514,524.045,836.814,524.045z M831.552,524.766
			c0-1.494-1.216-2.711-2.713-2.711c-1.495,0-2.711,1.217-2.711,2.711c0,1.496,1.216,2.713,2.711,2.713
			C830.336,527.479,831.552,526.262,831.552,524.766z M828.839,526.035c-0.697,0-1.268-0.568-1.268-1.27
			c0-0.699,0.57-1.268,1.268-1.268c0.698,0,1.269,0.568,1.269,1.268C830.107,525.467,829.537,526.035,828.839,526.035z
			 M810.705,529.469c1.496,0,2.715-1.219,2.715-2.713s-1.219-2.711-2.715-2.711c-1.494,0-2.709,1.217-2.709,2.711
			S809.211,529.469,810.705,529.469z M810.705,525.488c0.7,0,1.271,0.568,1.271,1.268s-0.57,1.268-1.271,1.268
			c-0.698,0-1.266-0.568-1.266-1.268S810.007,525.488,810.705,525.488z M805.263,528.211c-1.494,0-2.711,1.217-2.711,2.713
			c0,1.494,1.217,2.711,2.711,2.711c1.495,0,2.713-1.217,2.713-2.711C807.976,529.428,806.758,528.211,805.263,528.211z
			 M805.263,532.191c-0.7,0-1.267-0.568-1.267-1.268c0-0.701,0.566-1.268,1.267-1.268c0.699,0,1.27,0.566,1.27,1.268
			C806.532,531.623,805.962,532.191,805.263,532.191z M811.386,531.646c-1.494,0-2.713,1.217-2.713,2.711
			c0,1.496,1.219,2.713,2.713,2.713c1.495,0,2.71-1.217,2.71-2.713C814.096,532.863,812.881,531.646,811.386,531.646z
			 M811.386,535.625c-0.7,0-1.269-0.566-1.269-1.268c0-0.699,0.568-1.266,1.269-1.266c0.697,0,1.266,0.566,1.266,1.266
			C812.651,535.059,812.083,535.625,811.386,535.625z M849.633,528.348c-1.494,0-2.711,1.217-2.711,2.713
			c0,1.494,1.217,2.711,2.711,2.711c1.495,0,2.71-1.217,2.71-2.711C852.343,529.564,851.128,528.348,849.633,528.348z
			 M849.633,532.328c-0.699,0-1.267-0.568-1.267-1.268s0.567-1.268,1.267-1.268s1.267,0.568,1.267,1.268
			S850.332,532.328,849.633,532.328z M841.005,530.338c-1.494,0-2.71,1.217-2.71,2.713c0,1.494,1.216,2.711,2.71,2.711
			c1.498,0,2.714-1.217,2.714-2.711C843.719,531.555,842.503,530.338,841.005,530.338z M841.005,534.318
			c-0.696,0-1.266-0.57-1.266-1.268c0-0.701,0.569-1.27,1.266-1.27c0.7,0,1.27,0.568,1.27,1.27
			C842.274,533.748,841.705,534.318,841.005,534.318z M831.667,529.656c-1.494,0-2.71,1.217-2.71,2.713
			c0,1.494,1.216,2.711,2.71,2.711c1.495,0,2.713-1.217,2.713-2.711C834.38,530.873,833.162,529.656,831.667,529.656z
			 M831.667,533.637c-0.7,0-1.267-0.568-1.267-1.268s0.566-1.268,1.267-1.268s1.27,0.568,1.27,1.268
			S832.367,533.637,831.667,533.637z M852.504,559.111l-0.825-0.389c-4.39-2.057-8.18-3.836-17.338-2.621l-0.302,0.041
			c-9.259,1.23-10.229,1.357-15.51,0.059l-1.155-0.287c-5.145-1.301-11.547-2.916-16.844,1.885
			c-1.791,1.625-2.738,3.729-2.738,6.092c0,4.35,3.327,8.725,7.268,9.551c0.017,0.006,5.215,1.35,10.453,1.795
			c1.46,0.125,2.61,0.146,3.626,0.168c2.651,0.051,4.4,0.086,8.797,1.867c6.601,2.676,17.637,2.465,24.682-2.521
			c3.032-2.143,4.698-5,4.698-8.043C857.315,563.5,855.384,560.447,852.504,559.111z M851.782,573.572
			c-6.552,4.637-17.199,4.836-23.306,2.361c-4.642-1.885-6.599-1.92-9.309-1.975c-0.993-0.018-2.119-0.041-3.535-0.16
			c-5.116-0.436-10.192-1.75-10.243-1.762c-3.352-0.703-6.154-4.432-6.154-8.146c0-1.943,0.782-3.68,2.265-5.021
			c4.725-4.283,10.461-2.834,15.521-1.557l1.162,0.291c5.547,1.365,6.743,1.207,16.044-0.029l0.306-0.039
			c8.736-1.158,12.175,0.455,16.529,2.496l0.832,0.389c2.382,1.104,3.978,3.631,3.978,6.287
			C855.872,569.27,854.419,571.707,851.782,573.572z M844.985,569.512c-1.495,0-2.711,1.217-2.711,2.713
			c0,1.494,1.216,2.711,2.711,2.711c1.498,0,2.713-1.217,2.713-2.711C847.698,570.729,846.483,569.512,844.985,569.512z
			 M844.985,573.492c-0.697,0-1.267-0.57-1.267-1.268c0-0.701,0.569-1.27,1.267-1.27c0.699,0,1.269,0.568,1.269,1.27
			C846.254,572.922,845.685,573.492,844.985,573.492z M836.814,569.512c-1.495,0-2.711,1.217-2.711,2.713
			c0,1.494,1.216,2.711,2.711,2.711c1.497,0,2.713-1.217,2.713-2.711C839.527,570.729,838.312,569.512,836.814,569.512z
			 M836.814,573.492c-0.697,0-1.267-0.57-1.267-1.268c0-0.701,0.569-1.27,1.267-1.27c0.699,0,1.27,0.568,1.27,1.27
			C838.084,572.922,837.514,573.492,836.814,573.492z M828.841,567.521c-1.495,0-2.713,1.217-2.713,2.711
			c0,1.496,1.218,2.713,2.713,2.713s2.711-1.217,2.711-2.713C831.552,568.738,830.336,567.521,828.841,567.521z M828.841,571.502
			c-0.699,0-1.27-0.568-1.27-1.27c0-0.697,0.57-1.268,1.27-1.268c0.696,0,1.267,0.57,1.267,1.268
			C830.107,570.934,829.537,571.502,828.841,571.502z M810.705,565.531c-1.494,0-2.709,1.219-2.709,2.713s1.215,2.711,2.709,2.711
			c1.498,0,2.715-1.217,2.715-2.711S812.203,565.531,810.705,565.531z M810.705,569.512c-0.695,0-1.266-0.568-1.266-1.268
			s0.57-1.268,1.266-1.268c0.7,0,1.271,0.568,1.271,1.268S811.405,569.512,810.705,569.512z M805.263,561.365
			c-1.494,0-2.711,1.217-2.711,2.713c0,1.494,1.217,2.711,2.711,2.711c1.498,0,2.713-1.217,2.713-2.711
			C807.976,562.582,806.761,561.365,805.263,561.365z M805.263,565.344c-0.696,0-1.267-0.568-1.267-1.266
			c0-0.701,0.57-1.27,1.267-1.27c0.699,0,1.27,0.568,1.27,1.27C806.532,564.775,805.962,565.344,805.263,565.344z M811.386,557.93
			c-1.494,0-2.711,1.217-2.711,2.713c0,1.494,1.217,2.711,2.711,2.711c1.495,0,2.71-1.217,2.71-2.711
			C814.096,559.146,812.881,557.93,811.386,557.93z M811.386,561.91c-0.7,0-1.267-0.568-1.267-1.268c0-0.701,0.566-1.27,1.267-1.27
			c0.699,0,1.266,0.568,1.266,1.27C812.651,561.342,812.085,561.91,811.386,561.91z M849.633,561.229
			c-1.494,0-2.711,1.217-2.711,2.711c0,1.496,1.217,2.713,2.711,2.713c1.495,0,2.714-1.217,2.714-2.713
			C852.347,562.445,851.128,561.229,849.633,561.229z M849.633,565.209c-0.699,0-1.267-0.57-1.267-1.27s0.567-1.268,1.267-1.268
			s1.27,0.568,1.27,1.268S850.332,565.209,849.633,565.209z M843.719,561.949c0-1.494-1.216-2.711-2.71-2.711
			c-1.495,0-2.714,1.217-2.714,2.711c0,1.496,1.219,2.713,2.714,2.713C842.503,564.662,843.719,563.445,843.719,561.949z
			 M841.009,563.217c-0.7,0-1.27-0.566-1.27-1.268c0-0.699,0.569-1.266,1.27-1.266c0.696,0,1.266,0.566,1.266,1.266
			C842.274,562.65,841.705,563.217,841.009,563.217z M831.667,559.92c-1.494,0-2.71,1.217-2.71,2.711s1.216,2.713,2.71,2.713
			c1.498,0,2.713-1.219,2.713-2.713S833.165,559.92,831.667,559.92z M831.667,563.898c-0.696,0-1.267-0.566-1.267-1.268
			c0-0.699,0.57-1.268,1.267-1.268c0.7,0,1.27,0.568,1.27,1.268C832.937,563.332,832.367,563.898,831.667,563.898z M869.147,558.615
			l-2.229,2.229v-26.687l2.229,2.226c0.242,0.244,0.634,0.244,0.877,0c0.245-0.242,0.245-0.635,0-0.877l-3.286-3.287
			c-0.242-0.242-0.634-0.242-0.877,0l-3.285,3.287c-0.125,0.123-0.184,0.279-0.184,0.439c0,0.158,0.059,0.316,0.184,0.438
			c0.239,0.244,0.634,0.244,0.877,0l2.226-2.227v26.688l-2.226-2.229c-0.243-0.242-0.638-0.242-0.88,0
			c-0.122,0.125-0.181,0.283-0.181,0.441c0,0.16,0.059,0.316,0.181,0.439l3.285,3.287c0.246,0.242,0.638,0.242,0.88,0l3.286-3.287
			c0.245-0.244,0.245-0.635,0-0.881C869.781,558.373,869.39,558.373,869.147,558.615z"/>
	</g>
</g>
<g>
	<g>
		<path fill="#3B86C4" d="M962.703,514.269c-0.896,0-1.62,0.731-1.62,1.635v6.157l-6.334,6.269l-2.511-0.224
			c1.248-1.422,4.001-4.583,4.594-5.48c0.632-0.957-0.094-3.122-2.205-3.139c-3.361-0.026-5.392,2.248-5.392,2.248l-4.873,5.671
			l-0.39-0.034v-2.337l3.286-3.033c0.316-0.308,0.493-0.732,0.493-1.175v-4.923c0-0.903-0.725-1.635-1.619-1.635
			c-0.894,0-1.62,0.731-1.62,1.635v4.231l-3.287,3.034c-0.314,0.308-0.492,0.731-0.492,1.174v4.525c0,0.848,0.642,1.553,1.478,1.627
			l2.391,0.212L937.2,545.77c-1.192-0.271-2.429-0.427-3.701-0.427c-4.324,0-8.259,1.668-11.242,4.381l-3.807-11.047
			c3.479-0.115,8.161-0.764,7.637-2.493c-0.711-2.351-6.994-2.536-9.842-2.412c-2.848,0.125-4.693-3.771-7.866-1.356
			c-2.982,2.272,3.761,5.514,6.595,6.121l4.815,13.976c-1.954,2.771-3.115,6.15-3.115,9.804c0,6.014,3.125,11.293,7.813,14.309
			h-9.977c0.125-0.466,0.198-0.952,0.198-1.457c0-3.071-2.473-5.566-5.516-5.566c-3.042,0-5.517,2.495-5.517,5.566
			c0,1.968,1.021,3.697,2.555,4.687v0.038h0.063c0.844,0.529,1.835,0.84,2.899,0.84s2.057-0.311,2.899-0.84h39
			c0.844,0.529,1.835,0.84,2.899,0.84s2.056-0.311,2.899-0.84h0.998v-0.791c1-1.008,1.619-2.399,1.619-3.934
			c0-3.071-2.476-5.566-5.517-5.566c-3.042,0-5.517,2.495-5.517,5.566c0,0.505,0.073,0.991,0.198,1.457h-6.163
			c4.688-3.016,7.813-8.295,7.813-14.309c0-6.958-4.175-12.944-10.126-15.562l7.74-15.751l7.442,0.66
			c0.048,0.005,0.094,0.006,0.143,0.006c0.515,0,1.004-0.248,1.311-0.675l7.181-7.443c0.202-0.279,0.31-0.615,0.31-0.961v-6.687
			C964.323,515,963.597,514.269,962.703,514.269z M910.939,576.624h-3.492c-0.327-0.397-0.532-0.901-0.532-1.457
			c0-1.268,1.022-2.299,2.278-2.299s2.278,1.031,2.278,2.299C911.472,575.723,911.267,576.227,910.939,576.624z M953.992,572.868
			c1.255,0,2.277,1.031,2.277,2.299c0,0.556-0.205,1.06-0.532,1.457h-3.491c-0.327-0.397-0.532-0.901-0.532-1.457
			C951.714,573.899,952.737,572.868,953.992,572.868z M947.085,562.315c0,7.558-6.096,13.706-13.586,13.706
			c-7.491,0-13.586-6.148-13.586-13.706s6.095-13.704,13.586-13.704C940.989,548.611,947.085,554.758,947.085,562.315z
			 M931.415,557.538h-6.605v3.268h3.343l-0.04,0.06l6.767,4.594l1.13-1.694l-4.594-3.118V557.538z"/>
	</g>
</g>
<g>
	<g>
		<path fill="#3B86C4" d="M6.321,624.687c0.121,0.121,0.277,0.18,0.436,0.18c0.157,0,0.316-0.059,0.437-0.18
			c0.241-0.237,0.241-0.626,0-0.866l-2.209-2.191h27.561l-2.209,2.194c-0.242,0.237-0.242,0.626,0,0.866
			c0.122,0.118,0.279,0.177,0.437,0.177s0.315-0.059,0.438-0.177l3.263-3.241c0.242-0.24,0.242-0.626,0-0.866l-3.263-3.241
			c-0.241-0.238-0.632-0.238-0.874,0c-0.242,0.24-0.242,0.627,0,0.866l2.211,2.195H4.981l2.211-2.195
			c0.241-0.239,0.241-0.629,0-0.866c-0.242-0.238-0.63-0.238-0.872,0l-3.266,3.238c-0.242,0.24-0.242,0.629,0,0.869L6.321,624.687z
			 M8.976,654.007c0.22,0.217,0.573,0.217,0.794,0c0.22-0.217,0.22-0.569,0-0.787l-2.969-2.947c-0.221-0.217-0.575-0.217-0.794,0
			l-2.969,2.947c-0.111,0.107-0.164,0.251-0.164,0.392c0,0.145,0.053,0.286,0.164,0.396c0.218,0.217,0.573,0.217,0.794,0
			l2.008-1.993v23.921l-2.009-1.993c-0.22-0.218-0.575-0.218-0.794,0c-0.11,0.11-0.165,0.25-0.165,0.395
			c0,0.142,0.055,0.285,0.165,0.392l2.968,2.948c0.221,0.217,0.574,0.217,0.795,0l2.97-2.948c0.22-0.216,0.22-0.568,0-0.786
			c-0.221-0.218-0.575-0.218-0.794,0l-2.013,1.997V652.01L8.976,654.007z M62.868,643.806c-4.24-3.641-16.551-4.936-22.015-6.069
			c-5.463-1.134-10.518-5.425-19.322-8.74c-8.807-3.317-12.883-0.889-17.123,2.186c-4.238,3.074-3.505,6.636,0,9.711
			c3.209,2.811,17.816,8.945,20.276,9.97c0.229,0.093,0.353,0.144,0.353,0.144c0.726,0.22,1.498,0.396,2.299,0.541l4.547,24.938
			h7.256l-4.453-24.429c7.211-0.084,14.72-1.429,17.582-1.376c6.524-0.563,11.334,3.239,13.128,2.512S67.107,647.446,62.868,643.806
			z"/>
	</g>
</g>
<g>
	<g>
		<path fill="#3B86C4" d="M137.481,647.612c-2.668-1.379-5.968-1.309-8.646,0.486c-3.959,2.658-5.051,8.068-2.434,12.088
			c2.617,4.021,7.949,5.127,11.91,2.473c2.753-1.848,4.114-5.023,3.813-8.139c3.831-4.131,5.501-8.682,5.501-8.682
			S142.775,645.61,137.481,647.612z M135.606,659.106c-1.832,1.23-4.295,0.717-5.505-1.141c-1.209-1.859-0.705-4.359,1.125-5.586
			c1.832-1.229,4.296-0.717,5.505,1.141C137.94,655.38,137.438,657.88,135.606,659.106z M109.459,655.78h2.414
			c0-0.543,0.008-0.908,0.029-1.332c-0.804-0.047-1.607-0.078-2.412-0.125C109.469,654.794,109.459,655.237,109.459,655.78z
			 M110.367,647.673c0.895,0.314,1.792,0.629,2.686,0.941c0.175-0.592,0.373-1.164,0.59-1.719c-0.869-0.391-1.737-0.781-2.606-1.17
			C110.789,646.354,110.566,647.003,110.367,647.673z M113.409,641.241c0.777,0.564,1.552,1.129,2.33,1.693
			c0.378-0.553,0.782-1.078,1.21-1.58c-0.725-0.635-1.447-1.268-2.171-1.904C114.296,640.019,113.838,640.614,113.409,641.241z
			 M118.119,636.021c0.673,0.871,1.343,1.744,2.016,2.613c0.593-0.447,1.206-0.859,1.84-1.236c-0.577-0.936-1.154-1.867-1.733-2.805
			C119.509,635.028,118.801,635.505,118.119,636.021z M127.556,635.302c-0.333-1.182-0.665-2.365-0.997-3.549
			c-0.949,0.246-1.882,0.549-2.796,0.902c0.471,1.137,0.942,2.277,1.413,3.414C125.953,635.769,126.748,635.511,127.556,635.302z
			 M133.762,634.78c0.028-1.295,0.058-2.586,0.086-3.879c-1.227-0.025-2.457,0.033-3.676,0.174c0.162,1.285,0.326,2.568,0.487,3.852
			C131.688,634.808,132.726,634.757,133.762,634.78z M141.159,631.858c-1.417-0.436-2.871-0.748-4.345-0.939
			c-0.189,1.348-0.381,2.697-0.573,4.047c1.23,0.16,2.449,0.422,3.633,0.787C140.303,634.454,140.729,633.155,141.159,631.858z
			 M147.626,634.665c-1.354-0.895-2.793-1.645-4.292-2.25c-0.597,1.381-1.191,2.764-1.789,4.146c1.233,0.498,2.417,1.115,3.529,1.85
			C145.925,637.163,146.775,635.915,147.626,634.665z M149.575,635.835c-1.046,1.277-2.093,2.553-3.139,3.83
			c1.112,0.9,2.129,1.934,3.026,3.104c1.286-1.027,2.574-2.059,3.86-3.09C152.212,638.229,150.951,636.948,149.575,635.835z
			 M154.237,640.966c-1.346,0.945-2.692,1.895-4.037,2.84c0.884,1.336,1.618,2.828,2.168,4.477c1.519-0.59,3.038-1.182,4.555-1.771
			C156.241,644.47,155.331,642.62,154.237,640.966z M157.499,647.731c-1.671,0.553-3.344,1.127-5.015,1.68
			c0.535,1.918,0.828,3.934,0.828,6.369h5.229C158.541,652.804,158.173,650.155,157.499,647.731z"/>
	</g>
</g>
</svg>
