<?xml version="1.0" encoding="utf-8"?>
<!-- Generator: Adobe Illustrator 15.1.0, SVG Export Plug-In  -->
<!DOCTYPE svg PUBLIC "-//W3C//DTD SVG 1.1//EN" "http://www.w3.org/Graphics/SVG/1.1/DTD/svg11.dtd" [
	<!ENTITY ns_flows "http://ns.adobe.com/Flows/1.0/">
]>
<svg version="1.1"
	 xmlns="http://www.w3.org/2000/svg" xmlns:xlink="http://www.w3.org/1999/xlink" xmlns:a="http://ns.adobe.com/AdobeSVGViewerExtensions/3.0/"
	 x="0px" y="0px" width="1000px" height="1000px" viewBox="-28 -2.5 1000 1000" enable-background="new -28 -2.5 1000 1000"
	 xml:space="preserve">
<defs>
</defs>
<path fill="#FFFFFF" d="M29.008,30.766v-9.856c0-3.711,2.452-4.571,4.175-4.571c1.713,0,10.567,0,10.567,0V0.058L29.188,0
	C13.026,0,9.35,12.14,9.35,19.911v10.854H0v16.767h9.35c0,21.536,0,47.468,0,47.468h19.658c0,0,0-26.197,0-47.468h13.27L44,30.766
	H29.008z"/>
<path fill="#FFFFFF" d="M243.924,80.817c-0.398-0.67-2.817-6.054-14.502-17.113c-12.224-11.583-10.582-9.711,4.146-29.736
	c8.966-12.198,12.548-19.649,11.43-22.844c-1.068-3.032-7.667-2.231-7.667-2.231l-21.949,0.14c0,0-1.625-0.227-2.836,0.504
	c-1.176,0.727-1.934,2.411-1.934,2.411s-3.477,9.433-8.11,17.465c-9.77,16.941-13.68,17.841-15.28,16.782
	c-3.715-2.448-2.785-9.841-2.785-15.099c0-16.416,2.432-23.261-4.761-25.03c-2.377-0.593-4.148-0.982-10.251-1.046
	c-7.826-0.08-14.455,0.032-18.208,1.9c-2.499,1.253-4.426,4.033-3.244,4.196c1.447,0.197,4.732,0.905,6.472,3.325
	c2.247,3.119,2.167,10.135,2.167,10.135s1.291,19.32-3.014,21.728c-2.967,1.642-7.021-1.722-15.732-17.089
	c-4.461-7.868-7.839-16.575-7.839-16.575s-0.653-1.623-1.807-2.494c-1.409-1.055-3.378-1.387-3.378-1.387l-20.856,0.134
	c0,0-3.132,0.096-4.279,1.485c-1.026,1.234-0.08,3.794-0.08,3.794s16.325,38.992,34.814,58.637
	c16.965,18.021,36.226,16.834,36.226,16.834h8.718c0,0,2.635-0.293,3.983-1.772c1.246-1.361,1.205-3.912,1.205-3.912
	s-0.172-11.953,5.261-13.709c5.357-1.74,12.24,11.554,19.528,16.655c5.514,3.858,9.707,3.02,9.707,3.02l19.499-0.281
	C238.564,89.642,248.761,89.002,243.924,80.817z"/>
<polygon fill="#FFFFFF" points="351.111,19.474 351.111,8.595 345.669,8.595 345.669,19.474 334.793,19.474 334.793,24.91 
	345.669,24.91 345.669,35.784 351.111,35.784 351.111,24.91 362,24.91 362,19.474 "/>
<path fill="#FFFFFF" d="M332.896,7.5c0,0-17.422,0-23.598,0c-11.974,0-21.953,8.828-21.953,18.537c0,9.909,6.562,17.82,17.817,17.82
	c0.784,0,1.542-0.049,2.286-0.097c-0.729,1.396-1.252,2.96-1.252,4.599c0,2.755,1.515,4.326,3.394,6.145
	c-1.416,0-2.783,0.041-4.279,0.041c-13.712,0-23.31,9.43-23.31,18.472c0,8.92,11.573,14.483,25.281,14.483
	c15.627,0,25.246-8.856,25.246-17.772c0-7.138-1.548-10.731-9.168-16.446c-2.189-1.639-6.947-4.999-6.947-7.255
	c0-2.646,0.75-3.945,4.738-7.062c4.083-3.181,6.97-7.382,6.97-12.596c0-5.686-2.319-10.834-6.696-13.334h6.195L332.896,7.5z
	 M324.893,68.195c0.199,0.819,0.302,1.67,0.302,2.537c0,7.21-4.639,12.835-17.958,12.835c-9.483,0-16.324-6-16.324-13.195
	c0-7.06,8.025-13.146,17.505-13.038c2.209,0.02,4.27,0.371,6.136,0.978C319.705,61.888,323.846,64.121,324.893,68.195z
	 M309.728,40.254c-6.363-0.195-12.415-6.022-13.509-14.374c-1.102-8.342,3.168-14.726,9.53-14.54
	c6.35,0.195,11.795,7.039,12.89,15.382C319.733,35.07,316.078,40.439,309.728,40.254z"/>
<path fill="#FFFFFF" d="M447.222,50.723c-1.236-2.502-4.657-4.575-9.209-0.97C431.868,54.626,422,54.626,422,54.626
	s-9.87,0-16.017-4.874c-4.552-3.604-7.969-1.532-9.205,0.97c-2.151,4.356,0.279,6.459,5.771,10c4.691,3.034,11.137,4.162,15.3,4.594
	l-3.479,3.494c-4.891,4.921-9.614,9.673-12.889,12.974c-1.956,1.971-1.956,5.166,0,7.137l0.588,0.6c1.96,1.972,5.137,1.972,7.102,0
	l12.885-12.979c4.896,4.932,9.616,9.683,12.895,12.979c1.961,1.972,5.136,1.972,7.098,0l0.588-0.6c1.96-1.971,1.96-5.166,0-7.137
	L429.74,68.811l-3.479-3.512c4.159-0.43,10.534-1.567,15.19-4.575C446.942,57.182,449.373,55.079,447.222,50.723z"/>
<path fill="#FFFFFF" d="M422,48.035c12.078,0,21.883-9.853,21.883-22.017S434.078,4,422,4c-12.082,0-21.883,9.853-21.883,22.018
	S409.918,48.035,422,48.035z M422,15.189c5.945,0,10.765,4.848,10.765,10.829c0,5.984-4.819,10.829-10.765,10.829
	s-10.765-4.844-10.765-10.829C411.235,20.037,416.055,15.189,422,15.189z"/>
<g>
	<g>
		<path fill="#EF5A2C" d="M568.295,14.644c-0.945-1.082-2.298-1.705-3.731-1.705h-68.192l-0.968-5.747
			c-0.392-2.379-2.45-4.127-4.862-4.127h-11.106c-2.729,0-4.935,2.206-4.935,4.937c0,2.732,2.206,4.938,4.935,4.938h6.926
			l9.181,55.12c0.036,0.222,0.15,0.404,0.223,0.612c0.077,0.259,0.141,0.505,0.263,0.747c0.159,0.323,0.371,0.599,0.592,0.883
			c0.156,0.187,0.294,0.38,0.471,0.554c0.284,0.267,0.616,0.453,0.952,0.637c0.188,0.106,0.35,0.246,0.553,0.324
			c0.571,0.234,1.176,0.371,1.811,0.371c0.006,0,54.289,0,54.289,0c2.73,0,4.936-2.208,4.936-4.938c0-2.729-2.205-4.938-4.936-4.938
			h-50.103l-0.819-4.936h55.857c2.46,0,4.539-1.809,4.887-4.233l4.935-34.563C569.654,17.155,569.229,15.718,568.295,14.644z
			 M515.215,47.499h-13.093l-1.644-9.873h14.736V47.499z M515.215,32.688H500.41c-0.263,0-0.5,0.075-0.729,0.148l-1.667-10.022
			h17.201V32.688z M534.954,47.499H520.15v-9.873h14.804V47.499z M534.954,32.688H520.15v-9.874h14.804V32.688z M555.349,47.499
			h-15.46v-9.873h16.867L555.349,47.499z M557.471,32.688h-17.582v-9.874h18.989L557.471,32.688z M507.811,77.123
			c-4.088,0-7.4,3.317-7.4,7.405c0,4.088,3.313,7.407,7.4,7.407c4.091,0,7.404-3.319,7.404-7.407
			C515.215,80.44,511.901,77.123,507.811,77.123z M552.229,77.123c-4.089,0-7.404,3.317-7.404,7.405
			c0,4.088,3.315,7.407,7.404,7.407c4.084,0,7.4-3.319,7.4-7.407C559.629,80.44,556.313,77.123,552.229,77.123z"/>
	</g>
</g>
<path fill="#898989" d="M667.438,83.009l-12.94-12.944c5.271-7.28,8.39-16.212,8.39-25.869C662.888,19.827,643.064,0,618.696,0
	S574.5,19.827,574.5,44.196s19.828,44.196,44.196,44.196c9.654,0,18.588-3.119,25.864-8.393l12.946,12.947
	c1.369,1.371,3.172,2.053,4.97,2.053c1.797,0,3.594-0.682,4.962-2.053C670.187,90.202,670.187,85.754,667.438,83.009z
	 M618.696,74.344c-16.622,0-30.148-13.524-30.148-30.147c0-16.621,13.526-30.147,30.148-30.147s30.143,13.527,30.143,30.147
	C648.839,60.82,635.318,74.344,618.696,74.344z"/>
</svg>
